<svg width="27" height="39" viewBox="0 0 27 39" fill="none" xmlns="http://www.w3.org/2000/svg">
<path d="M25.7884 36.3606C18.49 33.7959 11.0367 28.8557 9.43587 20.731C8.71292 17.0302 9.43587 13.0884 11.2433 9.80063C13.3433 5.96208 16.7515 3.36288 20.4868 1.24565C20.6072 1.1768 20.6933 0.970242 20.6933 0.815323C20.7105 0.815323 20.7105 0.815323 20.7277 0.815323C20.9687 0.815323 21.2958 0.230072 20.9515 0.178432C12.517 -1.12977 4.08257 4.92928 1.24238 12.658C-0.237953 16.7031 -0.427307 21.2302 0.846471 25.3614C2.36124 30.2671 5.71782 33.6926 10.3654 35.7754C14.8753 37.7893 20.263 38.9254 25.0999 37.4623C25.1515 37.4795 25.186 37.4967 25.2376 37.5139C25.754 37.6861 26.3737 36.5672 25.7884 36.3606Z" fill="#6868AC"/>
</svg>
