<svg width="21" height="26" viewBox="0 0 21 26" fill="none" xmlns="http://www.w3.org/2000/svg">
<path d="M13.0419 5L12.249 12.0036C12.1944 12.5715 11.8116 13.0582 11.2922 13.2745L7 15.0592L11.0461 16.1138C11.839 16.3302 12.4404 16.9791 12.5771 17.7904L13.8894 25.6863L14.8462 17.1414C14.9282 16.4654 15.393 15.8975 16.0491 15.7082L20.9427 14.1939L15.6664 12.7337C15.0923 12.5715 14.6822 12.1388 14.5455 11.5709L13.0419 5ZM15.393 13.599L17.6621 14.221L15.7484 14.8159C14.7369 15.1133 14.0261 16.0057 13.8894 17.0332L13.6706 18.9802L13.4519 17.6281C13.2606 16.4653 12.3857 15.5189 11.2375 15.2215L9.81589 14.8429L11.5929 14.1128C12.4404 13.7613 13.0145 12.9771 13.1239 12.0847L13.3152 10.4623L13.616 11.7332C13.8347 12.6526 14.5181 13.3556 15.393 13.599Z" fill="#F3CB29"/>
<path d="M3.03333 0L2.63529 3.72418C2.60784 4.02614 2.41569 4.28497 2.1549 4.4L0 5.34902L2.03137 5.9098C2.42941 6.02484 2.73137 6.36993 2.8 6.80131L3.45882 11L3.93922 6.45621C3.98039 6.09673 4.21372 5.79477 4.54314 5.69412L7 4.88889L4.35098 4.11242C4.06275 4.02614 3.85686 3.79608 3.78823 3.49412L3.03333 0ZM4.21373 4.57255L5.35294 4.90327L4.39216 5.21961C3.88431 5.37778 3.52745 5.85229 3.45882 6.39869L3.34902 7.43398L3.23921 6.71503C3.14314 6.09673 2.70392 5.59346 2.12745 5.43529L1.41372 5.23399L2.30588 4.84575C2.73137 4.65882 3.01961 4.24183 3.07451 3.76732L3.17059 2.90457L3.32157 3.58039C3.43137 4.06928 3.77451 4.44314 4.21373 4.57255Z" fill="#F3CB29"/>
</svg>
