<svg width="44" height="64" viewBox="0 0 44 64" fill="none" xmlns="http://www.w3.org/2000/svg">
<path d="M19.1377 0.31189L16.702 21.8692C16.5341 23.6171 15.3582 25.1153 13.7625 25.7811L0.576416 31.2745L13.0066 34.5206C15.4422 35.1864 17.2899 37.184 17.7099 39.681L21.7413 63.985L24.6808 37.6834C24.9328 35.6026 26.3606 33.8547 28.3763 33.2721L43.4101 28.611L27.2005 24.1165C25.4367 23.6171 24.1769 22.2853 23.757 20.5374L19.1377 0.31189ZM26.3606 26.7799L33.3316 28.6943L27.4524 30.5254C24.3449 31.4409 22.1612 34.1876 21.7413 37.3505L21.0694 43.3432L20.3975 39.1816C19.8096 35.6026 17.122 32.6894 13.5945 31.7739L9.22713 30.6086L14.6863 28.3613C17.2899 27.2793 19.0537 24.8655 19.3896 22.1189L19.9775 17.1249L20.9014 21.0368C21.5733 23.8668 23.673 26.0308 26.3606 26.7799Z" fill="#6868AC" fill-opacity="0.21"/>
<path d="M21.693 62.1661L17.9565 39.6401L17.9564 39.6395C17.5199 37.0442 15.5998 34.9704 13.0725 34.2794L13.0697 34.2787L1.35725 31.22L13.8586 26.0119L13.8587 26.0118C15.5337 25.3129 16.7726 23.7395 16.9507 21.8951L19.2211 1.80007L23.5133 20.5931L23.5132 20.5931L23.5139 20.5958C23.9548 22.431 25.2811 23.8328 27.1324 24.357L27.1337 24.3574L42.5227 28.6244L28.3069 33.0319C28.3061 33.0321 28.3053 33.0324 28.3045 33.0326C26.1895 33.645 24.696 35.4782 24.4326 37.6533L24.4324 37.6556L21.693 62.1661ZM33.4059 28.933L34.2207 28.6792L33.3978 28.4532L26.4277 26.5391C26.4274 26.539 26.4271 26.5389 26.4268 26.5388C23.8285 25.8143 21.7958 23.7214 21.1447 20.9792C21.1447 20.9792 21.1447 20.9791 21.1446 20.9791L20.2208 17.0674L19.7292 17.0957L19.1415 22.0885C19.1414 22.0887 19.1414 22.089 19.1414 22.0892C18.8158 24.7491 17.108 27.0841 14.5906 28.1304C14.5905 28.1304 14.5904 28.1304 14.5904 28.1305L9.13196 30.3774L8.44728 30.6593L9.16268 30.8502L13.53 32.0154L13.5317 32.0158C16.9648 32.9069 19.5791 35.7422 20.1508 39.2221L20.8226 43.3831L21.3178 43.3711L21.9891 37.3834C21.9892 37.3825 21.9893 37.3817 21.9894 37.3809C22.3982 34.3096 24.518 31.6505 27.5231 30.7652L27.5231 30.7652L27.5268 30.7641L33.4059 28.933Z" stroke="#6868AC" stroke-opacity="0.8" stroke-width="0.5"/>
</svg>
