<svg width="60" height="60" viewBox="0 0 60 60" fill="none" xmlns="http://www.w3.org/2000/svg">
<path d="M60 30C60 46.5685 46.5685 60 30 60C13.4315 60 0 46.5685 0 30C0 13.4315 13.4315 0 30 0C46.5685 0 60 13.4315 60 30Z" fill="#8A5796"/>
<path d="M25.1986 21.6718C25.2949 21.4069 25.5648 21.2437 25.8477 21.2803C26.1305 21.3166 26.3494 21.5424 26.3736 21.8229L27.3429 33L29.1579 26.5428C29.2321 26.2788 29.4773 26.0974 29.7558 26.1043C30.0332 26.1103 30.2711 26.3015 30.3335 26.5684L31.3442 30.8962L33.0699 23.7398C33.1373 23.4598 33.3976 23.268 33.6884 23.2803C33.9797 23.294 34.22 23.5103 34.2606 23.7952L35.5484 32.8576L36.1257 31.0157C36.2044 30.7651 36.4393 30.5942 36.7052 30.5942H50.3632V27.5083C50.3632 24.6597 48.0233 22.3496 45.1355 22.3496H36.8376V14.1592C36.8376 11.3092 34.4978 9 31.6106 9H28.5915H28.1153C25.2287 9 22.8876 11.3093 22.8876 14.1592V22.3495H14.5893C11.7042 22.3495 9.36316 24.6596 9.36316 27.5082V30.66H21.931L25.1986 21.6718Z" fill="#BD69D0"/>
<path d="M36.9202 36.1995C36.8358 36.4693 36.5732 36.6454 36.2899 36.6225C36.0056 36.5996 35.7754 36.3848 35.7359 36.1049L34.5128 27.4647L32.9261 34.071C32.8608 34.3428 32.6157 34.5346 32.334 34.5346C32.3333 34.5346 32.3326 34.5346 32.3318 34.5346C32.0491 34.5335 31.8043 34.3399 31.7408 34.0668L30.6814 29.5126L28.5963 36.9598C28.5225 37.2229 28.2809 37.4016 28.0101 37.4016C27.9913 37.4016 27.9724 37.4008 27.9534 37.3992C27.6599 37.3721 27.4282 37.1409 27.4032 36.85L26.3797 25L23.8974 31.8556C23.8107 32.0954 23.5815 32.255 23.3245 32.255H10.3632C10.7958 34.694 12.9434 36.5477 15.5275 36.5477H23.8562V44.8005C23.8562 47.6721 26.2059 50 29.1029 50H29.5809H32.611C35.5088 50 37.8571 47.672 37.8571 44.8005V36.5477H46.1854C48.7953 36.5477 50.9583 34.6604 51.3632 32.1887H38.1729L36.9202 36.1995Z" fill="#BD69D0"/>
<path d="M51.4614 30.9097H49.4606H36.5549C36.3037 30.9097 36.0816 31.0731 36.0074 31.3127L35.4619 33.0736L34.2449 24.4093C34.2066 24.1369 33.9795 23.9301 33.7043 23.917C33.4295 23.9053 33.1835 24.0886 33.1199 24.3563L31.4892 31.1984L30.5342 27.0607C30.4752 26.8055 30.2504 26.6228 29.9883 26.617C29.7251 26.6104 29.4935 26.7839 29.4233 27.0362L27.7083 33.2098L26.7924 22.5236C26.7695 22.2555 26.5627 22.0395 26.2955 22.0049C26.0281 21.9699 25.7731 22.126 25.6821 22.3792L22.5947 30.9726H10.719H8.93633C8.6198 30.9726 8.36316 31.2289 8.36316 31.5452C8.36316 31.8612 8.61969 32.1175 8.93633 32.1175H10.7951H22.9977C23.2398 32.1175 23.4555 31.9659 23.5372 31.7384L25.8742 25.2334L26.8378 36.4774C26.8614 36.7534 27.0796 36.9728 27.3558 36.9986C27.3737 37 27.3915 37.0009 27.4092 37.0009C27.6642 37.0009 27.8916 36.8312 27.9611 36.5816L29.9242 29.5151L30.9215 33.8365C30.9813 34.0957 31.2118 34.2793 31.4779 34.2804C31.4787 34.2804 31.4794 34.2804 31.48 34.2804C31.7452 34.2804 31.976 34.0984 32.0375 33.8405L33.5314 27.5721L34.6828 35.7704C34.72 36.036 34.9369 36.2399 35.2044 36.2615C35.4712 36.2833 35.7184 36.1162 35.7979 35.8602L36.9772 32.0543H49.3955H51.4613C51.7777 32.0543 52.0343 31.7981 52.0343 31.482C52.0344 31.1659 51.7779 30.9097 51.4614 30.9097Z" fill="white"/>
</svg>
