<svg viewBox="0 0 29 21" fill="none" xmlns="http://www.w3.org/2000/svg">
<g clip-path="url(#clip0_351_1014)">
<path d="M8.40791 11.3166C9.60272 9.97246 10.5615 8.36819 11.5793 6.894C12.6414 5.34754 13.7034 3.80109 14.7802 2.24018C14.9425 2.00893 14.677 1.43082 14.441 1.76324C13.3937 3.29524 12.3611 4.81279 11.3138 6.34479C10.2665 7.86234 9.1012 9.37989 8.24565 11.0131C8.2014 11.0998 8.27515 11.4756 8.40791 11.3166Z" fill="#CDB97D" fill-opacity="0.5"/>
<path d="M14.5443 1.95112C14.6328 2.96282 14.913 3.96007 15.1343 4.95732C15.3556 5.92566 15.5768 6.894 15.7981 7.87679C16.2406 9.88574 16.6389 11.9091 16.9929 13.9325C17.0814 14.4528 17.5829 14.1204 17.5092 13.7013C17.1551 11.6779 16.7716 9.6545 16.3291 7.6311C16.1226 6.66275 15.9013 5.67996 15.6653 4.72607C15.4293 3.75773 15.2228 2.74603 14.8098 1.8355C14.7213 1.63316 14.5295 1.77769 14.5443 1.95112Z" fill="#CDB97D" fill-opacity="0.5"/>
<path d="M8.3047 11.2732C8.59972 11.8224 9.48476 11.9236 10.06 12.1115C10.8713 12.3716 11.6826 12.6318 12.4939 12.8775C13.2757 13.1232 14.0575 13.3544 14.8393 13.5856C15.2376 13.7013 15.6211 13.8169 16.0194 13.9181C16.3881 14.0192 16.7716 14.1782 17.1699 14.1782C17.4797 14.1782 17.3912 13.6579 17.2142 13.5423C16.8601 13.3399 16.4324 13.2677 16.0489 13.1665C15.6506 13.0653 15.2671 12.9497 14.8688 12.8341C14.087 12.6173 13.3052 12.3861 12.5234 12.1548C11.7416 11.9236 10.9598 11.6923 10.1928 11.4466C9.83878 11.331 9.48476 11.2298 9.116 11.1287C8.77673 11.0275 8.62922 10.9263 8.34896 11.1287C8.28995 11.172 8.28995 11.2443 8.3047 11.2732Z" fill="#CDB97D" fill-opacity="0.5"/>
<path d="M14.6032 2.16792C15.0605 2.89056 15.6653 3.54094 16.2111 4.20577C16.7716 4.88506 17.3616 5.54989 17.9517 6.21472C19.0727 7.47212 20.179 8.78733 21.4033 9.95801C21.7131 10.2615 21.9196 9.50997 21.7279 9.29318C20.592 7.99242 19.353 6.76393 18.1877 5.49208C17.6124 4.87061 17.0519 4.23468 16.4766 3.59875C15.9308 2.99173 15.3998 2.3269 14.795 1.79215C14.5885 1.58981 14.5295 2.0523 14.6032 2.16792Z" fill="#CDB97D" fill-opacity="0.5"/>
<path d="M17.3764 14.0482C17.8042 13.8458 18.1139 13.5134 18.4532 13.1955C18.8367 12.8341 19.2055 12.4439 19.589 12.0826C20.3118 11.3744 21.1231 10.6807 21.7426 9.88576C21.9049 9.68342 21.7426 9.06195 21.4181 9.30764C20.6216 9.94357 19.943 10.7818 19.235 11.5045C18.5565 12.2127 17.7157 12.9064 17.2436 13.7591C17.2141 13.8314 17.2141 14.1204 17.3764 14.0482Z" fill="#CDB97D" fill-opacity="0.5"/>
<path d="M8.20139 11.4178C8.76192 12.2705 9.52896 13.022 10.178 13.8025C10.8418 14.6118 11.4908 15.4501 12.1398 16.2884C12.7594 17.0977 13.3789 17.9216 13.9984 18.7309C14.2935 19.1211 14.6032 19.5258 14.913 19.916C15.1785 20.2629 15.4588 20.7688 15.8718 20.9567C16.1521 21.0867 16.1668 20.5809 16.1225 20.4364C15.9603 19.9739 15.562 19.5981 15.2523 19.2079C14.9425 18.8176 14.6475 18.4274 14.3377 18.0372C13.7034 17.1989 13.0691 16.3606 12.4201 15.5224C11.8006 14.713 11.1663 13.9181 10.5025 13.1377C9.88297 12.415 9.21919 11.5189 8.4079 10.9986C8.15714 10.8397 8.11288 11.2732 8.20139 11.4178Z" fill="#CDB97D" fill-opacity="0.5"/>
<path d="M17.1404 13.7158C16.7568 14.6986 16.6388 15.8259 16.4176 16.852C16.1668 18.0661 15.9013 19.2801 15.6505 20.4942C15.562 20.9277 16.0931 21.2457 16.1963 20.6965C16.4323 19.4825 16.6831 18.254 16.9338 17.0399C17.1404 15.9849 17.4206 14.872 17.3911 13.788C17.3764 13.658 17.2141 13.5279 17.1404 13.7158Z" fill="#CDB97D" fill-opacity="0.5"/>
<path d="M16.1226 20.8265C16.7864 20.0316 17.1994 18.9477 17.6862 18.0516C18.2024 17.0832 18.7335 16.1294 19.235 15.1466C19.7218 14.236 20.1938 13.3255 20.6363 12.4005C21.0493 11.5478 21.6246 10.6084 21.8311 9.68339C21.8606 9.53886 21.7131 9.26426 21.5656 9.4666C21.3148 9.81346 21.1821 10.2615 21.0051 10.6517C20.7838 11.1287 20.5773 11.6056 20.3413 12.0681C19.884 13.0364 19.3825 14.0048 18.8957 14.9587C18.4237 15.8837 17.9369 16.7942 17.4501 17.7047C16.9486 18.6442 16.3143 19.6125 16.0046 20.6386C15.9898 20.6965 16.0341 20.9277 16.1226 20.8265Z" fill="#CDB97D" fill-opacity="0.5"/>
<path d="M1.22164 0.351635C2.4312 1.60903 3.64076 2.92424 4.95358 4.08047C5.18959 4.28281 5.2781 3.74806 5.13059 3.58907C3.95053 2.33168 2.62296 1.1899 1.33964 0.033672C1.19214 -0.110856 1.13313 0.250465 1.22164 0.351635Z" fill="#CDB97D" fill-opacity="0.5"/>
<path d="M1.29385 7.86157C1.94288 8.19398 2.60666 8.51195 3.27045 8.82991C3.86048 9.10451 4.48001 9.52365 5.12904 9.59591C5.33555 9.62482 5.30605 9.22014 5.2028 9.13342C4.68652 8.69983 3.97848 8.48304 3.3737 8.22289C2.70992 7.93383 2.04613 7.64478 1.38235 7.38463C1.14634 7.28346 1.11684 7.77485 1.29385 7.86157Z" fill="#CDB97D" fill-opacity="0.5"/>
<path d="M1.713 15.2325C2.76031 14.6399 3.77811 14.0329 4.81066 13.4115C5.06142 13.2525 4.94342 12.5732 4.66315 12.7466C3.6306 13.3825 2.59805 14.0185 1.595 14.6833C1.38849 14.7989 1.46224 15.377 1.713 15.2325Z" fill="#CDB97D" fill-opacity="0.5"/>
<path d="M23.5541 3.36751C23.9818 2.76049 24.4686 2.21128 25.0291 1.71988C25.5602 1.24294 26.2387 0.91052 26.7402 0.419123C26.8287 0.332406 26.8435 -0.0433685 26.6517 -9.92557e-06C25.9584 0.144519 25.3094 0.737086 24.8079 1.19958C24.2326 1.74879 23.7311 2.37026 23.3328 3.04954C23.2443 3.20852 23.3918 3.59875 23.5541 3.36751Z" fill="#CDB97D" fill-opacity="0.5"/>
<path d="M22.9584 8.29594C23.6959 8.1225 24.4187 7.93462 25.1415 7.73228C25.8495 7.52994 26.6608 7.38541 27.2951 7.02409C27.4574 6.93737 27.4869 6.50378 27.2361 6.50378C26.5281 6.53269 25.7758 6.85065 25.0972 7.05299C24.3449 7.28424 23.5927 7.52994 22.8404 7.79009C22.6339 7.86235 22.6929 8.3682 22.9584 8.29594Z" fill="#CDB97D" fill-opacity="0.5"/>
<path d="M23.793 13.8458C25.4303 14.7274 27.0971 15.5368 28.7935 16.2883C28.9852 16.375 29.0147 15.9559 28.8525 15.8837C27.2152 15.0309 25.5483 14.236 23.8372 13.5134C23.675 13.4411 23.6602 13.7735 23.793 13.8458Z" fill="#CDB97D" fill-opacity="0.5"/>
</g>
<defs>
<clipPath id="clip0_351_1014">
<rect width="29" height="21" fill="white"/>
</clipPath>
</defs>
</svg>
