<svg viewBox="0 0 38 46" fill="none" xmlns="http://www.w3.org/2000/svg">
<path d="M20.0825 29.2036C17.9152 28.8866 15.565 28.9982 13.6218 30.0133C13.5641 30.0216 13.4982 30.0409 13.4241 30.0711C13.4377 30.0299 13.4541 30.0079 13.4677 29.9667C14.4185 28.9468 15.339 27.9214 16.2457 26.8686C16.925 26.0742 17.6042 25.2797 18.2697 24.4578C18.7065 24.3559 19.1532 23.9187 19.0943 23.515C19.1163 23.5314 19.1383 23.5479 19.1878 23.5506C19.0923 23.7704 19.115 23.9929 19.3465 24.1658C21.9529 26.01 25.6538 25.3315 27.4384 22.8275C27.6902 22.4675 27.5789 22.0417 27.1032 22.0119C24.513 21.8242 21.8849 21.8481 19.5047 22.8965C20.7861 21.25 22.0097 19.5431 23.1588 17.7978C23.2085 17.8692 23.3049 17.9241 23.4398 17.9734C26.5492 18.8915 29.8425 17.977 32.0291 15.6705C32.3167 15.3544 32.4441 14.7471 31.8337 14.7366C29.2054 14.6918 26.7742 15.2568 24.6037 16.5303C24.4113 16.5579 24.2107 16.5965 24.0184 16.6242C23.9799 16.6297 23.9525 16.6434 23.914 16.649C24.8222 15.2033 25.6781 13.7356 26.4788 12.2269C27.9182 11.8632 29.1651 10.5848 30.0523 9.46606C31.1477 8.09167 31.8326 6.46208 32.1653 4.70639C32.2517 4.22282 31.633 4.1546 31.331 4.30591C28.4408 5.76129 26.4033 8.28195 25.7041 11.4939C25.6824 11.6148 25.6855 11.7027 25.7352 11.7741C25.6831 11.8209 25.631 11.8676 25.601 11.9308C24.9342 13.2142 24.2151 14.4757 23.4548 15.7235C23.4133 15.6411 23.3828 15.567 23.3413 15.4846C23.6953 13.5393 23.208 11.5479 21.8311 9.91987C21.3814 9.39549 20.5337 9.97851 20.4254 10.5143C19.9326 12.9212 20.5671 15.3822 22.2362 17.2628C22.2831 17.315 22.3492 17.3644 22.4126 17.3945C21.3948 18.9639 20.3247 20.5114 19.1885 22.0094C19.4416 20.3142 18.8473 18.3971 17.826 17.0518C17.4864 16.6097 16.674 17.0306 16.5489 17.451C16.5216 17.5335 16.4944 17.6159 16.4782 17.7066C16.267 17.8743 16.1138 18.1024 16.1475 18.3332C16.1674 18.5364 16.2065 18.737 16.2538 18.9265C16.056 20.7315 16.507 22.5416 17.5786 24.0957C16.3901 25.5718 15.1657 27.004 13.8972 28.4033C14.2044 26.4058 13.7304 24.3046 12.6745 22.4537C12.3732 21.9375 11.5338 22.5095 11.3974 22.853C10.3961 25.274 10.5916 28.0238 11.9432 30.3524C11.968 30.3881 11.9819 30.4156 12.0149 30.4403C10.4393 32.0898 8.79762 33.6898 7.11721 35.2267C7.05022 34.9026 6.97501 34.5895 6.91624 34.2544C7.19314 32.2515 6.99716 30.2379 6.26778 28.2028C6.04043 27.5876 5.15388 28.0388 4.99847 28.4537C4.0881 30.9598 4.35215 33.6409 5.70114 36.019C5.75366 36.1096 5.8226 36.1782 5.91618 36.2139C5.91078 36.2441 5.89716 36.2853 5.90278 36.3238C4.90491 37.2228 3.885 38.1054 2.85126 38.9605C2.56337 39.208 2.90787 39.4825 3.1629 39.279C4.27921 38.4513 5.36244 37.5988 6.4098 36.7025C6.42666 36.8179 6.48198 36.9277 6.59501 37.0293C8.76444 38.9068 11.8645 38.6188 13.9046 36.9223C14.2556 36.6363 14.3254 36.1061 13.8629 35.8976C11.8478 35.009 9.54365 34.898 7.55312 35.7237L7.54491 35.7346C9.2666 34.2114 10.9276 32.6086 12.5224 30.9564C12.52 31.0745 12.5863 31.1926 12.7653 31.2749C14.7311 32.2295 16.9056 32.1922 18.7254 31.2733C18.9149 31.2264 19.1127 31.1686 19.2994 31.1025C19.4202 31.0557 19.6368 30.8578 19.6995 30.6819C19.9216 30.5224 20.1218 30.3465 20.3219 30.1705C20.6755 29.8351 20.6738 29.2856 20.0825 29.2036Z" fill="#85A094" fill-opacity="0.14"/>
</svg>
