<svg width="15" height="23" viewBox="0 0 15 23" fill="none" xmlns="http://www.w3.org/2000/svg">
<path d="M6.5 0L5.64706 7.78693C5.58823 8.4183 5.17647 8.95948 4.61765 9.2L0 11.1843L4.35294 12.3569C5.20588 12.5974 5.85294 13.319 6 14.2209L7.41176 23L8.44118 13.4993C8.52941 12.7477 9.02941 12.1163 9.73529 11.9059L15 10.2222L9.32353 8.59869C8.70588 8.4183 8.2647 7.93725 8.11764 7.30588L6.5 0ZM9.02941 9.56078L11.4706 10.2523L9.41177 10.9137C8.32353 11.2444 7.55882 12.2366 7.41176 13.3791L7.17647 15.5438L6.94117 14.0405C6.73529 12.7477 5.79412 11.6954 4.55882 11.3647L3.02941 10.9438L4.94117 10.132C5.85294 9.74117 6.47059 8.86928 6.58823 7.87712L6.79412 6.0732L7.11765 7.48627C7.35294 8.5085 8.08823 9.29019 9.02941 9.56078Z" fill="#F3CB29"/>
</svg>
