<svg viewBox="0 0 16 17" fill="none" xmlns="http://www.w3.org/2000/svg">
<path d="M9.52586 9.2357C9.67674 8.38727 10.8272 8.29505 11.5061 8.53482C12.732 8.95904 12.5434 10.287 11.7702 11.0801C10.186 12.6848 7.80961 11.8548 6.69688 10.1948C5.58415 8.51638 5.84819 6.37684 7.60215 5.25174C9.18638 4.23731 11.4307 4.23731 13.0527 5.15952C14.9764 6.26618 15.7119 8.59015 15.3536 10.6559C14.9764 12.8877 13.3921 14.6583 11.2987 15.5252C9.3184 16.3367 7.0175 16.3736 5.03721 15.5252C3.00035 14.6214 1.51042 12.777 0.906901 10.6928C0.209086 8.2766 0.756022 5.71285 2.43455 3.79465C4.1508 1.82111 6.6403 0.769791 9.26182 0.603793C9.52586 0.585349 9.507 0.0504655 9.24296 0.0320213C6.52714 -0.226198 3.73588 1.10179 2.00077 3.13066C0.284525 5.15952 -0.35671 7.79705 0.190226 10.3608C0.718302 12.8508 2.32139 15.1563 4.69773 16.263C7.0175 17.3512 9.8842 17.2036 12.1285 16.0232C14.4671 14.7874 15.9005 12.445 15.9948 9.84436C16.0891 7.44661 14.9009 4.95664 12.5246 4.03442C10.4689 3.24132 7.79075 3.62865 6.3574 5.38085C4.90519 7.16995 5.32011 9.77059 6.8289 11.3752C7.54557 12.1315 8.50743 12.6663 9.56358 12.7032C10.8272 12.7401 12.0342 12.0023 12.6 10.8957C13.0527 9.99192 13.0338 8.71926 12.1285 8.09216C11.4496 7.61261 10.3557 7.53883 9.67674 8.05527C9.33726 8.31349 9.16752 8.66393 9.11094 9.06971C9.09208 9.4017 9.45042 9.64148 9.52586 9.2357Z" fill="#F3DF4A"/>
</svg>
