<svg viewBox="0 0 56 64" fill="none" xmlns="http://www.w3.org/2000/svg">
<path d="M53.4737 5.59962C48.4352 11.0487 43.4068 16.5096 38.7257 22.2606C34.0915 27.9719 29.7947 33.9616 26.2981 40.4422C24.331 44.0902 22.637 47.8696 21.2927 51.7758C21.0205 52.572 19.8012 52.1343 20.0618 51.348C22.4898 44.322 26.0051 37.7448 30.1508 31.6008C34.3352 25.3837 39.1183 19.5864 44.0806 14.0001C46.893 10.8248 49.7652 7.71979 52.6373 4.61479C53.2007 3.99508 54.0371 4.97991 53.4737 5.59962Z" fill="#BD69D0" fill-opacity="0.3"/>
<path d="M17.2136 62.3227C15.6438 58.2881 16.9001 53.1853 20.5502 50.7112C20.6891 50.6134 21.0167 50.4764 21.0939 50.7337C22.4299 54.8257 20.141 58.8075 17.8155 62.0335C17.5335 62.4143 16.9605 62.2148 17.2929 61.7508C19.4724 58.7094 21.5866 54.997 20.3513 51.1424C20.5013 51.1764 20.6531 51.1888 20.8031 51.2229C19.0944 52.3712 17.9714 54.233 17.5152 56.2145C17.0508 58.1627 17.2819 60.1458 17.625 62.0944C17.6425 62.2813 17.3043 62.5483 17.2136 62.3227Z" fill="#BD69D0" fill-opacity="0.3"/>
<path d="M23.9658 42.9472C21.7993 45.6951 17.9096 46.9602 14.5029 46.5842C14.3195 46.5584 14.3254 46.3515 14.4011 46.2267C15.4789 44.3831 17.0964 42.7472 19.1582 42.086C19.9986 41.8162 20.9017 41.7153 21.7888 41.8094C22.5576 41.883 23.8144 42.1274 24.2934 42.8103C24.4392 43.0295 24.084 43.3715 23.859 43.3205C23.4957 43.2254 23.1864 43.0037 22.8601 42.8571C22.4705 42.6834 22.0639 42.5848 21.6437 42.5178C20.8568 42.3991 20.0558 42.4538 19.2956 42.6756C17.4079 43.2091 15.9681 44.674 14.9929 46.3296C14.9583 46.2176 14.9138 46.094 14.8911 45.9721C18.2861 46.358 21.3185 45.0339 23.7731 42.7678C23.9056 42.615 24.1235 42.7528 23.9658 42.9472Z" fill="#BD69D0" fill-opacity="0.3"/>
<path d="M24.9426 43.147C24.4913 47.3442 25.9496 51.6753 29.2421 54.3881C29.0599 54.4824 28.8875 54.5884 28.7052 54.6826C29.6957 50.4312 27.0342 46.5367 24.1677 43.684C23.9252 43.446 24.5349 42.9282 24.7873 43.178C27.7381 46.2013 30.4359 50.186 29.3112 54.612C29.2501 54.8253 28.9272 55.039 28.7345 54.8596C25.4841 52.0302 23.7066 47.4657 24.6221 43.1973C24.6408 43.1006 24.9685 42.9636 24.9426 43.147Z" fill="#BD69D0" fill-opacity="0.3"/>
<path d="M29.2652 33.3619C26.5948 36.1342 21.9975 36.7087 18.5203 35.323C18.3721 35.2673 18.4313 35.0757 18.4718 34.9808C19.4402 33.0082 21.7212 32.2012 23.7792 31.9871C24.7925 31.8733 25.8267 31.903 26.8287 32.0611C27.3572 32.137 27.8822 32.2562 28.4036 32.4187C28.8618 32.5543 29.3868 32.6735 29.7523 33.0088C29.9649 33.2117 29.5048 33.5015 29.3313 33.4874C28.8778 33.4286 28.4584 33.2198 28.0219 33.086C27.5854 32.9522 27.1471 32.84 26.7053 32.7713C25.8451 32.6139 24.9545 32.5631 24.0884 32.6125C22.2026 32.7206 19.9762 33.2593 19.0736 35.0953C19.0607 34.9852 19.0379 34.8633 19.0251 34.7531C20.6737 35.4113 22.4697 35.6014 24.216 35.3291C26.0292 35.0405 27.5777 34.2501 29.049 33.2025C29.2014 33.073 29.4329 33.1792 29.2652 33.3619Z" fill="#BD69D0" fill-opacity="0.3"/>
<path d="M30.1141 33.7912C29.7148 35.7447 30.2371 37.9043 31.0179 39.703C31.8234 41.602 33.0837 43.2761 34.6324 44.6246C34.4267 44.7388 34.2209 44.853 34.0269 44.9572C34.3718 42.8683 34.1314 40.7317 33.343 38.7577C32.9537 37.7766 32.4291 36.8499 31.7773 36.0111C31.1272 35.1506 30.3042 34.5379 29.5686 33.7904C29.346 33.5758 29.8601 33.1594 30.0897 33.2873C30.9984 33.7869 31.775 34.7014 32.3951 35.5268C33.0452 36.3873 33.5798 37.3257 33.979 38.3185C34.7955 40.3493 35.0605 42.5862 34.6886 44.7383C34.6475 44.975 34.3174 45.2755 34.0831 45.0709C32.453 43.6503 31.1699 41.8543 30.3633 39.8352C29.6194 37.9849 29.0608 35.735 29.7854 33.8081C29.8077 33.668 30.1687 33.5229 30.1141 33.7912Z" fill="#BD69D0" fill-opacity="0.3"/>
<path d="M37.1116 22.7837C35.7204 24.1871 33.5548 24.9162 31.6187 25.1076C29.5389 25.3199 27.4219 24.9181 25.5812 23.9387C25.4031 23.8478 25.5093 23.6164 25.5949 23.5033C26.7482 21.9387 28.5881 20.9211 30.5325 20.7632C31.5322 20.681 32.5107 20.859 33.4669 21.177C34.0399 21.3765 34.5994 21.6077 35.1589 21.8388C35.6868 22.0564 36.3817 22.2331 36.7852 22.6371C36.9978 22.8399 36.5377 23.1298 36.3643 23.1156C35.8439 23.0732 35.3647 22.7941 34.8902 22.5917C34.4156 22.3893 33.9411 22.1869 33.4431 22.0044C32.5437 21.6583 31.594 21.3954 30.6312 21.426C28.8375 21.4761 27.1518 22.3426 26.0759 23.7608C26.0765 23.619 26.0889 23.4672 26.0895 23.3254C27.7803 24.2708 29.7103 24.6901 31.633 24.5304C32.5659 24.4646 33.4877 24.2669 34.3651 23.9456C35.2876 23.6062 36.1041 23.0944 36.9423 22.5844C37.1129 22.5001 37.2423 22.6525 37.1116 22.7837Z" fill="#BD69D0" fill-opacity="0.3"/>
<path d="M38.0415 23.0232C36.7393 27.2165 37.8118 31.9963 40.9759 35.0806C40.7719 35.1731 40.5463 35.2638 40.3423 35.3563C40.7733 33.4163 40.8527 31.3713 40.3561 29.432C39.784 27.2138 38.4061 25.3773 37.0228 23.6058C36.7856 23.3028 37.462 22.7687 37.6893 23.06C39.1188 24.9335 40.5548 26.862 41.1063 29.1986C41.5859 31.2128 41.4713 33.2877 40.9916 35.2892C40.9405 35.5142 40.549 35.766 40.358 35.5649C37.1278 32.3552 35.9599 27.273 37.701 23.05C37.7667 22.9135 38.1142 22.8 38.0415 23.0232Z" fill="#BD69D0" fill-opacity="0.3"/>
<path d="M44.911 13.7185C41.6178 16.2327 36.7541 16.3272 33.1424 14.4504C32.9742 14.3712 33.0705 14.128 33.1543 14.0367C34.453 12.4293 36.5165 11.7464 38.5516 11.8141C40.8152 11.8896 42.9413 12.8486 44.9608 13.7772C45.3188 13.9373 44.7454 14.5453 44.4191 14.3987C42.631 13.5763 40.7897 12.7387 38.8103 12.5227C36.9394 12.3156 34.87 12.8016 33.6353 14.2941C33.6359 14.1523 33.6465 14.0222 33.6472 13.8804C37.2138 15.7754 41.3346 15.4239 44.8168 13.5363C44.9656 13.4502 45.0382 13.6307 44.911 13.7185Z" fill="#BD69D0" fill-opacity="0.3"/>
<path d="M45.2518 14.3575C45.0318 16.1183 44.8236 17.8691 44.9957 19.64C45.177 21.5645 45.7756 23.4575 46.8443 25.0723C47.0879 25.4305 47.3532 25.7904 47.632 26.1187C47.7913 26.3063 47.9723 26.4956 48.1433 26.6732C48.2148 26.7336 48.2745 26.804 48.346 26.8644C48.4274 26.9365 48.5088 27.0086 48.5902 27.0807C48.5334 27.1088 48.4666 27.1252 48.4214 27.1433C48.662 26.3336 48.7047 25.4095 48.7285 24.5821C48.7796 22.884 48.5156 21.171 47.9924 19.557C47.3885 17.729 46.4253 16.0245 45.1573 14.5789C44.9084 14.2858 45.5749 13.74 45.8239 14.0331C48.3464 16.956 49.6548 20.8492 49.4287 24.6938C49.4033 25.1391 49.3562 25.5827 49.2874 26.0245C49.2322 26.4347 49.1915 26.9333 49.0079 27.3112C48.5363 28.2767 47.7047 27.3686 47.273 26.9078C45.8287 25.3496 44.9237 23.3334 44.5361 21.2612C44.1293 19.0237 44.2253 16.6418 44.8726 14.4575C44.9283 14.3093 45.2794 14.1524 45.2518 14.3575Z" fill="#BD69D0" fill-opacity="0.3"/>
</svg>
