<svg width="23" height="25" viewBox="0 0 23 25" fill="none" xmlns="http://www.w3.org/2000/svg">
<path d="M13.533 13.3652C13.7473 12.1374 15.3817 12.0039 16.3463 12.3509C18.0878 12.9648 17.8199 14.8866 16.7214 16.0343C14.4707 18.3564 11.0948 17.1553 9.51395 14.7531C7.93314 12.3242 8.30825 9.22806 10.8 7.59991C13.0507 6.1319 16.2391 6.1319 18.5433 7.46645C21.2762 9.06791 22.3212 12.431 21.8121 15.4204C21.2762 18.65 19.0256 21.2123 16.0515 22.4668C13.2382 23.6412 9.96944 23.6946 7.15614 22.4668C4.26245 21.159 2.14578 18.4899 1.28839 15.4738C0.297039 11.9772 1.07405 8.26718 3.45865 5.49131C5.89685 2.63537 9.43357 1.11398 13.1578 0.873761C13.533 0.84707 13.5062 0.0730297 13.1311 0.0463386C9.27281 -0.327336 5.3074 1.59442 2.84241 4.53044C0.404212 7.46645 -0.506762 11.2833 0.270245 14.9933C1.02046 18.5966 3.29789 21.933 6.67386 23.5345C9.96944 25.1092 14.042 24.8957 17.2304 23.1875C20.5528 21.3992 22.5891 18.0094 22.7231 14.246C22.857 10.7761 21.1691 7.17285 17.7931 5.8383C14.8726 4.69058 11.068 5.25109 9.03167 7.78674C6.96858 10.3758 7.55804 14.1392 9.70151 16.4613C10.7197 17.5557 12.0861 18.3297 13.5865 18.3831C15.3817 18.4365 17.0965 17.3688 17.9003 15.7674C18.5433 14.4595 18.5165 12.6178 17.2304 11.7103C16.2659 11.0164 14.7119 10.9096 13.7473 11.6569C13.265 12.0306 13.0239 12.5377 12.9435 13.125C12.9167 13.6054 13.4258 13.9524 13.533 13.3652Z" fill="#C6AAAF"/>
</svg>
