<svg width="128" height="128" viewBox="0 0 128 128" fill="none" xmlns="http://www.w3.org/2000/svg">
<circle cx="64" cy="64" r="64" fill="#972472"/>
<path d="M64.5723 96.0512C84.6382 96.0512 100.905 94.3611 100.905 92.2764C100.905 90.1916 84.6382 88.5016 64.5723 88.5016C44.5063 88.5016 28.2397 90.1916 28.2397 92.2764C28.2397 94.3611 44.5063 96.0512 64.5723 96.0512Z" fill="#F2D4C9"/>
<path d="M15.3183 83.7104C22.2742 83.7104 27.9131 82.1504 27.9131 80.226C27.9131 78.3016 22.2742 76.7415 15.3183 76.7415C8.36234 76.7415 2.72345 78.3016 2.72345 80.226C2.72345 82.1504 8.36234 83.7104 15.3183 83.7104Z" fill="#F2D4C9"/>
<path d="M112.81 83.7104C119.766 83.7104 125.404 82.1504 125.404 80.226C125.404 78.3016 119.766 76.7415 112.81 76.7415C105.854 76.7415 100.215 78.3016 100.215 80.226C100.215 82.1504 105.854 83.7104 112.81 83.7104Z" fill="#F2D4C9"/>
<path d="M68.2019 61.6786C68.2019 61.6786 66.1331 62.586 65.4434 62.9852C64.7175 63.3845 65.4434 64.546 66.2419 65.163C67.0405 65.78 68.6738 63.3482 68.6738 63.3482L68.2019 61.6786Z" fill="#FCBBA7"/>
<path d="M48.4928 40.8445C48.4928 40.8445 46.0246 40.4089 45.0446 42.4052C44.0646 44.4015 40.2535 45.0186 40.5439 47.4504C40.7979 49.8823 38.9831 49.1201 38.2935 50.7897C37.6039 52.4956 38.8742 55.1089 44.0646 53.6934C49.255 52.2778 51.8683 50.7897 52.195 47.7408C52.5216 44.6919 53.2839 41.0986 48.4928 40.8445Z" fill="white"/>
<path d="M84.6077 44.8734C84.6077 44.8734 79.0544 45.3453 78.3285 49.483C77.8566 52.2779 78.0018 59.1379 78.1833 63.3119C78.2559 65.2357 79.8166 66.7238 81.7403 66.7238H87.4388C89.4351 66.7238 91.0322 65.0905 90.9959 63.0942C90.887 58.5208 90.7055 50.9349 90.524 48.8297C90.1974 45.7445 84.6077 44.8734 84.6077 44.8734Z" fill="#FCBBA7"/>
<path d="M78.1835 63.3119L78.3287 78.4112C78.3287 79.3912 79.1272 80.226 80.1435 80.226C80.9783 80.226 81.7042 79.6453 81.8857 78.8467L84.9346 66.6149L78.1835 63.3119Z" fill="#FCBBA7"/>
<path d="M78.3287 79.3912L78.982 92.4215H80.5791L81.668 79.4638C81.7405 78.4838 80.9783 77.649 79.9983 77.649C79.0546 77.649 78.2924 78.4475 78.3287 79.3912Z" fill="#FCBBA7"/>
<path d="M84.1355 64.7638L83.6999 77.3586C83.6636 78.3386 84.4258 79.2097 85.4421 79.246C86.277 79.2823 87.0029 78.7379 87.257 77.9393L90.9955 63.929L84.1355 64.7638Z" fill="#FCBBA7"/>
<path d="M84.0633 79.5001L92.0847 89.7719L93.3914 88.8645L86.8218 77.649C86.3136 76.8142 85.2247 76.5601 84.4262 77.1045C83.6277 77.649 83.4825 78.7379 84.0633 79.5001Z" fill="#FCBBA7"/>
<path d="M80.3247 91.4778C80.3247 91.4778 77.4573 91.6956 75.4973 92.7845C74.8077 93.4741 76.2595 93.946 77.8203 93.4741C79.4173 93.0023 80.4699 93.5467 80.6514 92.4941C80.7966 91.8771 80.3247 91.4778 80.3247 91.4778Z" fill="#FCBBA7"/>
<path d="M42.6852 87.4127C42.6852 87.4127 44.3548 89.409 44.863 91.369C44.863 92.2401 43.6289 91.623 42.9393 90.2801C42.2496 88.9371 41.2333 88.6104 41.7778 87.8119C42.1407 87.3764 42.6852 87.4127 42.6852 87.4127Z" fill="#EDA370"/>
<path d="M84.8982 47.3778C85.1522 45.9986 86.6404 45.2364 87.9108 45.8171C89.2174 46.4341 90.9234 47.5593 92.8834 49.6645C97.2026 54.4193 97.5656 54.6734 95.3878 55.8712C94.4804 56.3793 88.1648 51.7697 85.5515 49.3015C85.0434 48.8297 84.7893 48.1038 84.8982 47.3778Z" fill="#FCBBA7"/>
<path d="M99.308 64.5097L100.252 64.1104C100.252 64.1104 97.7109 52.0963 94.9524 53.2941C92.1939 54.4919 99.308 64.5097 99.308 64.5097Z" fill="#FCBBA7"/>
<path d="M81.0869 46.7245C82.5025 46.7608 83.4462 48.14 83.0469 49.483C82.6114 50.8623 81.7403 52.7134 79.8892 54.9275C75.7514 59.8638 75.5699 60.2267 74.0817 58.2304C73.4647 57.3956 77.1669 50.5356 79.2721 47.5956C79.7077 47.0512 80.361 46.7245 81.0869 46.7245Z" fill="#FCBBA7"/>
<path d="M65.6612 63.6023L66.6049 64.2193C66.6049 64.2193 78.1834 60.0815 76.5864 57.5045C75.0256 54.9275 65.6612 63.6023 65.6612 63.6023Z" fill="#FCBBA7"/>
<path d="M47.1503 48.9386C47.1503 48.9386 52.268 49.3741 52.9214 53.149C53.5747 56.9238 52.9214 68.9741 52.9214 68.9741H41.2703C41.2703 68.9741 41.488 55.4356 41.7784 52.5682C42.0325 49.7371 47.1503 48.9386 47.1503 48.9386Z" fill="#EDA370"/>
<path d="M52.8849 67.8127L53.1389 79.9719C53.1389 80.8793 52.5945 81.6053 51.6871 81.6053C50.9249 81.6053 49.7997 80.843 49.6182 80.0808L46.8234 68.8653L52.8849 67.8127Z" fill="#EDA370"/>
<path d="M52.5943 81.3512L43.0847 89.046L42.0684 87.9934L49.9084 79.0282C50.4891 78.3386 51.5417 78.3023 52.1587 78.9556C52.7758 79.5727 53.2839 80.7704 52.5943 81.3512Z" fill="#EDA370"/>
<path d="M47.8036 67.9578L48.3117 79.7178C48.4569 80.6252 47.8399 81.4601 46.9325 81.6053C46.1703 81.7141 45.4443 81.3149 45.154 80.6252L41.2703 68.9741L47.8036 67.9578Z" fill="#EDA370"/>
<path d="M48.2748 79.3912L49.763 92.4578L48.3111 92.6756L45.0081 80.1534C44.7904 79.2823 45.48 78.2297 46.3874 78.0845C47.2222 77.9756 48.1659 78.5201 48.2748 79.3912Z" fill="#EDA370"/>
<path d="M44.4275 50.3541C45.6979 50.5719 46.3875 51.9512 45.8431 53.1127C45.2986 54.3104 44.246 55.8712 42.286 57.6497C37.8942 61.606 37.6764 61.8964 36.5875 59.9001C36.1157 59.0652 40.3986 53.2941 42.649 50.8986C43.1208 50.4267 43.7742 50.2089 44.4275 50.3541Z" fill="#EDA370"/>
<path d="M28.6752 63.4934L29.0381 64.3645C29.0381 64.3645 40.0722 62.0778 38.9833 59.5371C37.8944 56.9964 28.6752 63.4934 28.6752 63.4934Z" fill="#EDA370"/>
<path d="M49.9447 50.6445C48.6744 50.9712 48.0936 52.3868 48.7107 53.5119C49.364 54.6734 50.4892 56.1616 52.5581 57.7949C57.204 61.4245 57.4581 61.7149 58.4018 59.646C58.801 58.7749 54.1551 53.3305 51.7232 51.1164C51.2514 50.6445 50.5981 50.4993 49.9447 50.6445Z" fill="#EDA370"/>
<path d="M66.3506 62.5134L64.8987 63.6386C64.8987 63.6386 55.0987 62.0415 56.0424 59.4645C56.9498 56.8512 66.3506 62.5134 66.3506 62.5134Z" fill="#EDA370"/>
<path d="M85.1753 42.4522L81.3373 43.7925L82.8691 48.1787L86.707 46.8384L85.1753 42.4522Z" fill="#FCBBA7"/>
<path d="M84.862 43.2401C84.862 43.2401 85.0798 45.2364 81.8857 45.8534L81.5953 44.8008L84.862 43.2401Z" fill="#EA9581"/>
<path d="M85.1884 40.6993C85.1884 42.1149 85.1521 44.0023 83.4098 44.6919C82.7202 44.9823 81.958 44.946 81.3047 44.6919C79.5624 43.966 79.5624 42.006 79.5624 40.5904C79.5624 38.7756 81.0143 37.3238 82.7202 37.5415C84.1721 37.723 85.1884 39.1386 85.1884 40.6993Z" fill="#FCBBA7"/>
<path d="M84.1723 41.6067C83.8456 42.2238 83.9545 42.9134 84.3901 43.1312C84.8256 43.3852 85.479 43.0586 85.8056 42.4415C86.1323 41.8245 86.0234 41.1349 85.5879 40.9171C85.1523 40.6993 84.499 40.9897 84.1723 41.6067Z" fill="#FCBBA7"/>
<path d="M45.3811 51.1007L48.9623 51.8833L49.8535 47.8057L46.2723 47.023L45.3811 51.1007Z" fill="#EDA370"/>
<path d="M46.351 47.4504C46.351 47.4504 46.3872 49.5193 49.3998 49.8823L49.5813 48.8297L46.351 47.4504Z" fill="#CE804A"/>
<path d="M45.8433 45.0186C45.9522 46.4341 46.1699 48.2852 47.9484 48.866C48.6381 49.0838 49.4003 49.0112 50.0536 48.6845C51.7233 47.8134 51.5418 45.8534 51.4329 44.4378C51.2877 42.623 49.727 41.3163 48.021 41.6793C46.6055 41.9697 45.6981 43.4578 45.8433 45.0186Z" fill="#EDA370"/>
<path d="M46.9322 45.8534C47.2952 46.4342 47.2589 47.1238 46.8596 47.4141C46.4604 47.7045 45.7708 47.4504 45.4078 46.8334C45.0448 46.2527 45.0811 45.563 45.4804 45.2727C45.9159 45.0186 46.5693 45.2727 46.9322 45.8534Z" fill="#EDA370"/>
<path d="M78.0381 61.6423C78.0381 61.6423 76.6951 75.0356 78.2196 89.046C81.8855 89.046 82.43 89.046 82.43 89.046C82.43 89.046 81.704 79.5727 83.7366 72.3134C82.9381 79.4638 82.4663 79.7178 89.5803 87.4127C91.8307 86.0697 92.847 85.0171 92.847 85.0171L88.6003 76.7778C88.6003 76.7778 92.23 67.2682 91.0322 61.6423C84.7529 61.6423 78.0381 61.6423 78.0381 61.6423Z" fill="#0F63E7"/>
<path d="M92.3391 86.2512L87.3665 76.8141C87.3665 76.8141 90.6695 68.7201 89.8347 61.6786" stroke="#7CBCF4" stroke-width="0.5043" stroke-miterlimit="10" stroke-linecap="round" stroke-linejoin="round"/>
<path d="M81.2683 89.5904C81.2683 89.5904 81.1594 83.0934 81.6676 78.0482C82.1757 73.003 82.938 71.5512 82.938 71.5512L83.7002 72.3134L83.9906 63.3119H82.8654L82.9743 71.5875" stroke="#7CBCF4" stroke-width="0.5043" stroke-miterlimit="10" stroke-linecap="round" stroke-linejoin="round"/>
<path d="M45.4802 45.2727C45.4802 45.2727 48.1298 45.8171 49.9084 42.2238C50.7069 44.2201 51.9047 45.2727 51.9047 45.2727C51.9047 45.2727 52.3402 41.8971 49.1824 41.1712C47.2224 40.8445 45.0084 42.2238 45.4802 45.2727Z" fill="white"/>
<path d="M84.4989 41.2075C84.4989 41.2075 83.41 40.3727 83.41 38.5941C82.067 38.4852 80.6152 40.1549 79.4537 39.9008C78.2922 39.6467 78.5826 37.6141 81.3048 37.2875C84.027 36.9608 85.1885 36.6704 85.5515 38.4852C85.9507 40.3001 85.5515 40.9171 85.5515 40.9171C85.5515 40.9171 84.8255 40.7719 84.4989 41.2075Z" fill="white"/>
<path d="M42.7583 87.1949C42.7583 87.1949 42.2864 88.066 43.0849 89.409C43.7383 90.4616 43.7383 90.4616 43.7383 90.4616L44.4642 90.2075C44.4642 90.2075 45.4805 91.7319 44.5731 92.0223C43.6657 92.3127 42.1412 89.4816 41.6694 88.7556C41.1975 88.0297 41.9234 87.449 42.7583 87.1949Z" fill="#452A32"/>
<path d="M48.3841 92.4942C48.3841 92.4942 50.8885 91.7319 52.8848 92.0223C53.6833 92.3853 52.6307 93.2564 51.1426 93.3653C49.6545 93.4742 48.9285 94.2727 48.4204 93.4742C48.13 93.0023 48.3841 92.4942 48.3841 92.4942Z" fill="#EDA370"/>
<path d="M48.2026 92.3852C48.2026 92.3852 48.8196 93.1474 50.3441 92.9297C51.5418 92.7482 51.5418 92.7482 51.5418 92.7482L51.5781 91.986C51.5781 91.986 53.3929 91.6593 53.2841 92.603C53.2115 93.5467 49.9811 93.8734 49.1463 93.9823C48.3841 94.1275 48.0937 93.2563 48.2026 92.3852Z" fill="#452A32"/>
<path d="M78.3283 91.7682L78.655 92.5304C78.655 92.5304 79.7802 92.6756 80.6876 92.1312C80.6876 92.8934 80.8691 93.2201 78.9454 93.4015C77.0216 93.583 75.6424 94.1275 75.0617 93.583C74.5172 93.0386 75.8239 92.1312 78.3283 91.7682Z" fill="#452A32"/>
<path d="M92.9918 88.6467C92.9918 88.6467 90.7777 90.4979 89.834 92.4942C89.6888 93.4379 91.1044 93.0023 92.1207 91.6956C93.137 90.389 94.2985 90.2075 93.8629 89.2638C93.6088 88.683 92.9918 88.6467 92.9918 88.6467Z" fill="#FCBBA7"/>
<path d="M91.5767 90.0623L92.3026 90.4978C92.3026 90.4978 93.2826 89.9534 93.7182 89.0097C94.1538 89.6267 94.5167 89.7719 93.0649 91.0423C91.613 92.3127 90.8145 93.583 90.016 93.4378C89.2175 93.2927 89.6893 91.8045 91.5767 90.0623Z" fill="#452A32"/>
<path d="M28.6388 66.6149C28.4936 66.5423 29.2196 65.0178 29.2196 65.0178C29.2196 65.0178 28.1307 66.6512 27.9855 66.5786C27.8403 66.4697 28.8929 64.7275 28.8929 64.7275C28.8929 64.7275 27.441 66.3245 27.2959 66.1793C27.1507 66.0341 28.4936 64.4371 28.4936 64.4371C28.4936 64.4371 26.9692 65.6712 26.824 65.526C26.6788 65.3808 28.7477 63.5297 28.7477 63.5297C28.7477 63.5297 27.6225 63.929 27.5136 63.7838C27.4047 63.6386 28.2759 63.1304 28.9292 62.8764C29.5825 62.6223 30.1633 62.6223 30.1633 62.6223L30.8166 63.5297C30.8166 63.4934 28.784 66.7238 28.6388 66.6149Z" fill="#EDA370"/>
<path d="M101.921 66.1067C101.776 66.2156 100.687 64.9452 100.687 64.9452C100.687 64.9452 101.776 66.5786 101.595 66.6875C101.449 66.7963 100.252 65.1267 100.252 65.1267C100.252 65.1267 101.123 67.0867 100.941 67.1593C100.76 67.2319 99.8161 65.3808 99.8161 65.3808C99.8161 65.3808 100.324 67.2682 100.143 67.3408C99.9613 67.4134 99.0902 64.7638 99.0902 64.7638C99.0902 64.7638 99.0176 65.9252 98.8361 65.9978C98.6546 66.0704 98.5457 65.0541 98.582 64.3645C98.6183 63.6749 98.8361 63.1304 98.8361 63.1304L99.925 62.8763C99.925 62.8401 102.066 65.9978 101.921 66.1067Z" fill="#FCBBA7"/>
<path d="M68.2746 62.223C68.2746 62.223 67.2583 62.6949 66.6049 62.5497C65.9516 62.4045 65.9879 61.969 66.3509 61.8964C66.7138 61.8238 68.5286 61.4608 68.5286 61.4608" fill="#FCBBA7"/>
<path d="M65.1168 64.6912C65.1168 64.6912 65.6975 65.5623 66.242 65.2719C66.8227 64.9815 67.1131 64.4008 66.9316 64.2193C66.7864 64.0378 66.3146 63.3845 65.6612 63.3845C65.0079 63.3482 64.3909 63.5297 64.3909 63.5297C64.3909 63.5297 64.4272 64.0015 65.1168 64.6912Z" fill="#FCBBA7"/>
<path d="M67.0767 62.1141C66.7137 62.0415 64.8989 61.6786 64.8989 61.6786L65.153 62.4408C65.153 62.4408 66.0604 62.8038 66.7137 62.6586C67.4034 62.4771 67.4397 62.1867 67.0767 62.1141Z" fill="#EDA370"/>
<path d="M67.9477 64.546C67.9477 64.546 67.3669 65.4171 66.8225 65.1267C66.278 64.8364 65.9514 64.2556 66.1329 64.0741C66.278 63.8926 66.7499 63.2393 67.4032 63.2393C68.0566 63.2393 68.6736 63.3845 68.6736 63.3845C68.6736 63.3845 68.601 63.8564 67.9477 64.546Z" fill="#EDA370"/>
<path d="M30.0904 44.8734C30.0904 44.8734 31.8689 44.1112 32.4496 43.5304C33.0304 42.9497 32.0141 42.0423 31.0704 41.643C30.1266 41.2438 29.2192 44.0749 29.2192 44.0749L30.0904 44.8734Z" fill="#FCBBA7"/>
<path d="M19.129 37.1423C19.129 37.1423 17.3141 38.9571 17.4593 40.2638C17.6045 41.5704 18.0764 43.3852 19.383 45.7082C22.2867 50.8623 22.3956 51.2252 24.0653 49.6645C24.7549 49.0112 22.686 41.8245 21.343 38.8119C20.7986 37.6504 19.7823 37.2512 19.129 37.1423Z" fill="#E46341"/>
<path d="M30.708 43.603L31.3613 43.966C31.3613 43.966 23.3035 52.3867 21.7791 50.1C20.2546 47.8134 30.708 43.603 30.708 43.603Z" fill="#FCBBA7"/>
<path d="M8.74832 78.7741C8.74832 78.7741 11.3616 78.9556 13.1039 79.9356C13.7209 80.5527 12.4142 80.9882 10.9987 80.5527C9.54684 80.1171 8.60313 80.6253 8.42165 79.6815C8.31276 79.1008 8.74832 78.7741 8.74832 78.7741Z" fill="#FCBBA7"/>
<path d="M19.3108 78.7741C19.3108 78.7741 21.9241 78.9556 23.6663 79.9356C24.2834 80.5527 22.9767 80.9882 21.5611 80.5527C20.1093 80.1171 19.1656 80.6253 18.9841 79.6815C18.9115 79.1008 19.3108 78.7741 19.3108 78.7741Z" fill="#FCBBA7"/>
<path d="M15.2813 55.726L13.3576 67.2682C13.1398 68.1756 12.2687 68.72 11.3613 68.5023C10.6354 68.3208 10.0909 67.6674 10.0909 66.9052L9.69165 55.6897H15.2813V55.726Z" fill="#FCBBA7"/>
<path d="M13.1405 68.1393L9.91013 79.6452L8.49457 79.3186L10.1642 67.5223C10.2731 66.6149 11.1442 66.0341 12.0153 66.2519C12.8864 66.4334 13.3946 67.3045 13.1405 68.1393Z" fill="#FCBBA7"/>
<path d="M21.3429 54.8912V66.7963C21.3429 67.7038 20.617 68.466 19.6733 68.466C18.9111 68.466 18.2577 67.9578 18.0763 67.1956L15.2814 55.98L21.3429 54.8912Z" fill="#FCBBA7"/>
<path d="M15.5717 36.0171C15.5717 36.0171 20.6894 36.4527 21.3428 40.2275C21.9961 44.0023 21.3428 56.0527 21.3428 56.0527H9.69165C9.69165 56.0527 9.90943 42.5141 10.1998 39.6467C10.4902 36.8156 15.5717 36.0171 15.5717 36.0171Z" fill="#E46341"/>
<path d="M21.3429 67.6675L20.7621 79.6089H19.3103L18.294 67.7038C18.2214 66.7963 18.911 66.0341 19.8184 66.0341C20.6896 66.0704 21.3792 66.7964 21.3429 67.6675Z" fill="#FCBBA7"/>
<path d="M19.3104 39.6467C19.3104 39.6467 20.5808 41.6793 20.7986 44.5104" stroke="#C4432A" stroke-width="0.5043" stroke-miterlimit="10" stroke-linecap="round" stroke-linejoin="round"/>
<path d="M21.6334 52.0963L9.32897 52.6045C9.32897 52.6045 9.40156 59.9364 9.0023 67.4497C7.55045 72.8941 8.38526 77.5401 8.38526 77.5401L11.3253 78.0119C11.3253 78.0119 13.503 70.0993 14.1201 67.3771C14.7371 64.6549 15.2453 59.1378 15.2453 59.1378C15.2453 59.1378 16.806 65.8163 17.3505 68.6112C17.8586 71.3697 16.9149 73.1482 18.5845 78.0119C20.8349 78.0119 21.5971 78.0119 21.5971 78.0119C21.5971 78.0119 22.7949 60.3356 21.6334 52.0963Z" fill="#0F63E7"/>
<path d="M35.8958 42.6506L36.0243 42.5831L35.3824 41.3623L35.2539 41.4298L35.8958 42.6506Z" fill="#452A32"/>
<path d="M35.0311 43.0917L35.1918 43.0072L34.5499 41.7864L34.3892 41.8709L35.0311 43.0917Z" fill="#452A32"/>
<path d="M34.2632 43.4853L34.3917 43.4177L33.7498 42.1969L33.6213 42.2645L34.2632 43.4853Z" fill="#452A32"/>
<path d="M35.862 42.4416C35.7168 42.5141 35.6805 42.6593 35.7531 42.8045L35.862 43.0223C35.9346 43.1675 36.0798 43.2038 36.225 43.1312C36.3701 43.0586 36.4064 42.9134 36.3338 42.7682L36.225 42.5504C36.1524 42.4053 35.9709 42.369 35.862 42.4416Z" fill="#452A32"/>
<path d="M35.0271 42.8771C34.882 42.9497 34.8457 43.0949 34.9183 43.24L35.0271 43.4578C35.0997 43.603 35.2449 43.6393 35.3901 43.5667C35.5353 43.4941 35.5716 43.3489 35.499 43.2038L35.3901 42.986C35.3175 42.8408 35.1723 42.8045 35.0271 42.8771Z" fill="#452A32"/>
<path d="M34.2283 43.2764C34.0831 43.3489 34.0468 43.4941 34.1194 43.6393L34.2283 43.8571C34.3009 44.0023 34.4461 44.0386 34.5913 43.966C34.7365 43.8934 34.7728 43.7482 34.7002 43.603L34.5913 43.3852C34.5187 43.2764 34.3372 43.2038 34.2283 43.2764Z" fill="#452A32"/>
<path d="M32.6595 40.2144L32.5309 40.282L33.1729 41.5028L33.3014 41.4352L32.6595 40.2144Z" fill="#452A32"/>
<path d="M33.5383 39.7831L33.3777 39.8676L34.0196 41.0884L34.1802 41.0039L33.5383 39.7831Z" fill="#452A32"/>
<path d="M34.3101 39.3709L34.1816 39.4385L34.8233 40.6594L34.9519 40.5919L34.3101 39.3709Z" fill="#452A32"/>
<path d="M32.704 40.4453C32.8492 40.3727 32.8855 40.2275 32.8129 40.0823L32.704 39.8645C32.6314 39.7193 32.4862 39.683 32.341 39.7556C32.1959 39.8282 32.1596 39.9734 32.2322 40.1186L32.341 40.3364C32.4136 40.4453 32.5951 40.5178 32.704 40.4453Z" fill="#452A32"/>
<path d="M33.5388 40.0097C33.684 39.9371 33.7203 39.7919 33.6477 39.6467L33.5388 39.4289C33.4662 39.2838 33.321 39.2475 33.1758 39.3201C33.0306 39.3927 32.9943 39.5378 33.0669 39.683L33.1758 39.9008C33.2484 40.0097 33.3936 40.0823 33.5388 40.0097Z" fill="#452A32"/>
<path d="M34.3376 39.5741C34.4828 39.5015 34.5191 39.3563 34.4465 39.2112L34.3376 38.9934C34.265 38.8482 34.1198 38.8119 33.9746 38.8845C33.8295 38.9571 33.7932 39.1023 33.8658 39.2474L33.9746 39.4652C34.0472 39.6104 34.2287 39.6467 34.3376 39.5741Z" fill="#452A32"/>
<path d="M20.1456 43.6393C19.6375 43.8571 19.2382 44.1838 18.8752 44.5104C17.8226 45.563 16.3708 46.1075 14.9189 45.7808C13.7575 45.5267 12.5597 45.6719 11.4708 46.2164C8.74857 47.5956 7.69598 51.0438 9.14783 53.9475C10.5997 56.8512 13.9752 58.0852 16.7338 56.7423C17.8226 56.1978 18.6575 55.2904 19.1656 54.2378C19.7827 52.9312 21.0167 52.0238 22.4686 51.8786C22.9404 51.806 23.4486 51.6971 23.9204 51.443C26.1345 50.3541 26.9693 47.6319 25.7715 45.4541C24.6827 43.5304 22.1782 42.6956 20.1456 43.6393Z" fill="#FAC46A"/>
<path d="M13.5396 51.806C14.084 52.8949 15.3907 53.3304 16.4796 52.786C17.5685 52.2415 18.004 50.9349 17.4596 49.846C16.9151 48.7571 15.6085 48.3215 14.5196 48.866C13.4307 49.3741 12.9951 50.7171 13.5396 51.806Z" fill="#F8934F"/>
<path d="M11.4623 50.9531L11.105 51.1315L12.5967 54.1191L12.9539 53.9408L11.4623 50.9531Z" fill="#F8934F"/>
<path d="M33.2238 41.0587L22.215 46.5551L22.9446 48.0165L33.9534 42.5201L33.2238 41.0587Z" fill="#F8934F"/>
<path d="M33.6842 43.0948L35.9709 41.9697C36.3702 41.7519 36.5516 41.2437 36.3339 40.8445L36.0072 40.1548C35.7894 39.7556 35.2813 39.5741 34.882 39.7919L32.5953 40.9171C32.1961 41.1348 32.0146 41.643 32.2324 42.0423L32.5591 42.7319C32.7768 43.1311 33.285 43.3126 33.6842 43.0948Z" fill="#F8934F"/>
<path d="M12.1602 52.3141L34.9542 40.7719L34.555 39.9371" stroke="#E46341" stroke-width="0.5043" stroke-miterlimit="10" stroke-linecap="round" stroke-linejoin="round"/>
<path d="M33.72 40.3363L34.0467 40.9534L11.8696 51.8423" stroke="#E46341" stroke-width="0.5043" stroke-miterlimit="10" stroke-linecap="round" stroke-linejoin="round"/>
<path d="M32.8856 40.7719L33.067 41.1349L11.6522 51.3342" stroke="#E46341" stroke-width="0.5043" stroke-miterlimit="10" stroke-linecap="round" stroke-linejoin="round"/>
<path d="M35.6076 42.0786L35.1357 41.026L12.3779 52.7497" stroke="#E46341" stroke-width="0.5043" stroke-miterlimit="10" stroke-linecap="round" stroke-linejoin="round"/>
<path d="M34.8094 42.5141L34.4101 41.7519L12.5598 53.1853" stroke="#E46341" stroke-width="0.5043" stroke-miterlimit="10" stroke-linecap="round" stroke-linejoin="round"/>
<path d="M34.0469 42.9134L33.7928 42.4778L12.7772 53.6208" stroke="#E46341" stroke-width="0.5043" stroke-miterlimit="10" stroke-linecap="round" stroke-linejoin="round"/>
<path d="M13.8299 38.5215C13.104 37.4326 11.5795 37.3601 10.7084 38.3038C9.83728 39.2838 8.78469 40.8808 7.94988 43.3852C6.06247 48.9749 5.88099 49.3015 8.13136 49.5193C9.07506 49.5919 12.378 43.1312 13.6847 40.0823C13.9751 39.4652 13.8299 38.5215 13.8299 38.5215Z" fill="#FCBBA7"/>
<path d="M17.5319 49.1563L16.6608 50.1C16.6608 50.1 6.24372 51.4067 6.4978 48.6482C6.75187 45.9259 17.5319 49.1563 17.5319 49.1563Z" fill="#FCBBA7"/>
<path d="M16.4796 38.8482C15.1004 38.4126 14.3382 36.9608 14.7374 35.5815L15.2093 34.0934L18.6937 35.1823L17.75 38.1949C17.6048 38.703 17.0241 39.0297 16.4796 38.8482Z" fill="#FCBBA7"/>
<path d="M15.2817 34.6015C15.2817 34.6015 14.8824 36.9608 17.9313 37.6504L18.3668 36.1986L15.2817 34.6015Z" fill="#EA9581"/>
<path d="M14.9188 32.0608C14.9188 33.4764 14.9551 35.3638 16.6973 36.0534C17.387 36.3438 18.1492 36.3075 18.8025 36.0534C20.5448 35.3275 20.5448 33.3675 20.5448 31.9519C20.5448 30.1371 19.0929 28.6853 17.387 28.903C15.9714 29.0845 14.9188 30.5001 14.9188 32.0608Z" fill="#FCBBA7"/>
<path d="M15.9715 33.0045C16.2981 33.6216 16.1893 34.3112 15.7537 34.529C15.3181 34.783 14.6648 34.4564 14.3381 33.8393C14.0115 33.2223 14.1204 32.5327 14.5559 32.3149C15.0278 32.0608 15.6448 32.3875 15.9715 33.0045Z" fill="#FCBBA7"/>
<path d="M14.6643 36.0171C14.6643 36.0171 11.3976 35.4364 9.69168 37.723C7.98575 40.0097 7.36871 44.4015 6.20723 45.563C5.04575 46.7245 6.57019 47.9223 6.57019 47.9223C6.57019 47.9223 8.4576 46.7245 10.1998 47.1964C13.0672 45.9986 14.0109 40.3727 14.6643 36.0171Z" fill="#E46341"/>
<path d="M19.5284 28.903C18.4395 28.1408 17.0239 28.0682 15.8624 28.7215C15.318 29.0119 14.8098 29.4837 14.5921 30.1734C14.0476 31.9519 15.1728 33.0771 15.1728 33.0771C15.1728 33.0771 15.4269 31.7341 16.3343 30.2097C17.895 30.9356 20.4358 31.0808 20.4358 31.0808C20.4358 31.0808 20.835 29.8104 19.5284 28.903Z" fill="white"/>
<path d="M11.906 79.246C11.1075 78.9919 10.309 78.8467 10.309 78.8467L10.3816 78.5927L8.49414 78.3023C8.49414 78.3023 8.20378 79.2823 8.16748 79.8267C8.85711 80.2623 10.563 80.2986 11.3253 80.4438C11.3616 80.0082 11.6519 79.5727 11.906 79.246Z" fill="#452A32"/>
<path d="M11.906 79.246C11.6882 79.5727 11.3979 80.0083 11.3253 80.4438C10.563 80.2986 8.82081 80.2623 8.16748 79.8268C8.16748 79.9357 8.16748 80.0445 8.20377 80.0808C8.31266 80.5164 9.32896 80.4075 10.7445 80.6979C12.1601 80.9883 13.5393 80.9883 13.5393 80.1897C13.503 79.8268 12.7045 79.5001 11.906 79.246Z" fill="white"/>
<path d="M22.5046 79.246C21.7061 78.9919 20.9076 78.8467 20.9076 78.8467L20.9802 78.5927L19.0928 78.3023C19.0928 78.3023 18.8024 79.2823 18.7661 79.8267C19.4557 80.2623 21.1617 80.2986 21.9239 80.4438C21.9602 80.0082 22.2506 79.5727 22.5046 79.246Z" fill="#452A32"/>
<path d="M22.5046 79.246C22.2869 79.5727 21.9965 80.0083 21.9239 80.4438C21.1617 80.2986 19.4194 80.2623 18.7661 79.8268C18.7661 79.9357 18.7661 80.0445 18.8024 80.0808C18.9113 80.5164 19.9276 80.4075 21.3432 80.6979C22.7587 80.9883 24.138 80.9883 24.138 80.1897C24.1017 79.8268 23.3031 79.5001 22.5046 79.246Z" fill="white"/>
<path d="M19.8914 50.826C19.9276 50.6808 18.3669 50.1 18.3669 50.1C18.3669 50.1 20.2906 50.4993 20.3269 50.3178C20.3632 50.1363 18.3669 49.6282 18.3669 49.6282C18.3669 49.6282 20.5084 49.7371 20.5084 49.5193C20.5084 49.3378 18.4395 49.1201 18.4395 49.1201C18.4395 49.1201 20.3995 48.9023 20.3632 48.7208C20.3632 48.503 17.5684 48.6845 17.5684 48.6845C17.5684 48.6845 18.621 48.1763 18.621 47.9949C18.621 47.8134 17.6047 48.0675 16.9876 48.3578C16.3706 48.6482 15.9351 49.0475 15.9351 49.0475L16.1165 50.1726C16.1528 50.1363 19.8551 50.9712 19.8914 50.826Z" fill="#FCBBA7"/>
<path d="M32.1231 44.0023C32.1231 44.0023 33.0668 43.603 32.8853 43.0223C32.7039 42.4415 32.1957 42.006 31.9779 42.1149C31.7602 42.2238 31.0342 42.5504 30.889 43.2038C30.7439 43.8208 30.7802 44.4741 30.7802 44.4741C30.7802 44.4741 31.3246 44.5104 32.1231 44.0023Z" fill="#FCBBA7"/>
<path d="M30.4536 41.8608C30.4536 41.8608 30.7077 41.4252 31.5425 41.4252C32.3773 41.4252 32.5225 41.8245 32.0143 41.9697C31.4699 42.1149 31.1432 41.7156 30.4536 41.8608Z" fill="#FCBBA7"/>
<path d="M13.9748 39.9371C13.9748 39.9371 13.5393 42.5867 12.777 44.0386C12.0148 45.5267 11.797 45.8897 10.9622 46.6882C9.76445 45.2364 7.58667 45.4541 7.58667 45.4541" stroke="#C4432A" stroke-width="0.5043" stroke-miterlimit="10" stroke-linecap="round" stroke-linejoin="round"/>
<path d="M8.78448 44.6556C8.78448 44.6556 10.6356 45.2363 11.18 46.543" stroke="#C4432A" stroke-width="0.5043" stroke-miterlimit="10" stroke-linecap="round" stroke-linejoin="round"/>
<path d="M14.0478 35.9445C14.0478 35.9445 13.9752 37.5415 15.0278 38.5941C16.2619 39.8282 17.2419 39.5378 17.7137 39.066C18.1856 38.5941 18.5123 37.4689 18.5849 36.8882L18.2945 36.743C18.2945 36.743 17.7863 38.4852 17.3145 38.7756C16.8426 39.066 16.0441 38.9934 15.2456 38.0497C14.4471 37.106 14.5923 35.9808 14.5923 35.9808L14.0478 35.9445Z" stroke="#C4432A" stroke-width="0.5043" stroke-miterlimit="10" stroke-linecap="round" stroke-linejoin="round"/>
<path d="M12.5597 36.2711C12.5597 36.2711 13.8301 37.106 13.9027 39.6467" stroke="#C4432A" stroke-width="0.5043" stroke-miterlimit="10" stroke-linecap="round" stroke-linejoin="round"/>
<path d="M19.2381 37.4326C19.2381 37.4326 18.984 38.4126 19.2381 39.4652" stroke="#C4432A" stroke-width="0.5043" stroke-miterlimit="10" stroke-linecap="round" stroke-linejoin="round"/>
<path d="M6.57074 47.9223C6.57074 47.9223 8.42185 46.6519 10.2004 47.1963C10.7811 47.0511 10.9989 46.7245 10.9989 46.7245" stroke="#C4432A" stroke-width="0.5043" stroke-miterlimit="10" stroke-linecap="round" stroke-linejoin="round"/>
<path d="M5.91705 45.9623C5.91705 45.9623 6.57039 44.7645 7.98594 44.8371" stroke="#C4432A" stroke-width="0.5043" stroke-miterlimit="10" stroke-linecap="round" stroke-linejoin="round"/>
<path d="M53.175 61.6423C53.175 61.6423 54.1913 59.5371 53.4291 56.9964C54.7721 55.6534 55.9336 54.4919 55.9336 54.4919C55.9336 54.4919 52.8121 49.4467 49.4365 49.4467C49.4365 51.6245 46.8232 51.7697 45.7706 49.0838C41.6328 49.846 38.0395 55.9438 38.0395 55.9438L41.1973 58.9564L41.3062 61.6786C41.3425 61.6786 47.2587 63.4934 53.175 61.6423Z" fill="#56C7AB"/>
<path d="M48.2386 50.7897C48.2386 50.7897 50.1623 57.6497 49.3275 62.9127" stroke="#452A32" stroke-width="0.5043" stroke-miterlimit="10" stroke-linecap="round" stroke-linejoin="round"/>
<path d="M38.4388 54.8912L41.3062 57.7586L40.9795 59.8275" stroke="#452A32" stroke-width="0.5043" stroke-miterlimit="10" stroke-linecap="round" stroke-linejoin="round"/>
<path d="M53.7556 57.2504L53.1386 56.3067L55.7882 53.1852" stroke="#452A32" stroke-width="0.5043" stroke-miterlimit="10" stroke-linecap="round" stroke-linejoin="round"/>
<path d="M41.3065 57.7586C41.3065 57.7586 42.7947 52.4231 42.3228 50.5719" stroke="#452A32" stroke-width="0.5043" stroke-miterlimit="10" stroke-linecap="round" stroke-linejoin="round"/>
<path d="M53.1389 56.3067C53.1389 56.3067 50.5981 51.6245 51.6507 49.7734" stroke="#452A32" stroke-width="0.5043" stroke-miterlimit="10" stroke-linecap="round" stroke-linejoin="round"/>
<path d="M41.3421 61.6786C41.3421 61.6786 36.9502 65.4534 38.2569 70.0267C39.5636 74.6001 34.4458 74.963 35.7524 80.843C44.3184 82.803 56.9495 77.286 56.9495 77.286C56.9495 77.286 54.6265 67.0141 53.1747 61.6423C47.2584 63.4934 41.3421 61.6786 41.3421 61.6786Z" fill="#FAC46A"/>
<path d="M42.2141 61.4245C42.2141 61.4245 38.9838 64.4371 40.1452 68.5386C41.3067 72.64 35.7171 76.306 37.4956 81.6052" stroke="#F8934F" stroke-width="0.5043" stroke-miterlimit="10" stroke-linecap="round" stroke-linejoin="round"/>
<path d="M44.4275 61.6423C44.4275 61.6423 42.0319 64.9089 43.7379 68.9741C45.4801 73.0393 41.4149 77.903 43.266 81.6052" stroke="#F8934F" stroke-width="0.5043" stroke-miterlimit="10" stroke-linecap="round" stroke-linejoin="round"/>
<path d="M47.2222 62.0052C47.2222 62.0052 47.4037 65.9252 48.6741 70.7526C49.9807 75.5437 50.2711 80.48 50.2711 80.48" stroke="#F8934F" stroke-width="0.5043" stroke-miterlimit="10" stroke-linecap="round" stroke-linejoin="round"/>
<path d="M54.8081 78.7741L51.0696 61.1704" stroke="#F8934F" stroke-width="0.5043" stroke-miterlimit="10" stroke-linecap="round" stroke-linejoin="round"/>
<path d="M41.2336 61.0979L40.9796 61.969C47.6218 64.3282 53.3566 61.969 53.3566 61.969L53.4292 61.1704C46.8233 63.4208 41.2336 61.0979 41.2336 61.0979Z" fill="#452A32"/>
<path d="M45.9156 48.6845L48.2385 51.0801C48.2385 51.0801 46.7141 51.7334 45.7704 50.6082C44.8267 49.4467 45.9156 48.6845 45.9156 48.6845Z" fill="#FAC46A"/>
<path d="M48.2387 51.0801L49.5454 49.1564C49.5454 49.1564 50.3439 49.5193 49.9083 50.5356C49.4728 51.5519 48.2387 51.0801 48.2387 51.0801Z" fill="#FAC46A"/>
<path d="M38.0757 55.9438L38.5113 55.2904C38.5113 55.2904 39.4187 56.1253 40.072 57.6497C40.8706 57.7949 41.2698 58.0852 41.2698 58.0852V59.0652L38.0757 55.9438Z" fill="#FAC46A"/>
<path d="M55.5706 53.8749C55.5706 53.8749 54.6269 54.4919 54.4817 55.5445C53.4291 55.98 53.2476 56.3067 53.2476 56.3067L53.4654 56.96L55.9698 54.4556L55.5706 53.8749Z" fill="#FAC46A"/>
<path d="M79.9615 46.6519C79.4533 47.0511 78.8726 47.6319 78.3281 48.503C76.7311 51.0437 75.2792 53.8023 75.2792 53.8023L77.7111 55.726C77.7474 55.726 77.5296 48.5393 79.9615 46.6519Z" fill="#FAC46A"/>
<path d="M91.2137 54.6734C86.1322 50.2089 87.6204 45.7808 87.6204 45.7445L86.0959 45.1274C83.2648 47.4504 81.8492 45.7445 81.8492 45.7445C81.8492 45.7445 81.0144 45.8534 79.9618 46.6519C77.53 48.5393 77.7478 55.726 77.7478 55.726C77.7478 55.726 77.8929 59.3919 77.7478 61.2793C77.6026 63.203 77.4574 66.2156 77.4574 66.2156C77.4574 66.2156 85.5152 68.6474 92.7744 65.3082C92.1937 59.6097 90.887 56.9963 91.2137 54.6734Z" fill="#E283B5"/>
<path d="M83.2283 45.6356C83.2283 45.6356 82.4661 49.3015 82.2483 55.726C82.0306 62.1504 82.2483 68.7564 82.2483 68.7564" stroke="white" stroke-width="0.5043" stroke-miterlimit="10" stroke-linecap="round" stroke-linejoin="round"/>
<path d="M76.7314 64.8001C76.7314 64.8001 85.7692 67.3771 93.3914 63.6023" stroke="white" stroke-width="0.5043" stroke-miterlimit="10" stroke-linecap="round" stroke-linejoin="round"/>
<path d="M81.9581 47.1238C81.9581 47.2327 82.067 47.3416 82.1759 47.3416C82.2848 47.3416 82.3937 47.2327 82.3937 47.1238C82.3937 47.0149 82.2848 46.906 82.1759 46.906C82.067 46.906 81.9581 47.0149 81.9581 47.1238Z" fill="white"/>
<path d="M81.6313 53.766C81.7516 53.766 81.8491 53.6685 81.8491 53.5482C81.8491 53.4279 81.7516 53.3304 81.6313 53.3304C81.511 53.3304 81.4135 53.4279 81.4135 53.5482C81.4135 53.6685 81.511 53.766 81.6313 53.766Z" fill="white"/>
<path d="M81.3411 59.9363C81.3411 60.0452 81.45 60.1541 81.5588 60.1541C81.6677 60.1541 81.7766 60.0452 81.7766 59.9363C81.7766 59.8275 81.6677 59.7186 81.5588 59.7186C81.45 59.7186 81.3411 59.8275 81.3411 59.9363Z" fill="white"/>
<path d="M81.4135 66.2519C81.4135 66.3608 81.5224 66.4697 81.6313 66.4697C81.7402 66.4697 81.8491 66.3608 81.8491 66.2519C81.8491 66.143 81.7402 66.0341 81.6313 66.0341C81.5224 66.0341 81.4135 66.143 81.4135 66.2519Z" fill="white"/>
<path d="M81.8494 50.5356C81.9697 50.5356 82.0672 50.4381 82.0672 50.3178C82.0672 50.1976 81.9697 50.1001 81.8494 50.1001C81.7291 50.1001 81.6317 50.1976 81.6317 50.3178C81.6317 50.4381 81.7291 50.5356 81.8494 50.5356Z" fill="white"/>
<path d="M81.6313 56.9601C81.7516 56.9601 81.8491 56.8626 81.8491 56.7423C81.8491 56.622 81.7516 56.5245 81.6313 56.5245C81.511 56.5245 81.4135 56.622 81.4135 56.7423C81.4135 56.8626 81.511 56.9601 81.6313 56.9601Z" fill="white"/>
<path d="M81.3411 63.1304C81.3411 63.2393 81.45 63.3482 81.5588 63.3482C81.6677 63.3482 81.7766 63.2393 81.7766 63.1304C81.7766 63.0215 81.6677 62.9127 81.5588 62.9127C81.45 62.9127 81.3411 63.0215 81.3411 63.1304Z" fill="white"/>
<path d="M82.3934 87.7393H78.0378V89.2275H82.3934V87.7393Z" fill="#452A32"/>
<path d="M88.7452 86.5415L92.266 83.9645L92.9556 85.0534L89.5438 87.6304L88.7452 86.5415Z" fill="#452A32"/>
<path d="M91.1772 55.1815L95.2424 51.0075C95.2424 51.0075 90.778 45.5993 86.3135 45.2727C86.2772 45.3453 86.0957 50.6445 91.1772 55.1815Z" fill="#FAC46A"/>
<path d="M14.6647 36.0171C14.6647 36.0171 15.2817 38.086 16.8424 38.9208C15.0276 40.046 13.0313 37.6141 14.6647 36.0171Z" fill="white"/>
<path d="M18.2221 36.7067C18.2221 36.7067 17.968 37.7593 16.8065 38.9208C18.0406 39.5741 19.311 38.4489 18.2221 36.7067Z" fill="white"/>
<path d="M95.8973 39.2418L95.7635 39.1855L95.2423 40.4232L95.3761 40.4795L95.8973 39.2418Z" fill="#452A32"/>
<path d="M96.7284 39.5852L96.5946 39.5289L96.0734 40.7665L96.2072 40.8229L96.7284 39.5852Z" fill="#452A32"/>
<path d="M97.5229 39.9278L97.3891 39.8715L96.868 41.1092L97.0018 41.1655L97.5229 39.9278Z" fill="#452A32"/>
<path d="M95.7505 39.3927C95.8957 39.4652 96.0409 39.3927 96.0772 39.2475L96.1498 39.0297C96.2224 38.8845 96.1498 38.7393 96.0046 38.703C95.8594 38.6304 95.7142 38.703 95.6779 38.8482L95.6053 39.066C95.569 39.2112 95.6416 39.3564 95.7505 39.3927Z" fill="#452A32"/>
<path d="M96.5853 39.7556C96.7305 39.8282 96.8757 39.7556 96.912 39.6104L96.9846 39.3927C97.0572 39.2475 96.9846 39.1023 96.8394 39.066C96.6942 38.9934 96.5491 39.066 96.5128 39.2112L96.4402 39.4289C96.3676 39.5378 96.4402 39.683 96.5853 39.7556Z" fill="#452A32"/>
<path d="M97.3841 40.0823C97.5293 40.1549 97.6745 40.0823 97.7108 39.9371L97.7834 39.7193C97.856 39.5741 97.7834 39.429 97.6382 39.3927C97.493 39.3201 97.3478 39.3927 97.3115 39.5378L97.2389 39.7556C97.2026 39.9008 97.2752 40.046 97.3841 40.0823Z" fill="#452A32"/>
<path d="M96.0455 43.1318L96.1793 43.1881L96.7004 41.9505L96.5666 41.8941L96.0455 43.1318Z" fill="#452A32"/>
<path d="M95.256 42.768L95.3898 42.8243L95.911 41.5867L95.7772 41.5303L95.256 42.768Z" fill="#452A32"/>
<path d="M94.4222 42.4314L94.556 42.4878L95.0772 41.2501L94.9434 41.1938L94.4222 42.4314Z" fill="#452A32"/>
<path d="M96.1862 42.9497C96.041 42.8771 95.8958 42.9497 95.8595 43.0949L95.787 43.3126C95.7144 43.4578 95.787 43.603 95.9321 43.6393C96.0773 43.7119 96.2225 43.6393 96.2588 43.4941L96.3314 43.2763C96.3677 43.1675 96.3314 43.0223 96.1862 42.9497Z" fill="#452A32"/>
<path d="M95.3879 42.623C95.2428 42.5504 95.0976 42.623 95.0613 42.7682L94.9887 42.986C94.9161 43.1312 94.9887 43.2764 95.1339 43.3127C95.2791 43.3852 95.4242 43.3127 95.4605 43.1675L95.5331 42.9497C95.5694 42.8408 95.4968 42.6593 95.3879 42.623Z" fill="#452A32"/>
<path d="M94.5529 42.2601C94.4077 42.1875 94.2625 42.2601 94.2262 42.4053L94.1536 42.623C94.081 42.7682 94.1536 42.9134 94.2988 42.9497C94.444 43.0223 94.5892 42.9497 94.6254 42.8045L94.698 42.5867C94.7706 42.4779 94.698 42.3327 94.5529 42.2601Z" fill="#452A32"/>
<path d="M99.9971 44.4378C99.9971 44.4378 98.2912 43.7119 97.7468 43.1311C97.2023 42.5867 98.1823 41.6793 99.0534 41.3163C99.9608 40.9534 100.832 43.6393 100.832 43.6393L99.9971 44.4378Z" fill="#995033"/>
<path d="M109.58 35.8719C110.886 35.5452 112.157 36.5615 112.121 37.9045C112.084 39.2838 111.758 41.2438 110.632 43.7482C108.128 49.4104 108.055 49.7734 106.132 48.3215C105.333 47.7045 106.966 40.3727 108.128 37.1423C108.382 36.5252 108.926 36.0534 109.58 35.8719Z" fill="#F4D7A9"/>
<path d="M98.5454 42.8408L98.9084 43.9297C98.9084 43.9297 107.039 51.2252 108.091 48.5393C109.108 45.8534 98.5454 42.8408 98.5454 42.8408Z" fill="#995033"/>
<path d="M112.846 34.6741C112.846 34.6741 107.619 35.8719 107.474 39.9008C107.329 43.9297 109.797 56.3067 109.797 56.3067L121.884 54.6008C121.884 54.6008 119.67 40.5541 118.944 37.6504C118.218 34.7467 112.846 34.6741 112.846 34.6741Z" fill="#995033"/>
<path d="M109.58 53.2578V65.7438C109.58 66.6875 110.342 67.486 111.322 67.486C112.12 67.486 112.81 66.9416 112.991 66.1793L115.932 54.4193L109.58 53.2578Z" fill="#995033"/>
<path d="M109.58 66.6875L110.197 79.2097L111.975 78.1208L112.774 66.7601C112.846 65.8164 112.12 65.0178 111.177 65.0178C110.269 64.9815 109.543 65.7438 109.58 66.6875Z" fill="#995033"/>
<path d="M115.931 54.4193L114.044 66.2519C113.79 67.1956 114.588 67.6675 115.532 67.9215C116.294 68.1393 117.129 67.7764 117.492 67.0867L121.92 54.6371L115.931 54.4193Z" fill="#995033"/>
<path d="M114.044 67.1593L117.529 79.0645L119.162 78.1208L117.166 66.5423C117.021 65.5986 116.149 64.9815 115.206 65.1993C114.335 65.3808 113.79 66.2882 114.044 67.1593Z" fill="#995033"/>
<path d="M118.762 78.266C118.762 78.266 116.004 78.4838 114.153 79.5001C113.499 80.1534 114.879 80.6253 116.403 80.1534C117.927 79.7178 118.944 80.226 119.125 79.2097C119.198 78.629 118.762 78.266 118.762 78.266Z" fill="#995033"/>
<path d="M111.503 78.266C111.503 78.266 108.745 78.4838 106.894 79.5001C106.24 80.1534 107.62 80.6253 109.144 80.1534C110.668 79.7178 111.685 80.226 111.866 79.2097C111.939 78.629 111.503 78.266 111.503 78.266Z" fill="#995033"/>
<path d="M108.781 51.4067L109.289 54.1289C109.289 54.1289 108.781 65.526 109.035 69.1919C111.939 69.1919 113.209 69.1919 113.209 69.1919L113.536 66.9778L113.971 69.1919H118.944L118.4 66.3971C118.4 66.3971 122.211 57.5045 122.646 54.4193C123.082 51.3341 120.94 49.2289 120.94 49.2289L108.781 51.4067Z" fill="#F7BCC0"/>
<path d="M113.645 68.1756C113.645 68.1756 113.064 64.0379 113.645 61.3882C114.225 58.7386 115.06 54.4193 115.06 54.4193L113.971 49.846" stroke="#E283B5" stroke-width="0.5043" stroke-miterlimit="10" stroke-linecap="round" stroke-linejoin="round"/>
<path d="M120.359 49.1201C120.359 49.1201 122.9 52.3504 121.92 55.6171C120.94 58.8838 117.964 66.2882 117.964 66.2882L118.545 69.5186" stroke="#E283B5" stroke-width="0.5043" stroke-miterlimit="10" stroke-linecap="round" stroke-linejoin="round"/>
<path d="M117.347 49.6645C117.347 49.6645 118.436 53.766 122.138 53.2942" stroke="#E283B5" stroke-width="0.5043" stroke-miterlimit="10" stroke-linecap="round" stroke-linejoin="round"/>
<path d="M110.85 50.7897C110.85 50.7897 112.011 54.2016 109.035 55.0727" stroke="#E283B5" stroke-width="0.5043" stroke-miterlimit="10" stroke-linecap="round" stroke-linejoin="round"/>
<path d="M118.799 66.3245L113.463 66.3971H108.128" stroke="#E283B5" stroke-width="0.5043" stroke-miterlimit="10" stroke-linecap="round" stroke-linejoin="round"/>
<path d="M110.56 35.0734C110.56 35.0734 108.382 35.3638 107.474 38.1586C106.749 40.4089 106.132 43.2401 106.132 43.2401L107.474 43.9297C107.474 43.9297 107.874 50.1727 108.128 52.6045C108.382 55.0364 108.346 57.0327 108.346 57.0327C108.346 57.0327 117.129 57.9764 123.336 53.7297C123.336 51.0801 122.174 47.0149 120.65 43.9297C119.126 40.8445 116.839 34.6741 116.839 34.6741C116.839 34.6741 114.262 34.0208 110.56 35.0734Z" fill="#7CBCF4"/>
<path d="M106.313 42.4778L107.656 43.0949L107.511 44.1475L105.95 43.4578L106.313 42.4778Z" fill="#E283B5"/>
<path d="M110.596 42.9497C111.104 43.1674 111.539 43.4578 111.939 43.8208C113.027 44.8371 114.552 45.3452 116.004 44.9823C117.165 44.6919 118.399 44.7645 119.561 45.3089C122.392 46.5793 123.59 50.1 122.247 53.1126C120.867 56.1252 117.456 57.5408 114.625 56.2704C113.463 55.7623 112.592 54.8911 112.047 53.8023C111.358 52.4956 110.051 51.6245 108.599 51.5156C108.091 51.4793 107.583 51.3704 107.111 51.1163C104.825 50.1 103.845 47.3415 104.97 45.0911C105.986 43.0223 108.49 42.0785 110.596 42.9497Z" fill="#FAC46A"/>
<path d="M115.843 52.2996C117.079 52.1694 117.976 51.0618 117.845 49.8258C117.715 48.5898 116.607 47.6934 115.371 47.8237C114.135 47.9539 113.239 49.0615 113.369 50.2975C113.5 51.5335 114.607 52.4299 115.843 52.2996Z" fill="#F8934F"/>
<path d="M118.326 53.1787L118.69 53.3432L120.096 50.2347L119.732 50.0701L118.326 53.1787Z" fill="#F8934F"/>
<path d="M109.47 48.2852L96.44 42.2963L97.1296 40.8082L110.16 46.7608L109.47 48.2852Z" fill="#F8934F"/>
<path d="M96.7668 42.9134L94.4076 41.8245C93.972 41.643 93.7905 41.0986 93.972 40.6993L94.2987 40.0097C94.4802 39.5741 95.0246 39.3927 95.4239 39.5741L97.7831 40.663C98.2187 40.8445 98.4002 41.3889 98.2187 41.7882L97.892 42.4778C97.7105 42.9134 97.2024 43.0949 96.7668 42.9134Z" fill="#F8934F"/>
<path d="M115.387 36.0534C116.076 34.8919 117.71 34.7467 118.617 35.7267C119.561 36.743 120.722 38.34 121.702 40.9171C123.88 46.6882 124.098 47.0512 121.739 47.3415C120.759 47.4867 116.766 41.0986 115.278 37.9771C114.988 37.36 115.024 36.6341 115.387 36.0534Z" fill="#995033"/>
<path d="M113.028 47.523L113.354 48.6119C113.354 48.6119 123.953 49.12 123.409 46.2889C122.864 43.4578 113.028 47.523 113.028 47.523Z" fill="#995033"/>
<path d="M112.592 37.4326C114.044 36.9245 114.806 35.3637 114.298 33.9119L113.717 32.2785L110.015 33.5489L111.104 36.7067C111.358 37.3237 112.011 37.6141 112.592 37.4326Z" fill="#995033"/>
<path d="M113.463 33.0408C113.463 33.0408 113.608 35.3637 110.85 35.8356L110.414 34.5652L113.463 33.0408Z" fill="#823D25"/>
<path d="M113.754 30.6089C113.754 31.9882 113.717 33.7667 112.048 34.4563C111.394 34.7104 110.669 34.7104 110.015 34.4563C108.346 33.7667 108.346 31.8793 108.346 30.5001C108.346 28.7578 109.725 27.3786 111.358 27.5963C112.774 27.7415 113.754 29.0845 113.754 30.6089Z" fill="#995033"/>
<path d="M112.774 31.48C112.447 32.0608 112.556 32.7504 112.992 32.9682C113.427 33.186 114.008 32.8956 114.335 32.3149C114.661 31.7341 114.552 31.0445 114.117 30.8267C113.681 30.6089 113.101 30.8993 112.774 31.48Z" fill="#995033"/>
<path d="M117.528 42.6593L122.247 40.1549C122.247 40.1549 120.287 33.9845 115.133 34.6378C113.826 40.4089 117.528 42.6593 117.528 42.6593Z" fill="#7CBCF4"/>
<path d="M110.559 27.3423C110.559 27.3423 108.999 27.5601 108.382 28.6127C107.801 29.6652 108.382 30.2823 108.382 30.2823C108.382 30.2823 108.454 29.4112 110.668 29.3023C111.939 29.2297 112.374 29.4112 112.665 30.1734L112.991 31.3712C112.991 31.3712 113.354 30.9356 113.899 30.7541C114.116 28.1408 112.919 26.8341 110.559 27.3423Z" fill="white"/>
<path d="M110.051 78.0845C110.051 78.0845 108.345 78.5927 107.329 78.9919C106.313 79.4275 106.24 79.9719 106.603 80.3349C106.966 80.6979 108.636 80.4801 109.579 80.3349C110.523 80.1897 111.866 80.226 112.048 79.5727C112.229 78.9194 111.939 78.0845 111.939 78.0845C111.939 78.0845 111.176 78.4112 110.051 78.0845Z" fill="#452A32"/>
<path d="M117.238 78.0845C117.238 78.0845 115.532 78.5927 114.516 78.9919C113.499 79.4275 113.427 79.9719 113.79 80.3349C114.153 80.6979 115.822 80.4801 116.766 80.3349C117.71 80.1897 119.053 80.226 119.234 79.5727C119.416 78.9194 119.125 78.0845 119.125 78.0845C119.125 78.0845 118.327 78.4112 117.238 78.0845Z" fill="#452A32"/>
<path d="M110.523 50.3541C110.451 50.209 111.649 49.1564 111.649 49.1564C111.649 49.1564 110.051 50.1727 109.979 50.0275C109.87 49.8823 111.503 48.7571 111.503 48.7571C111.503 48.7571 109.616 49.5919 109.543 49.4104C109.471 49.229 111.249 48.3215 111.249 48.3215C111.249 48.3215 109.434 48.7934 109.362 48.6119C109.289 48.4304 111.83 47.5956 111.83 47.5956C111.83 47.5956 110.705 47.523 110.632 47.3416C110.56 47.1601 111.54 47.0512 112.229 47.0875C112.883 47.1238 113.427 47.3416 113.427 47.3416L113.645 48.3941C113.645 48.4304 110.596 50.4993 110.523 50.3541Z" fill="#995033"/>
<path d="M98.1099 43.7845C98.1099 43.7845 97.2025 43.4215 97.3477 42.8408C97.5292 42.26 98.001 41.8608 98.2188 41.9697C98.4366 42.0786 99.1262 42.4052 99.2714 42.986C99.4166 43.603 99.344 44.2201 99.344 44.2201C99.344 44.2201 98.9084 44.2926 98.1099 43.7845Z" fill="#995033"/>
<path d="M99.9977 41.9334C99.9977 41.9334 99.8525 41.4252 99.0177 41.2074C98.1829 40.9534 97.9288 41.3163 98.4007 41.6067C98.9088 41.8608 99.3444 41.5704 99.9977 41.9334Z" fill="#995033"/>
<path d="M116.984 42.2237L121.993 39.5015L122.428 40.4089L117.383 43.0949L116.984 42.2237Z" fill="#E283B5"/>
<path d="M109.979 78.1208L110.088 77.286L112.011 77.4312V78.266C112.048 78.266 110.777 78.7378 109.979 78.1208Z" fill="#F7F6F8"/>
<path d="M119.016 77.286H117.02L117.056 78.1208C118.472 78.7378 119.234 78.3386 119.234 78.3386L119.016 77.286Z" fill="#F7F6F8"/>
</svg>
