<svg width="126" height="126" viewBox="0 0 126 126" fill="none" xmlns="http://www.w3.org/2000/svg">
<circle cx="63" cy="63" r="63" fill="#972472"/>
<path d="M63.0001 110.992C86.1961 110.992 105 108.294 105 104.966C105 101.639 86.1961 98.9409 63.0001 98.9409C39.8042 98.9409 21.0001 101.639 21.0001 104.966C21.0001 108.294 39.8042 110.992 63.0001 110.992Z" fill="#F2D4C9"/>
<path d="M40.3757 54.1054C40.3757 54.1054 41.8525 53.751 44.6289 54.1645C46.7555 54.578 47.169 54.6371 47.169 54.6371C47.169 54.6371 46.342 56.4683 43.6838 55.9957C41.1437 55.8776 40.4939 56.1729 40.4939 56.1729L40.3757 54.1054Z" fill="#FCBBA7"/>
<path d="M42.0294 54.0464C42.0294 54.0464 44.6876 52.924 44.7467 53.2784C44.8057 53.6919 43.2108 54.2236 43.2108 54.2236L42.0294 54.0464Z" fill="#FCBBA7"/>
<path d="M57.034 102.249H55.0256L69.9117 15L70.6205 15.7679L57.034 102.249Z" fill="#C4432A"/>
<path d="M56.0295 102.249H53.962L67.8438 15H69.9113L56.0295 102.249Z" fill="#E46341"/>
<path d="M74.7557 102.249H72.7473L87.5743 15L88.3422 15.7679L74.7557 102.249Z" fill="#C4432A"/>
<path d="M73.7512 102.249H71.6837L85.5655 15H87.5739L73.7512 102.249Z" fill="#E46341"/>
<path d="M95.4304 102.249H93.4219L80.0717 47.1941L80.7806 47.962L95.4304 102.249Z" fill="#C4432A"/>
<path d="M94.4263 102.249H92.4178L78.0634 47.1941H80.0719L94.4263 102.249Z" fill="#E46341"/>
<path d="M52.308 71.3544L53.135 72.2995L85.5654 72.4767L93.1266 23.8607L92.2405 22.9746L52.308 71.3544Z" fill="#F0E5D5"/>
<path d="M52.308 71.3544H84.5611L92.2405 22.9746H60.0464L52.308 71.3544Z" fill="#F7F6F8"/>
<path d="M47.7597 103.903C47.7597 103.903 52.0129 104.198 54.8483 105.793C55.8525 106.797 53.7259 107.506 51.4221 106.797C49.0593 106.089 47.5234 106.916 47.228 105.38C47.1099 104.494 47.7597 103.903 47.7597 103.903Z" fill="#FCBBA7"/>
<path d="M75.2279 60.308C77.7089 59.2447 79.5401 57.0591 80.5444 54.5781C81.3123 52.6287 81.7258 50.384 81.4895 48.3165C81.3714 47.3123 80.8988 46.308 80.249 45.5401C79.6583 44.8903 78.8313 44.4177 77.9452 44.4177C77.0591 44.4177 76.1731 44.8903 75.5823 45.5992C74.0465 47.3713 74.1646 49.9114 72.9241 51.8017C71.6836 53.6329 69.1435 53.8102 67.4895 52.3924C65.9536 51.0929 65.1266 48.7891 65.5992 46.8397C66.1899 44.1224 68.0212 41.4642 67.8439 38.6287C67.7849 38.0971 67.4304 35.0253 66.4262 36.0296C66.1899 36.2658 66.3081 37.0338 66.3671 37.3291C66.4853 38.3334 66.7216 39.3376 66.4262 40.3418C65.9536 41.9367 65.0676 43.3545 64.3587 44.7722C63.3545 46.7806 62.1731 48.9663 61.9958 51.2701C61.7596 54.2827 63.4136 57.2363 65.7764 59.0085C68.3756 61.0169 72.0971 61.6667 75.2279 60.308Z" fill="#56C7AB"/>
<path d="M41.675 34.3165C41.675 34.3165 50.0041 35.0253 51.0674 41.1688C52.1307 47.3122 51.0674 66.9241 51.0674 66.9241H32.1054C32.1054 66.9241 32.4598 44.8903 32.9324 40.2236C33.405 35.616 41.675 34.3165 41.675 34.3165Z" fill="#FCBBA7"/>
<path d="M51.0674 65.0338V84.4093C51.0674 85.8861 49.8859 87.1266 48.3501 87.1266C47.1096 87.1266 46.0463 86.2996 45.7509 85.0591L41.2024 66.8059L51.0674 65.0338Z" fill="#FCBBA7"/>
<path d="M51.0673 85.827L50.1222 105.262H47.7593L46.1053 85.8861C45.9871 84.4093 47.1095 83.1688 48.5863 83.1688C50.004 83.2278 51.1264 84.4093 51.0673 85.827Z" fill="#FCBBA7"/>
<path d="M34.4683 103.903C34.4683 103.903 38.7215 104.198 41.5569 105.793C42.5611 106.797 40.4346 107.506 38.1308 106.797C35.7679 106.089 34.232 106.916 33.9367 105.38C33.8185 104.494 34.4683 103.903 34.4683 103.903Z" fill="#FCBBA7"/>
<path d="M41.2025 66.8059L40.2573 84.4093C40.2573 85.8861 39.0759 87.1266 37.54 87.1266C36.2995 87.1266 35.2362 86.2996 34.9409 85.0591L32.1054 66.9241L41.2025 66.8059Z" fill="#FCBBA7"/>
<path d="M40.2575 85.827L36.8314 105.262H34.4685L35.3546 85.8861C35.2364 84.4093 36.3588 83.1688 37.8356 83.1688C39.1942 83.2278 40.3166 84.4093 40.2575 85.827Z" fill="#FCBBA7"/>
<path d="M38.8397 38.4515C37.6582 36.6793 35.1772 36.5612 33.7595 38.097C32.3418 39.692 30.6287 42.2911 29.2701 46.3671C26.1983 55.4641 26.1393 55.7004 29.8608 56.0548C31.3966 56.173 36.9494 46.4261 39.076 41.4641C39.4895 40.4599 39.4304 39.3375 38.8397 38.4515Z" fill="#FCBBA7"/>
<path d="M43.0928 54.4009L43.0337 55.9367C43.0337 55.9367 26.8481 58.8312 27.0843 54.3418C27.3206 49.9114 43.0928 54.4009 43.0928 54.4009Z" fill="#FCBBA7"/>
<path d="M48.3502 37.5653C46.2827 37.27 44.5106 38.9831 44.6878 41.1096C44.9241 43.2362 45.692 46.1898 47.8186 49.9704C52.5443 58.3586 52.7215 58.9493 55.4388 56.4092C56.5612 55.3459 53.0169 44.2404 50.7722 39.3966C50.2996 38.3923 49.4135 37.7426 48.3502 37.5653Z" fill="#FCBBA7"/>
<path d="M61.8187 43.5907L63.8271 43.7679C63.8271 43.7679 56.0887 60.4261 52.4853 57.7088C48.8819 54.9915 61.8187 43.5907 61.8187 43.5907Z" fill="#FCBBA7"/>
<path d="M39.3104 36.1874L45.0099 37.9517L47.0187 31.4621L41.3192 29.6979L39.3104 36.1874Z" fill="#FCBBA7"/>
<path d="M40.9072 26.4008C40.9072 28.7046 40.9663 31.7764 43.8017 32.8987C44.9241 33.3713 46.1646 33.3122 47.2279 32.8987C50.0633 31.7173 50.0633 28.5274 50.0633 26.2236C50.0633 23.27 47.7005 20.9072 44.9241 21.2616C42.5612 21.557 40.9072 23.8608 40.9072 26.4008Z" fill="#FCBBA7"/>
<path d="M32.9916 63.7932C32.9916 63.7932 29.8608 72.1223 29.8608 95.0422L53.962 94.8649L50.5359 66.1561L32.9916 63.7932Z" fill="#F7F6F8"/>
<path d="M46.5189 39.9873C46.5189 39.9873 46.5779 39.9873 46.5189 39.9873C46.5779 39.9283 46.5779 39.9283 46.5779 39.9283C51.1855 37.27 55.9703 38.038 55.9703 38.038C58.2741 38.2743 59.81 39.9283 58.7467 42.173C58.4514 42.8228 57.8016 43.4726 57.0336 43.9452C55.675 44.7131 54.3754 45.0084 53.194 44.9494C52.3079 44.8903 51.3627 45.0675 50.5357 45.481C49.5315 45.9536 48.4092 46.1899 47.1686 46.0717C45.9872 45.9536 44.9239 45.481 44.4514 44.7131C43.329 43.0591 44.4514 41.1097 46.5189 39.9873Z" fill="#F0E5D5"/>
<path d="M46.637 39.9282C46.6961 39.8692 46.6961 39.8692 46.6961 39.8692C51.3037 37.27 56.0294 37.9789 56.0294 37.9789C58.3332 38.2152 59.81 39.8101 58.7467 41.9957C58.4514 42.6455 57.8016 43.2362 57.0337 43.7088C55.7341 44.4768 54.3754 44.7721 53.2531 44.713C52.367 44.654 51.4809 44.8312 50.5948 45.2447C49.6497 45.7173 48.4683 45.9535 47.2277 45.8354C46.0463 45.7763 45.0421 45.2447 44.5104 44.5358C43.4472 42.9409 44.5695 40.9915 46.637 39.9282Z" fill="white"/>
<path d="M53.1942 44.1814C53.6668 44.4177 54.4347 44.2404 54.8482 43.8269C55.2617 43.4134 55.2027 42.8818 54.7301 42.6455C54.2575 42.4092 53.4896 42.5864 53.0761 42.9999C52.6626 43.4725 52.7217 43.9451 53.1942 44.1814Z" fill="#E46341"/>
<path d="M55.9114 42.6455C56.384 42.8818 57.1519 42.7046 57.5654 42.2911C57.9789 41.8775 57.9198 41.3459 57.4473 41.1096C56.9747 40.8733 56.2067 41.0505 55.7932 41.464C55.3797 41.8775 55.4388 42.4092 55.9114 42.6455Z" fill="#EDA370"/>
<path d="M55.4389 40.6371C55.9115 40.8733 56.6794 40.6961 57.0929 40.2826C57.5064 39.8691 57.4473 39.3375 56.9748 39.1012C56.5022 38.8649 55.7342 39.0421 55.3207 39.4556C54.8482 39.8691 54.9072 40.4008 55.4389 40.6371Z" fill="#FAC46A"/>
<path d="M49.2361 40.6371C49.7087 40.8733 50.4766 40.6961 50.8901 40.2826C51.3036 39.8691 51.2445 39.3375 50.772 39.1012C50.2994 38.8649 49.5315 39.0421 49.118 39.4556C48.7045 39.9282 48.7635 40.4598 49.2361 40.6371Z" fill="#7CBCF4"/>
<path d="M46.2235 42.0548C46.6961 42.2911 47.464 42.1139 47.8775 41.7004C48.291 41.2869 48.2319 40.7552 47.7594 40.5189C47.2868 40.2826 46.5189 40.4598 46.1053 40.8733C45.6328 41.2869 45.6918 41.8185 46.2235 42.0548Z" fill="#0F63E7"/>
<path d="M45.5149 44.2405C45.9875 44.4767 46.7554 44.2995 47.1689 43.886C47.5824 43.4725 47.5233 42.9409 47.0508 42.7046C46.5782 42.4683 45.8103 42.6455 45.3968 43.059C44.9833 43.4725 45.0423 44.0042 45.5149 44.2405Z" fill="#E283B5"/>
<path d="M47.9958 44.9493C48.4684 45.1856 49.2363 45.0084 49.6498 44.5949C50.0633 44.1814 50.0042 43.6497 49.5317 43.4134C49.0591 43.1772 48.2912 43.3544 47.8777 43.7679C47.4642 44.1814 47.5232 44.713 47.9958 44.9493Z" fill="#F7BCC0"/>
<path d="M52.5443 40.1645C53.0168 40.4008 53.7848 40.2236 54.1983 39.8101C54.6118 39.3966 54.5527 38.8649 54.0801 38.6287C53.6076 38.3924 52.8396 38.5696 52.4261 38.9831C52.0126 39.3966 52.0717 39.9282 52.5443 40.1645Z" fill="#56C7AB"/>
<path d="M32.1057 55.2279C32.1057 55.2279 28.6205 66.0971 28.6205 93.211C45.515 93.211 55.6753 93.211 55.6753 93.211L51.4222 58.0043L32.1057 55.2279Z" fill="#56C7AB"/>
<path d="M40.4343 32.6034L39.9027 34.3165C39.9027 34.3165 35.0588 34.4937 32.1052 39.5739C30.0968 42.9409 28.2656 48.2574 27.2614 51.7426C26.6706 53.8101 28.0884 55.9958 30.2149 56.0549C30.5103 56.0549 30.7466 55.9958 30.8647 55.9367C31.4554 55.346 31.928 54.8734 31.928 54.8734L31.8689 56.173L51.5398 58.7722L51.8352 58.0633C51.8352 58.0633 52.6622 58.2996 53.4892 58.2996C54.3162 58.2996 56.5609 57.5907 55.0251 50.2658C53.4892 42.9409 51.1854 36.5021 45.928 35.0253L46.2824 33.8439L40.4343 32.6034Z" fill="#E283B5"/>
<path d="M40.08 33.8438C40.08 33.8438 38.0124 34.1392 37.1264 38.4514C36.2403 42.7636 34.8226 56.3501 34.8226 56.3501L36.6538 56.5864L39.0167 38.8058C39.0167 38.7468 39.8437 34.789 40.08 33.8438Z" fill="#F7BCC0"/>
<path d="M45.7509 34.3755C45.7509 34.3755 47.7003 35.0844 47.7003 39.4557C47.7003 43.827 46.4007 57.4135 46.4007 57.4135L44.5695 57.2954L45.81 39.3966C45.81 39.3966 45.81 35.3798 45.7509 34.3755Z" fill="#F7BCC0"/>
<path d="M35.2363 103.608C35.2363 103.608 33.9368 103.371 33.6414 104.789C33.346 106.207 34.4684 106.797 36.2996 106.797C38.1309 106.797 41.1435 108.156 42.325 106.62C43.5064 105.084 37.1857 103.785 35.2363 103.608Z" fill="#452A32"/>
<path d="M48.4093 103.608C48.4093 103.608 47.1097 103.371 46.8143 104.789C46.519 106.207 47.6413 106.797 49.4725 106.797C51.3038 106.797 54.3164 108.156 55.4979 106.62C56.6793 105.084 50.3586 103.785 48.4093 103.608Z" fill="#452A32"/>
<path d="M64.8904 38.4515C64.8904 38.4515 64.595 39.4557 64.3587 40.4008C64.1224 40.6371 63.8862 40.8734 63.7089 41.0506C63.8862 40.519 64.0634 39.8101 63.8271 39.692C63.7089 39.6329 63.4726 40.0464 63.2364 40.519C62.7638 41.6414 62.1731 42.7046 61.5233 43.7679C61.4051 43.9451 61.3461 44.0042 61.3461 44.0042L63.0591 45.1266C63.0591 45.1266 64.4178 43.4135 65.3039 41.7595C66.6625 39.1013 64.8904 38.4515 64.8904 38.4515Z" fill="#FCBBA7"/>
<path d="M31.869 55.6414L51.8352 58.0042L57.2698 88.3671H55.0251L50.1812 58.7722L31.6918 56.6456L31.869 55.6414Z" fill="#F7BCC0"/>
<path d="M37.363 56.2911C37.363 56.2911 33.1099 61.7257 35.5909 62.4937C38.0128 63.2025 37.363 56.2911 37.363 56.2911Z" fill="#F7BCC0"/>
<path d="M37.7767 56.8818L37.0087 70.7637H35.591L37.3632 56.8818H37.7767Z" fill="#F7BCC0"/>
<path d="M37.7764 56.2911C37.7764 56.2911 42.0296 60.1899 39.5486 60.8987C37.1267 61.6667 37.7764 56.2911 37.7764 56.2911Z" fill="#F7BCC0"/>
<path d="M37.1265 56.2911L38.1898 76.1392H40.2573L37.7172 56.2911H37.1265Z" fill="#F7BCC0"/>
<path d="M64.4768 40.519C64.2996 41.0506 63.9452 42.0548 63.827 42.4683C63.4726 43.3544 63.3545 43.4726 63.2363 43.4135C63.1182 43.3544 63.0591 43.2363 63.2954 42.2911C63.4135 41.8185 63.7089 40.8143 63.8861 40.2827C64.4177 38.6287 65.0085 37.3291 65.1857 37.3882C65.3038 37.4472 65.0085 38.865 64.4768 40.519Z" fill="#E46341"/>
<path d="M64.7722 37.9198C64.7722 37.9198 64.8903 38.038 65.1266 38.038L65.3038 37.1519L65.0675 37.0928L64.7722 37.9198Z" fill="#FAC46A"/>
<path d="M65.7763 35.4979C65.7763 35.4979 64.3586 37.0337 65.1856 37.3291C66.0126 37.5654 65.7763 35.4979 65.7763 35.4979Z" fill="#56C7AB"/>
<path d="M37.7172 28.4092C39.0168 27.2278 40.0801 26.8143 40.4345 25.1012C40.789 23.5063 41.9704 21.2025 45.2784 20.9662C50.4177 20.5527 50.713 26.0464 49.4725 28.7046C48.232 31.3628 49.3544 33.194 48.232 34.3164C45.9873 36.5611 40.4345 35.4388 37.8354 32.8396C36.4177 31.4219 36.2995 29.7088 37.7172 28.4092Z" fill="white"/>
</svg>
