<svg width="55" height="55" viewBox="0 0 55 55" fill="none" xmlns="http://www.w3.org/2000/svg">
<circle cx="27.5" cy="27.5" r="27.5" fill="#972472"/>
<path d="M6.74586 35.922C6.74586 35.922 1.00551 30.2225 5.77524 24.0514C10.0073 18.5772 14.9403 18.9514 18.5602 21.1733C20.1022 22.1203 24.5472 21.2904 28.3303 15.7186C33.4904 8.12177 51.3751 12.7288 48.1137 24.4185C46.5362 30.0754 52.9171 30.2811 49.6646 35.9344L6.74586 35.922Z" fill="#FCBBA7"/>
<path d="M36.0616 25.2821C36.0616 25.2821 36.4715 25.0516 36.5904 25.048C36.7075 25.0445 37.1014 25.103 37.0677 25.1917C37.034 25.2803 36.6685 25.3601 36.6241 25.4222C36.5797 25.4843 36.8796 25.4931 36.8069 25.5375C36.7324 25.5818 36.1557 25.6031 36.1024 25.5907C36.0474 25.58 36.0616 25.2821 36.0616 25.2821Z" fill="#F4D7A9"/>
<path d="M25.3262 22.8349C25.3262 22.8349 25.0937 22.4253 24.9943 22.3615C24.895 22.2976 24.5277 22.1469 24.5099 22.2391C24.4922 22.3331 24.7672 22.5884 24.7725 22.6647C24.7779 22.7409 24.5152 22.5955 24.5561 22.67C24.5969 22.7463 25.0813 23.0601 25.1328 23.0779C25.186 23.0974 25.3262 22.8349 25.3262 22.8349Z" fill="#F4D7A9"/>
<path d="M32.589 20.026C32.6955 19.737 32.605 19.4266 32.2643 19.3894C31.9591 19.3557 31.6858 19.2528 31.5793 19.5419C31.4729 19.8309 31.5847 20.2512 31.8721 20.3558C32.1631 20.4622 32.4843 20.3151 32.589 20.026Z" fill="#C8D9E8"/>
<path d="M31.4516 21.6575C31.4516 21.6575 32.9546 21.0563 32.1969 19.9622C32.1969 19.9622 31.9218 19.7689 31.7568 19.7405C31.7568 19.7405 31.2617 19.3734 30.7968 19.6323C30.3337 19.8895 30.0924 20.1111 30.2467 20.5491C30.4011 20.9871 31.4516 21.6575 31.4516 21.6575Z" fill="#C8D9E8"/>
<path d="M30.5306 21.3081C30.5306 21.3081 30.4881 21.4659 30.4384 21.6805C30.4135 21.7851 30.3869 21.9039 30.3638 22.0263C30.3461 22.1132 30.3301 22.2019 30.3159 22.287L30.0267 23.585L31.6148 23.5567L31.5421 22.5707C31.5421 22.5707 31.4072 22.3402 31.464 21.3808C31.464 21.3702 31.4658 21.3649 31.4658 21.3649L30.5306 21.3081Z" fill="#F4D7A9"/>
<path d="M30.4401 21.6805C30.4153 21.7851 30.3567 22.076 30.3337 22.1965C31.3274 22.177 31.4569 21.4748 31.4658 21.3773C31.4658 21.3666 31.4675 21.3613 31.4675 21.3613C31.4675 21.3613 30.8855 21.5191 30.4401 21.6805Z" fill="#E8945B"/>
<path d="M30.2095 21.7284C30.2095 21.7284 31.2014 22.1292 31.4409 21.5085C31.6805 20.8878 31.9715 20.5208 31.3487 20.2388C30.7258 19.9568 30.5093 20.1448 30.3798 20.3328C30.2503 20.5208 29.9575 21.6078 30.2095 21.7284Z" fill="#F4D7A9"/>
<path d="M30.7755 19.9214C30.7755 19.9214 30.4543 20.9871 31.7195 21.3258C31.7195 21.3258 32.2253 19.87 30.7755 19.9214Z" fill="#C8D9E8"/>
<path d="M30.9725 20.1111C30.9725 20.1111 30.4739 20.5172 30.268 20.5952C30.2662 20.5952 30.087 19.799 30.9725 20.1111Z" fill="#C8D9E8"/>
<path d="M30.6903 34.6434C30.7187 35.0229 30.74 35.2871 30.74 35.2871H30.0285C30.0285 35.2871 29.9522 35.0353 29.8386 34.6523C29.6452 33.9979 29.3471 32.9659 29.1501 32.1697C28.836 30.9106 29.0135 27.3143 29.0135 27.3143C29.0135 27.3143 30.2663 27.4048 30.8944 27.4775C31.5208 27.5502 30.6229 31.7582 30.5573 31.9249C30.5076 32.0455 30.6211 33.7018 30.6903 34.6434Z" fill="#F4D7A9"/>
<path d="M34.5906 32.8524C34.5853 32.8648 34.5817 32.8701 34.5817 32.8701C34.5817 32.8701 34.5622 32.8683 34.5249 32.863C34.4007 32.8471 34.0902 32.8045 33.7016 32.7407C32.8481 32.5988 31.629 32.3541 31.2457 32.0562C30.6371 31.5827 29.8049 27.3462 29.8049 27.3462C29.8049 27.3462 30.2325 26.7398 31.5634 26.9668C32.8924 27.1937 31.9609 31.1252 32.3743 31.1394C32.6476 31.15 33.5064 31.5667 34.1079 31.8753C34.4202 32.0349 34.6616 32.1661 34.7183 32.1963C34.8656 32.2796 34.6403 32.7531 34.5906 32.8524Z" fill="#F4D7A9"/>
<path d="M29.0117 27.3161C29.0117 27.3161 28.4279 30.2119 28.522 31.432C28.616 32.6538 28.962 33.0953 28.962 33.0953C28.962 33.0953 30.119 33.6628 32.605 31.8682C32.605 31.8682 33.4532 31.2901 33.9199 31.1411C33.9962 31.1163 34.0228 31.0205 33.9713 30.9603C33.6643 30.602 32.9137 29.6799 32.9031 29.2029C32.8889 28.6053 32.2093 26.4507 31.5545 26.5021C30.898 26.5536 29.0117 27.3161 29.0117 27.3161Z" fill="#2B478B"/>
<path d="M30.74 35.2871H30.0285C30.0285 35.2871 29.9522 35.0353 29.8386 34.6523C30.0427 34.7019 30.3674 34.7463 30.6903 34.6416C30.7187 35.0229 30.74 35.2871 30.74 35.2871Z" fill="#739AF0"/>
<path d="M30.7418 35.2215C30.7418 35.2215 30.339 35.312 29.993 35.2215C29.993 35.2215 29.6665 35.4999 29.4695 35.585C29.2726 35.6702 29.0543 35.6241 29.033 35.8706H30.8358C30.8341 35.8688 30.8731 35.5088 30.7418 35.2215Z" fill="#2B478B"/>
<path d="M34.5906 32.8524C34.5693 32.8559 34.5462 32.8595 34.5249 32.863C34.4007 32.8471 34.0902 32.8045 33.7016 32.7407C34.1328 32.4002 34.1079 31.8771 34.1079 31.8771C34.4202 32.0367 34.6616 32.1679 34.7183 32.198C34.8656 32.2796 34.6403 32.7531 34.5906 32.8524Z" fill="#739AF0"/>
<path d="M34.7183 32.1998C34.7183 32.1998 34.5853 32.5899 34.3244 32.8364C34.3244 32.8364 34.3901 33.2602 34.3581 33.473C34.3262 33.6858 34.1736 33.8472 34.3723 33.9926L35.3199 32.4605C35.3199 32.4605 35.0324 32.2388 34.7183 32.1998Z" fill="#2B478B"/>
<path d="M36.3242 25.3974C36.3118 25.3424 36.2195 25.197 36.2195 25.197C36.2195 25.197 34.2197 25.1881 33.895 25.1757C33.5703 25.1633 33.0717 23.3687 32.7505 23.0938C32.4293 22.819 31.5421 22.5672 31.5421 22.5672L31.535 22.7569L30.103 22.8261L30.2893 22.4111C30.2893 22.4111 29.8847 22.3047 29.2938 22.4448C28.703 22.5831 27.5336 23.7376 27.0545 23.5815C26.5754 23.4255 25.2996 22.7392 25.2996 22.7392C25.2996 22.7392 25.1753 22.7817 25.115 22.8491C25.0636 22.9076 25.0316 23.0938 25.0316 23.0938C25.0316 23.0938 25.3599 23.5762 25.7946 24.0355C26.146 24.4079 26.5683 24.7661 26.9427 24.8423C27.475 24.9505 28.2682 24.7661 28.7952 24.6118C28.8112 24.6065 28.8289 24.6012 28.8449 24.5976C28.7047 25.2857 28.632 26.206 28.742 27.4048C28.742 27.4048 28.8857 28.1513 30.2343 27.9634C30.9459 27.8641 31.4888 27.747 31.8562 27.6264C32.1844 27.52 32.3707 27.4119 32.4133 27.3143C32.447 27.2345 32.3778 26.5323 32.2802 25.7024C32.6653 26.128 33.1621 26.5021 33.7264 26.5004C34.7698 26.5004 36.2816 25.651 36.2816 25.651C36.2816 25.651 36.3597 25.5587 36.3242 25.3974Z" fill="#F99746"/>
<path d="M30.2893 22.4129C30.2893 22.4129 30.2929 22.6186 30.5147 22.6576C30.7383 22.6966 31.5421 22.5689 31.5421 22.5689V22.9644L29.4394 23.0194L30.2893 22.4129Z" fill="#F99746"/>
<path d="M32.4116 27.3161C32.369 27.4136 32.1827 27.5218 31.8544 27.6282C31.2954 26.6068 32.2696 25.6988 32.2696 25.6988C32.3938 26.7149 32.4506 27.2221 32.4116 27.3161Z" fill="#ED7D2B"/>
<path d="M28.7952 24.6136C28.27 24.7696 27.475 24.9523 26.9427 24.8441C26.5683 24.7679 26.146 24.4096 25.7946 24.0372C25.7946 24.0372 26.8486 24.6153 27.5176 24.5568C28.1866 24.4965 28.7952 24.6136 28.7952 24.6136Z" fill="#ED7D2B"/>
<path d="M30.2432 21.3258C30.2432 21.3258 30.2538 21.4322 30.3319 21.473C30.41 21.5156 30.5768 21.4358 30.5768 21.4358C30.5768 21.4358 30.4206 21.3188 30.2432 21.3258Z" fill="white"/>
<path d="M19.7579 22.553C19.7579 22.553 19.2522 22.7764 18.9896 22.3597C18.727 21.943 18.0722 21.9288 18.1556 21.4358C18.239 20.9428 17.9604 20.2459 18.3508 20.065C18.7412 19.8841 19.1422 19.494 19.4918 19.4674C19.8413 19.439 19.9407 19.7884 20.3648 19.76C20.7889 19.7316 20.9007 20.0171 20.9557 20.2087C21.0107 20.4002 21.3319 20.5935 21.2485 21.0403C21.1651 21.4854 21.2343 21.8295 21.0533 22.0582C20.8723 22.2852 19.7579 22.553 19.7579 22.553Z" fill="#C8D9E8"/>
<path d="M18.6862 32.331L20.3382 35.6063L20.9362 35.5762C20.9362 35.5762 20.4482 31.4834 19.8484 31.2404C19.2504 30.9957 18.6862 32.331 18.6862 32.331Z" fill="#F4D7A9"/>
<path d="M20.1891 31.9781L21.8199 35.3226L22.4604 35.2659C22.4604 35.2659 21.9529 31.1323 21.3532 30.8875C20.7534 30.6428 20.1891 31.9781 20.1891 31.9781Z" fill="#F4D7A9"/>
<path d="M22.3149 33.2159C22.1393 33.3471 21.9139 33.4429 21.6602 33.5138C20.5334 33.8241 18.8849 33.6131 18.931 33.6131C18.9878 33.6131 18.129 31.9214 18.0917 31.0649C18.0527 30.2084 19.7775 28.13 19.7775 28.13L23.227 27.403L23.3033 27.387C24.3839 28.9777 22.7284 30.5613 22.1073 31.0578C22.1073 31.0578 22.1073 31.0578 22.1055 31.0596C22.0009 31.1429 21.9263 31.1961 21.8997 31.2121C21.7098 31.3273 22.3149 33.2159 22.3149 33.2159Z" fill="#C65447"/>
<path d="M20.8918 35.2215C20.8918 35.2215 20.489 35.312 20.143 35.2215C20.143 35.2215 19.8165 35.4999 19.6195 35.5851C19.4226 35.6702 19.2043 35.6241 19.183 35.8706H20.9859C20.9841 35.8688 21.0231 35.5088 20.8918 35.2215Z" fill="#1F3C75"/>
<path d="M22.4604 35.1967C22.4604 35.1967 22.1162 35.312 21.7702 35.2215C21.7702 35.2215 21.4029 35.4999 21.2059 35.585C21.0089 35.6702 20.7907 35.6241 20.7694 35.8705H22.5722C22.5722 35.8688 22.5917 35.484 22.4604 35.1967Z" fill="#2B478B"/>
<path d="M22.3149 33.2159C22.1393 33.3471 21.9139 33.4429 21.6602 33.5138C21.4472 33.2301 21.4774 32.8045 21.2609 32.2814C21.0001 31.6501 21.8749 31.2227 21.8997 31.2121C21.7098 31.3273 22.3149 33.2159 22.3149 33.2159Z" fill="#B2443B"/>
<path d="M22.1073 31.056C22.1233 31.0418 22.267 30.9053 22.6113 30.3591C22.9768 29.7757 22.3824 28.0662 22.3824 28.0662L23.2252 27.4012L23.3015 27.3853C24.3839 28.9759 22.7284 30.5595 22.1073 31.056Z" fill="#B2443B"/>
<path d="M17.4121 25.4382C17.4121 25.4382 17.1069 25.2502 17.1069 25.1261C17.1051 25.0019 17.0235 24.626 16.9312 24.516C16.839 24.4043 16.5249 24.2234 16.5196 24.3015C16.5142 24.3795 16.7094 24.5941 16.6704 24.7164C16.6331 24.837 16.6385 25.0427 16.5941 25.0019C16.5497 24.9611 16.2658 24.6987 16.264 24.7998C16.2623 24.9008 16.5089 25.1225 16.5338 25.2431C16.5586 25.3637 16.8549 25.4399 16.9543 25.5428C17.0537 25.6456 17.4387 25.9808 17.4387 25.9808L17.4121 25.4382Z" fill="#F4D7A9"/>
<path d="M20.4659 26.5021L19.5716 22.9857C19.5734 22.9803 19.0357 23.3492 19.0233 23.6914C19.0144 23.961 19.2221 25.2626 19.3516 25.8638C18.5371 25.5392 17.3589 25.2005 17.3589 25.2005C16.9916 25.2307 17.0537 25.784 17.0537 25.784C17.0537 25.784 19.073 27.4597 19.82 27.3853C20.0951 27.3569 20.0827 26.7149 20.104 26.378L20.4659 26.5021Z" fill="#4A82D3"/>
<path d="M19.3232 21.9589C19.3232 21.9589 19.3587 22.1185 19.4137 22.3313C19.4403 22.4359 19.4723 22.553 19.506 22.6718C19.5308 22.7569 19.5574 22.842 19.584 22.9236L20.1111 24.1241L20.8013 22.6115C20.8013 22.6115 20.576 22.4696 20.1838 21.5901C20.1803 21.5812 20.1767 21.5759 20.1767 21.5759L19.3232 21.9589Z" fill="#F4D7A9"/>
<path d="M23.2536 27.88C23.2536 27.88 22.9537 27.9527 22.3841 28.0662C22.2865 28.0857 22.1818 28.1052 22.0683 28.1283C22.0257 28.1354 21.9831 28.1442 21.9405 28.1531C21.8145 28.1762 21.6779 28.201 21.5342 28.2276C20.2016 28.4634 19.6426 28.3375 19.6426 28.3375C19.6426 28.3375 19.6036 28.3162 19.5965 28.1744C19.5627 27.4455 19.9655 27.2416 19.9017 26.6015C19.8129 25.7024 19.7295 25.5162 19.4119 24.8033C19.1351 24.1809 18.6667 23.5407 19.2309 23.1595C19.2433 23.1524 19.254 23.1435 19.2664 23.1364C19.3587 23.0761 19.474 22.9892 19.584 22.9325C19.6408 23.03 19.7792 23.1861 20.0791 23.1169C20.2637 23.0743 20.3967 23.0052 20.4997 22.9289C20.505 22.9254 20.5103 22.9218 20.5156 22.9165C20.631 22.8278 20.7037 22.7303 20.7658 22.6558C20.7765 22.6416 20.7871 22.6292 20.7978 22.6168C20.7978 22.6168 20.7978 22.6168 20.7978 22.615C20.7978 22.615 20.7978 22.615 20.7995 22.615C20.8066 22.615 20.8208 22.615 20.8404 22.6186C20.9184 22.6275 21.0746 22.6505 21.0746 22.6505C21.1189 22.7303 21.0533 22.7587 21.0888 22.8456C21.2094 23.147 22.4888 23.9486 22.5083 23.9734C22.5988 24.0887 22.7071 24.1915 22.7532 24.3227C23.266 25.7396 23.2536 27.88 23.2536 27.88Z" fill="#739AF0"/>
<path d="M19.4119 22.3331C19.4385 22.4377 19.5202 22.7232 19.5556 22.8403C20.4287 22.3668 20.2211 21.6841 20.1838 21.5918C20.1803 21.583 20.1767 21.5777 20.1767 21.5777C20.1767 21.5777 19.7349 21.9837 19.4119 22.3331Z" fill="#E8945B"/>
<path d="M19.2309 22.4803C19.2309 22.4803 20.2956 22.3792 20.2228 21.7177C20.1501 21.0563 20.2388 20.597 19.5556 20.6325C18.8725 20.6679 18.7678 20.9357 18.7394 21.1627C18.7092 21.3897 18.9523 22.4891 19.2309 22.4803Z" fill="#F4D7A9"/>
<path d="M19.0641 22.0884C19.0641 22.0884 19.1227 22.177 19.2114 22.177C19.3001 22.177 19.4102 22.0298 19.4102 22.0298C19.4102 22.0298 19.2185 21.9979 19.0641 22.0884Z" fill="white"/>
<path d="M23.5712 27.7843C23.5712 27.7843 22.9519 27.9527 22.3824 28.0662C21.4951 26.5287 22.4995 25.3193 22.8792 24.7164C22.8898 24.7288 23.5712 27.7843 23.5712 27.7843Z" fill="#4A82D3"/>
<path d="M23.7895 27.1264C23.7895 27.1264 23.6937 27.2718 23.5216 27.3533C23.3512 27.4349 23.0549 27.7275 23.117 27.7506C23.1791 27.7736 23.4311 27.5785 23.3849 27.6654C23.3388 27.7523 22.8632 27.9368 23.0283 28.0201C23.1951 28.1035 23.5588 28.0591 23.6742 27.9563C23.7895 27.8534 24.0716 27.364 24.0716 27.364L23.7895 27.1264Z" fill="#F4D7A9"/>
<path d="M24.0823 27.4509C24.0823 27.4509 23.8942 27.5023 23.7274 27.3498C23.6422 27.2718 23.6014 27.1264 23.6014 27.1264C23.6014 27.1264 23.8001 25.9542 23.9723 25.0977C23.4754 24.9487 22.8331 24.7022 22.2759 24.4203C22.2652 24.415 22.2546 24.4096 22.2439 24.4043C21.7187 24.1348 21.2733 23.8369 21.1012 23.562C20.8723 23.1949 20.6505 23.0052 20.5174 22.9147C20.6327 22.8261 20.7055 22.7285 20.7676 22.6541C20.7782 22.6399 20.7889 22.6275 20.7995 22.615C20.7995 22.615 20.8013 22.615 20.8013 22.6133C20.8155 22.6062 20.8279 22.6009 20.8421 22.5938C21.181 22.4342 21.6442 22.2657 21.9884 22.3295C22.6042 22.443 25.1398 24.4345 25.1008 24.6863C25.1026 24.6863 25.1682 26.0854 24.0823 27.4509Z" fill="#739AF0"/>
<path d="M19.1333 20.7034C19.1333 20.7034 19.254 21.0226 19.4829 21.0386C19.71 21.0545 19.7899 21.0368 19.9922 21.2106C20.1945 21.3861 20.2211 21.5032 20.3577 21.4198C20.4943 21.3365 20.159 20.1785 19.5539 20.3026C18.9488 20.4285 18.3011 21.0847 18.3952 21.356C18.4892 21.6273 18.8618 21.8756 18.8618 21.8756C18.8618 21.8756 18.7607 21.4819 18.8867 21.3152C19.0109 21.1503 18.963 20.7158 19.1333 20.7034Z" fill="#C8D9E8"/>
<path d="M38.7854 26.0943C38.7854 26.0943 38.214 26.0464 37.978 26.1564C37.742 26.2681 37.4279 26.3159 37.5184 26.4135C37.6089 26.511 38.1732 26.527 38.395 26.6032C38.6186 26.6795 39.0001 26.5039 39.0001 26.5039L38.7854 26.0943Z" fill="#F4D7A9"/>
<path d="M39.174 33.5032L38.0685 23.7642C38.0685 23.7642 37.9177 23.0708 37.3037 23.1346C36.649 23.202 36.6844 23.9078 36.6844 23.9078C36.6844 23.9078 36.7004 23.9681 36.7678 23.961C36.8388 23.9539 36.8441 23.8918 36.8441 23.8918C36.8441 23.8918 36.8175 23.3474 37.3215 23.296C37.7935 23.2463 37.9106 23.7819 37.9106 23.7819L38.9238 33.5298L39.174 33.5032Z" fill="#233862"/>
<path d="M38.8404 33.5369L39.2468 33.4943L39.1669 33.0723C39.1669 33.0723 39.1634 33.0137 39.0817 33.0173C39.0054 33.0226 38.8528 33.0262 38.844 33.074C38.8351 33.1184 38.8404 33.5369 38.8404 33.5369Z" fill="#233862"/>
<path d="M38.5317 26.3514C38.5317 26.3514 38.2229 26.5837 38.0667 26.6405C37.9106 26.6972 38.2868 26.7327 38.427 26.6759C38.5671 26.6192 38.8262 26.6724 39.0001 26.5021C39.174 26.3319 38.5317 26.3514 38.5317 26.3514Z" fill="#F4D7A9"/>
<path d="M50.0798 22.4519C50.0798 22.4519 50.676 22.0316 50.7576 21.9518C50.8393 21.8703 51.1445 21.3773 51.1622 21.4943C51.18 21.6114 50.9457 22.1948 50.8747 22.3029C50.802 22.4111 51.1729 22.2586 51.164 22.3473C51.1533 22.4377 50.786 22.6434 50.6778 22.6611C50.5695 22.6789 50.2821 22.7871 50.2821 22.7871L50.0798 22.4519Z" fill="#F4D7A9"/>
<path d="M42.1302 34.9786C42.1302 34.9786 41.9812 35.9237 41.802 35.8971C41.7789 35.8936 40.9094 35.6968 40.9094 35.6968L39.7897 35.4432C39.7897 35.4432 39.8714 35.1736 40.2067 35.1914C40.5439 35.2091 41.1383 35.1027 41.4311 34.7197C41.7416 34.3154 42.1302 34.9786 42.1302 34.9786Z" fill="#163560"/>
<path d="M44.4832 30.4052C44.3465 30.6535 44.256 30.8326 44.2489 30.9088C44.091 32.4144 42.1959 35.1896 42.1959 35.1896C41.6387 35.3598 40.9857 34.975 40.9857 34.975C41.5234 33.7745 42.4479 30.1002 43.0192 27.7222C43.3174 26.4826 43.5196 25.5942 43.5196 25.5942C43.5196 25.5942 44.9499 25.7254 45.2497 25.7786C47.0597 26.0978 45.177 29.1426 44.4832 30.4052Z" fill="#2B478B"/>
<path d="M44.4832 30.4052L43.0175 27.7204C43.3156 26.4809 43.5179 25.5924 43.5179 25.5924C43.5179 25.5924 44.9481 25.7237 45.248 25.7769C47.0597 26.0978 45.177 29.1426 44.4832 30.4052Z" fill="#233862"/>
<path d="M46.8059 34.8988C46.8059 34.8988 46.8698 35.8528 46.6888 35.867C46.664 35.8688 45.775 35.8688 45.775 35.8688H44.6269C44.6269 35.8688 44.6464 35.5886 44.9782 35.5301C45.3101 35.4716 45.8672 35.2393 46.0678 34.7995C46.2789 34.3384 46.8059 34.8988 46.8059 34.8988Z" fill="#163560"/>
<path d="M46.8592 35.2428C46.2736 35.3971 45.6099 35.335 45.6099 35.335C45.1078 31.0666 44.3554 28.0396 43.9544 26.6263C43.9118 26.4791 43.8745 26.3496 43.8408 26.2361C43.7397 25.8992 43.6811 25.7254 43.6811 25.7254C43.6811 25.7254 44.9197 25.1012 46.034 25.2112C46.2629 25.2342 46.4209 25.424 46.5291 25.7166C46.5611 25.8035 46.5894 25.8992 46.6143 26.0038C46.9053 27.2469 46.6515 29.5558 46.8592 30.0222C47.1413 30.657 46.8592 35.2428 46.8592 35.2428Z" fill="#2B478B"/>
<path d="M43.9916 20.5243L43.4256 21.9607L42.7442 20.9286C42.7424 20.8825 42.7353 20.8364 42.7265 20.7921C42.6963 20.6449 42.6324 20.5048 42.5632 20.3878C42.4461 20.1874 42.3148 20.0526 42.3148 20.0526L43.1896 19.4905C43.273 19.6696 43.3759 19.8327 43.4788 19.971V19.9728C43.7326 20.3168 43.9916 20.5243 43.9916 20.5243Z" fill="#F4D7A9"/>
<path d="M43.4788 19.971C43.4629 20.0065 43.1399 20.6892 42.7265 20.7921C42.6963 20.6449 42.6324 20.5048 42.5632 20.3878C42.7442 20.1962 43.0796 20.003 43.4788 19.971C43.4771 19.971 43.4788 19.971 43.4788 19.971Z" fill="#E8945B"/>
<path d="M50.3158 22.4608C50.2075 22.3437 50.0035 22.287 50.0035 22.287L47.7695 22.5512C47.7091 22.5583 47.6506 22.537 47.608 22.4945C47.2797 22.1735 45.8619 20.7885 45.5656 20.5952C45.0386 20.253 44.02 20.5066 44.02 20.5066C44.02 20.5066 44.0112 20.5084 43.9881 20.5119C43.8852 20.6626 43.635 20.9659 43.2269 21.0953C42.95 21.1822 42.8045 21.0208 42.7442 20.9215C42.7442 20.9215 42.0859 21.1698 41.7576 21.9181C41.495 22.5157 41.0372 23.8741 40.7604 24.7182L38.6772 25.9843C38.6772 25.9843 38.663 26.3301 38.9877 26.6334C38.9877 26.6334 38.993 26.6316 39.0037 26.6298C39.1971 26.5802 41.1632 26.0659 41.4205 25.7396C41.6724 25.5978 42.258 24.7466 42.7123 24.0426C42.872 24.3192 42.9997 24.5497 43.037 24.6402C43.1683 24.9576 43.0973 25.6492 43.1896 26.4099C43.2073 26.5571 43.2446 26.5784 43.2446 26.5784C43.2446 26.5784 43.7769 26.6848 45.0049 26.3762C45.0918 26.355 45.1752 26.3337 45.2568 26.3124C45.5745 26.2308 45.8477 26.1546 46.0678 26.0925C46.1299 26.0748 46.1866 26.0588 46.2399 26.0429C46.5238 25.9595 47.1431 25.7219 46.3428 23.8794C46.3179 23.8227 46.2789 23.6861 46.2328 23.5123C46.4102 23.5833 46.6036 23.6436 46.8095 23.6914C47.0632 23.75 47.5547 23.8883 47.7393 23.8688C48.4775 23.7925 50.5145 22.8119 50.5145 22.8119C50.5145 22.8119 50.4311 22.5867 50.3158 22.4608Z" fill="#C65447"/>
<path d="M46.2363 26.05C46.1831 26.0659 46.1263 26.0819 46.0642 26.0996C45.358 25.3229 46.2275 23.5177 46.2275 23.5177C46.2736 23.6932 46.3126 23.828 46.3375 23.8847C47.1395 25.729 46.5202 25.9666 46.2363 26.05Z" fill="#B2443B"/>
<path d="M42.3361 20.5172C42.3361 20.5172 43.5285 20.5048 43.509 19.7636C43.4895 19.0223 43.6314 18.5205 42.8702 18.4974C42.1089 18.4726 41.967 18.7599 41.9138 19.0099C41.8605 19.2582 42.0256 20.5013 42.3361 20.5172Z" fill="#F4D7A9"/>
<path d="M42.7087 24.0497C42.2545 24.7519 41.6689 25.6048 41.4169 25.7467C41.1596 26.073 39.1953 26.5873 39.0001 26.6369C39.2929 26.2202 40.9697 25.7786 41.3832 25.3459C41.8321 24.876 42.7087 24.0497 42.7087 24.0497Z" fill="#B2443B"/>
<path d="M42.7123 24.0461C42.7123 24.0479 42.7105 24.0479 42.7105 24.0496C42.7105 24.0479 42.7105 24.0461 42.7123 24.0461Z" fill="#B2443B"/>
<path d="M41.9049 19.1766C41.9049 19.1766 41.3104 18.5081 41.8233 18.0381C42.3343 17.5682 43.131 17.8821 43.5108 17.9956C43.8905 18.1108 43.8089 19.2351 43.5108 19.7618C43.5108 19.7618 43.3174 19.4249 43.3688 19.2475C43.4203 19.0702 43.289 18.7776 43.1665 18.9141C43.0441 19.0507 42.1107 18.2793 41.9049 19.1766Z" fill="#C8D9E8"/>
<path d="M42.3414 19.854C42.3414 19.854 42.5668 19.7848 42.6856 19.9161C42.8045 20.0491 42.8666 20.0792 42.8666 20.0792C42.8666 20.0792 42.533 20.1253 42.3591 19.9959C42.3591 19.9959 42.1923 20.1626 42.0362 20.159C42.0344 20.1608 42.1427 19.8682 42.3414 19.854Z" fill="#C8D9E8"/>
<path d="M7.92233 34.8988C7.92233 34.8988 7.98621 35.8528 7.80522 35.867C7.78037 35.8688 6.89137 35.8688 6.89137 35.8688H5.7433C5.7433 35.8688 5.76282 35.5886 6.09464 35.5301C6.42647 35.4715 6.98364 35.2392 7.18416 34.7995C7.39532 34.3384 7.92233 34.8988 7.92233 34.8988Z" fill="#163560"/>
<path d="M10.5219 27.7825C10.5219 27.7825 8.5913 30.9195 8.58775 31.4781C8.5842 32.0367 10.1599 35.5301 10.1599 35.5301C10.1599 35.5301 11.056 35.4467 11.2512 35.0602C11.2512 35.0602 10.3888 31.4922 10.5432 31.4426C10.6958 31.3929 12.9227 29.3802 13.1144 28.6691C13.3078 27.9598 12.2165 26.4294 10.5219 27.7825Z" fill="#233862"/>
<path d="M11.3257 27.5484L6.7991 35.1293C6.7991 35.1293 7.32789 35.4574 7.99686 35.2428C7.99686 35.2428 10.6497 32.6289 10.6923 32.1342C10.7348 31.6394 14.9882 28.3198 13.0523 27.0891C11.1181 25.8567 11.3257 27.5484 11.3257 27.5484Z" fill="#2B478B"/>
<path d="M6.69263 24.149C6.69263 24.149 6.41049 23.8528 6.35194 23.734C6.29338 23.6152 6.00769 23.3439 5.95801 23.3793C5.9101 23.4148 6.11061 23.6861 6.08399 23.6932C6.0556 23.7003 5.56231 23.1914 5.486 23.2268C5.4097 23.2623 5.39551 23.7978 5.63861 24.0692C5.88171 24.3405 6.44598 24.5426 6.44598 24.5426L6.69263 24.149Z" fill="#F4D7A9"/>
<path d="M14.8196 25.7237C14.8196 25.7237 14.8161 26.1333 14.777 26.2592C14.738 26.3851 14.754 26.7788 14.8125 26.7876C14.8711 26.7965 14.9155 26.4614 14.9403 26.4755C14.9651 26.4897 14.9669 27.1991 15.0468 27.2274C15.1266 27.2558 15.5081 26.8799 15.5223 26.5163C15.5365 26.1528 15.2703 25.6155 15.2703 25.6155L14.8196 25.7237Z" fill="#F4D7A9"/>
<path d="M11.2352 21.9784C11.2352 21.9784 13.8827 22.3898 14.6972 23.6684C15.5117 24.9469 15.4265 26.0233 15.4265 26.0233C15.4265 26.0233 14.9243 26.1741 14.7735 26.1262C14.7735 26.1262 13.8366 24.266 13.7177 24.3068C13.5988 24.3493 12.071 24.2678 11.8527 24.0674C11.6327 23.8688 11.2352 21.9784 11.2352 21.9784Z" fill="#ED7D2B"/>
<path d="M11.1536 34.8988C11.1536 34.8988 11.2175 35.8528 11.0365 35.867C11.0116 35.8688 10.1226 35.8688 10.1226 35.8688H8.97458C8.97458 35.8688 8.9941 35.5886 9.32592 35.5301C9.65774 35.4715 10.2149 35.2392 10.4154 34.7995C10.6266 34.3384 11.1536 34.8988 11.1536 34.8988Z" fill="#163560"/>
<path d="M9.57967 21.5369C9.57967 21.5369 9.87778 21.7142 9.94166 22.1682L10.8537 23.3421L11.2707 21.8507C11.2707 21.8507 10.7508 21.5032 10.4048 20.9038L9.57967 21.5369Z" fill="#F4D7A9"/>
<path d="M9.5566 21.9749C9.5566 21.9749 10.6923 21.7053 10.5219 21.0262C10.3516 20.347 10.5272 19.8132 9.67017 19.9923C8.96571 20.1395 8.81843 20.4924 8.82021 20.7336C8.82376 20.973 9.13074 22.0564 9.5566 21.9749Z" fill="#F4D7A9"/>
<path d="M9.01362 21.434C9.01362 21.434 9.04201 22.3632 9.44658 22.3792C9.85293 22.3951 10.8094 22.0192 10.5059 20.957C10.5059 20.957 10.0765 21.411 9.82809 21.4748C9.57967 21.5369 9.37916 21.4393 9.18219 21.6167C9.18219 21.6149 9.09702 21.6326 9.01362 21.434Z" fill="#2B478B"/>
<path d="M10.1936 20.0686C10.1546 20.0047 10.0605 19.9923 10.0605 19.9923C9.35076 19.8966 8.97458 20.3292 8.97458 20.3292C9.21413 19.6997 10.1812 19.5437 10.5113 19.9551C11.0507 20.6289 10.5077 20.9552 10.5077 20.9552C10.5077 20.9552 9.84938 20.8754 10.1031 20.4693C10.1865 20.3346 10.2149 20.2282 10.2114 20.143C10.2078 20.1182 10.2025 20.0916 10.1936 20.0686Z" fill="#2B478B"/>
<path d="M9.57968 21.7195C9.57968 21.7195 9.57968 21.7993 9.38981 21.833C9.38981 21.833 9.23011 21.8614 9.21591 21.7763C9.21591 21.7763 9.35432 21.6805 9.57968 21.7195Z" fill="white"/>
<path d="M13.9573 26.8391C13.8011 28.7028 13.3752 28.2223 11.6185 28.1283C9.96118 28.0396 10.616 27.0004 10.5379 26.057C10.5326 26.0003 10.5255 25.9453 10.5148 25.8886C10.4598 25.6031 10.3746 25.275 10.293 24.9345C10.0943 24.0958 9.92392 23.179 10.3214 22.6416C10.8821 21.8844 11.1731 21.7745 11.1731 21.7745C12.6406 22.1824 14.1152 24.9736 13.9573 26.8391Z" fill="#F99746"/>
<path d="M12.1757 23.9255C12.1686 23.9574 11.6008 25.6137 10.5379 26.0553C10.5326 25.9985 10.5255 25.9436 10.5148 25.8868C10.4598 25.6013 10.3746 25.2732 10.293 24.9328C10.3427 24.892 10.3941 24.8565 10.4474 24.8317C10.9992 24.5728 12.1615 23.9486 12.1757 23.9255Z" fill="#ED7D2B"/>
<path d="M12.6246 23.6436C12.6246 23.6436 10.5645 25.6953 9.01362 25.6953C7.6952 25.6953 6.32177 24.5675 6.32177 24.5675C6.32177 24.5675 6.27031 24.1862 6.68909 23.9982C6.68909 23.9982 8.79181 24.3635 8.9178 24.4238C9.168 24.5426 10.859 22.4856 11.1607 22.3437C12.0816 21.911 12.6246 23.6436 12.6246 23.6436Z" fill="#F99746"/>
<path d="M52.2766 36H3.05501C3.02484 36 3 35.9752 3 35.9433V35.9238C3 35.8936 3.02484 35.867 3.05501 35.867H52.2766C52.3067 35.867 52.3316 35.8918 52.3316 35.9238V35.9433C52.3333 35.9734 52.3067 36 52.2766 36Z" fill="#2E3552"/>
</svg>
