<svg width="128" height="128" viewBox="0 0 128 128" fill="none" xmlns="http://www.w3.org/2000/svg">
<circle cx="64" cy="64" r="64" fill="#972472"/>
<path d="M64 107.899C92.1665 107.899 115 105.527 115 102.6C115 99.674 92.1665 97.3017 64 97.3017C35.8335 97.3017 13 99.674 13 102.6C13 105.527 35.8335 107.899 64 107.899Z" fill="#F2D4C9"/>
<path d="M72.2358 28.2738C77.7317 25.0205 79 18.6766 79 18.6766C79 18.6766 72.6585 26.1591 65.3659 18.6766C58.0732 11.194 53 14.9353 53 14.9353V32.8284C53 32.8284 55.8537 25.1831 65.3659 32.3404C76.3577 42.1002 79 29.2498 79 29.2498C79 29.2498 75.4065 32.991 72.2358 28.2738Z" fill="#E46341"/>
<path d="M89.5256 36.6214C89.5256 36.6214 88.9143 32.8512 96.9133 32.8512C104.912 32.8512 106.695 38.6593 106.695 46.1998C106.695 53.7403 107.001 61.026 98.7474 61.026C90.4937 61.026 88.0991 58.9371 88.0991 50.3776C88.0481 41.8182 89.5256 36.6214 89.5256 36.6214Z" fill="#0F63E7"/>
<path d="M73.2727 55.0649C73.2727 55.0649 70.3177 53.944 69.1968 53.6383C68.0759 53.3326 67.6683 55.2177 67.8212 56.5934C67.974 57.969 72.0499 57.2048 72.0499 57.2048L73.2727 55.0649Z" fill="#EDA370"/>
<path d="M34.0421 36.8252C34.0421 36.8252 26.6035 35.2458 23.6994 45.1299C20.7953 55.014 20.8972 63.013 34.9082 63.013C48.9192 63.013 45.1999 52.3137 44.9452 46.5055C44.6904 40.6973 40.8693 36.8252 34.0421 36.8252Z" fill="#FAC46A"/>
<path d="M106.339 34.889H84.9401C82.8512 34.889 81.1189 33.1568 81.1189 31.0679C81.1189 28.9789 82.8512 27.2467 84.9401 27.2467H106.339C108.428 27.2467 110.16 28.9789 110.16 31.0679C110.16 33.1568 108.428 34.889 106.339 34.889Z" fill="#56C7AB"/>
<path d="M109.062 33.7169C110.535 32.2445 110.535 29.8574 109.062 28.385C107.59 26.9127 105.203 26.9127 103.731 28.385C102.258 29.8574 102.258 32.2445 103.731 33.7169C105.203 35.1892 107.59 35.1892 109.062 33.7169Z" fill="#37BD9C"/>
<path d="M103.893 34.2267C102.568 32.7492 102.67 30.5074 104.148 29.1827C105.319 28.1128 107.154 28.2147 108.173 29.3865C109.039 30.3036 108.937 31.7811 108.02 32.6473C107.256 33.3096 106.084 33.2587 105.421 32.4944C104.861 31.883 104.912 30.9659 105.523 30.4055C105.982 29.947 106.746 29.9979 107.205 30.5074C107.561 30.915 107.51 31.4754 107.154 31.8321" stroke="#2FD3DD" stroke-width="0.5043" stroke-miterlimit="10" stroke-linecap="round" stroke-linejoin="round"/>
<path d="M86.5706 27.2977C86.5706 27.2977 83.4117 27.8072 83.4117 31.1188C83.4117 34.4305 86.5706 34.94 86.5706 34.94H87.3348C87.3348 34.94 83.9212 34.2777 83.9212 31.1188C83.9212 28.011 87.3348 27.2977 87.3348 27.2977H86.5706Z" fill="#FAC46A"/>
<path d="M102.161 27.2977C102.161 27.2977 99.0017 27.8072 99.0017 31.1188C99.0017 34.4305 102.161 34.94 102.161 34.94H102.925C102.925 34.94 99.5112 34.2777 99.5112 31.1188C99.5112 28.011 102.925 27.2977 102.925 27.2977H102.161Z" fill="#FAC46A"/>
<path d="M22.782 40.2897H44.1806C46.2695 40.2897 48.0018 38.5575 48.0018 36.4686C48.0018 34.3796 46.2695 32.6474 44.1806 32.6474H22.782C20.6931 32.6474 18.9608 34.3796 18.9608 36.4686C18.9608 38.6084 20.6931 40.2897 22.782 40.2897Z" fill="#0F63E7"/>
<path d="M26.3837 37.3398C26.8622 35.3133 25.6074 33.2827 23.5809 32.8042C21.5545 32.3257 19.5239 33.5805 19.0454 35.607C18.5669 37.6334 19.8217 39.6641 21.8481 40.1426C23.8746 40.6211 25.9052 39.3662 26.3837 37.3398Z" fill="#7CBCF4"/>
<path d="M25.2276 39.7292H25.1767C25.1257 39.6783 25.1257 39.6273 25.1767 39.6273C26.4504 38.2008 26.3485 35.959 24.922 34.6853C24.3615 34.1758 23.6482 33.9211 22.9349 33.972C22.1707 34.023 21.5084 34.3286 20.9989 34.8891C20.5913 35.3476 20.3875 35.9081 20.4384 36.4685C20.4894 37.0799 20.7441 37.5894 21.1517 37.997C21.5084 38.3027 21.916 38.4555 22.4254 38.4555C22.884 38.4555 23.3425 38.2517 23.6482 37.8951C23.903 37.6403 24.0049 37.2837 24.0049 36.8761C24.0049 36.5195 23.8011 36.1628 23.5463 35.9081C23.3425 35.7043 23.0368 35.6024 22.7821 35.6533C22.4764 35.6533 22.2217 35.8062 22.0179 36.01C21.7122 36.3666 21.7122 36.8761 22.0688 37.2327C22.1198 37.2837 22.1198 37.3346 22.0688 37.3346C22.0179 37.3856 21.9669 37.3856 21.9669 37.3346C21.5593 36.978 21.5084 36.3157 21.916 35.9081C22.1198 35.6533 22.4764 35.5005 22.7821 35.5005H22.833C23.1387 35.5005 23.4444 35.6024 23.6992 35.8062C24.0049 36.0609 24.2087 36.4685 24.2087 36.8761C24.2087 37.2837 24.1068 37.6913 23.8011 37.997C23.0878 38.7612 21.865 38.8631 21.1008 38.1498C20.6422 37.7422 20.3365 37.1308 20.3365 36.5194C20.2856 35.9081 20.5403 35.2967 20.9479 34.7872C21.4574 34.1758 22.2217 33.8701 22.9859 33.8192C23.0368 33.8192 23.0878 33.8192 23.1387 33.8192C23.852 33.8192 24.5653 34.0739 25.1257 34.5834C26.6033 35.959 26.7561 38.2517 25.3805 39.7802C25.2786 39.7292 25.2276 39.7292 25.2276 39.7292Z" fill="#0F63E7"/>
<path d="M42.5506 32.6983C42.5506 32.6983 45.7095 33.2078 45.7095 36.5194C45.7095 39.8311 42.5506 40.3406 42.5506 40.3406H41.7864C41.7864 40.3406 45.2 39.6783 45.2 36.5194C45.2 33.4116 41.7864 32.6983 41.7864 32.6983H42.5506Z" fill="#FAC46A"/>
<path d="M26.909 32.6983C26.909 32.6983 30.0679 33.2078 30.0679 36.5194C30.0679 39.8311 26.909 40.3406 26.909 40.3406H26.1448C26.1448 40.3406 29.5584 39.6783 29.5584 36.5194C29.5584 33.4116 26.1448 32.6983 26.1448 32.6983H26.909Z" fill="#FAC46A"/>
<path d="M37.048 28.3676C37.048 28.3676 34.3987 27.96 33.023 30.5075C31.6474 33.004 30.8832 34.1758 32.3098 35.0419C28.8962 35.8062 28.081 41.4615 34.9082 42.022C41.6844 42.5824 40.4616 35.7043 40.4616 35.7043C40.4616 35.7043 44.5885 28.3676 37.048 28.3676Z" fill="white"/>
<path d="M93.6524 34.5835C93.6524 34.5835 86.6215 34.4816 85.6025 40.2898C84.5835 46.098 84.8382 65.2548 84.8382 65.2548H102.67C102.67 65.2548 102.314 44.5185 101.906 40.1369C101.448 35.8062 93.6524 34.5835 93.6524 34.5835Z" fill="#EDA370"/>
<path d="M88.4555 59.1409L77.4505 73.6614C76.5843 74.7823 76.8391 76.3617 77.9599 77.2278C78.877 77.9411 80.1508 77.8901 81.0678 77.1769L94.8241 66.07L88.4555 59.1409Z" fill="#EDA370"/>
<path d="M76.6862 75.6483L77.6033 93.9391H79.845L81.3735 75.7502C81.4754 74.3746 80.4055 73.2028 79.0299 73.2028C77.7052 73.1518 76.6352 74.2727 76.6862 75.6483Z" fill="#EDA370"/>
<path d="M94.111 64.7453L97.066 82.4246C97.3717 83.8002 98.7473 84.6663 100.123 84.3097C101.244 84.0549 102.059 83.036 102.11 81.8641L102.721 64.6943H94.111V64.7453Z" fill="#EDA370"/>
<path d="M97.5754 82.1189L99.5624 100.308L101.804 100.155L102.263 81.9151C102.314 80.5395 101.142 79.4186 99.7662 79.5205C98.3906 79.5714 97.4226 80.7942 97.5754 82.1189Z" fill="#EDA370"/>
<path d="M101.651 100.002C101.651 100.002 97.6263 100.308 94.875 101.836C93.907 102.804 95.945 103.467 98.1358 102.804C100.378 102.142 101.855 102.906 102.11 101.429C102.314 100.511 101.651 100.002 101.651 100.002Z" fill="#EDA370"/>
<path d="M79.4885 92.5634C79.4885 92.5634 75.4636 92.8691 72.7123 94.3976C71.7443 95.3656 73.7822 96.028 75.973 95.3656C78.2148 94.7033 79.6923 95.4675 79.9471 93.99C80.1509 93.1239 79.4885 92.5634 79.4885 92.5634Z" fill="#EDA370"/>
<path d="M40.2579 100.257C40.2579 100.257 43.9262 100.512 46.3717 101.887C47.2379 102.753 45.4037 103.365 43.4167 102.753C41.3787 102.142 40.0541 102.855 39.7993 101.531C39.6465 100.766 40.2579 100.257 40.2579 100.257Z" fill="#EDA370"/>
<path d="M25.3808 100.257C25.3808 100.257 29.0492 100.512 31.4947 101.887C32.3609 102.753 30.5267 103.365 28.5397 102.753C26.5017 102.142 25.177 102.855 24.9223 101.531C24.8204 100.766 25.3808 100.257 25.3808 100.257Z" fill="#EDA370"/>
<path d="M87.6914 37.2837C89.5766 36.6214 91.5126 37.8951 91.6655 39.8821C91.8183 41.9201 91.6145 44.7732 90.3917 48.5944C87.5386 57.1538 87.4876 57.7652 84.5326 55.9311C83.2589 55.1668 84.5835 44.2637 85.8063 39.3726C86.0611 38.4046 86.7744 37.6403 87.6914 37.2837Z" fill="#EDA370"/>
<path d="M70.98 55.6763L71.0819 57.1029C71.0819 57.1029 88.2008 59.1918 87.8441 54.963C87.5384 50.8361 70.98 55.6763 70.98 55.6763Z" fill="#EDA370"/>
<path d="M35.0098 40.2387C35.0098 40.2387 42.1936 40.8501 43.1107 46.1488C44.0278 51.4475 43.1107 68.3626 43.1107 68.3626H26.7051C26.7051 68.3626 27.0108 49.3586 27.4184 45.3336C27.826 41.4106 35.0098 40.2387 35.0098 40.2387Z" fill="#EDA370"/>
<path d="M43.06 66.7323V83.4436C43.06 84.7173 42.041 85.7872 40.7163 85.7872C39.6464 85.7872 38.7293 85.0739 38.4746 84.004L34.5515 68.2607L43.06 66.7323Z" fill="#EDA370"/>
<path d="M43.0599 84.7173L42.2447 101.48H40.2068L38.7802 84.7683C38.6783 83.4945 39.6463 82.4246 40.9201 82.4246C42.1428 82.4246 43.1618 83.4945 43.0599 84.7173Z" fill="#EDA370"/>
<path d="M34.5512 67.9041L31.8509 84.1569C31.5452 85.4306 30.3225 86.1949 29.0487 85.8892C28.0298 85.6344 27.2655 84.7173 27.2655 83.6474L26.7051 67.9041H34.5512Z" fill="#EDA370"/>
<path d="M31.5966 85.3796L27.0621 101.53L25.0751 101.072L27.4187 84.5135C27.5716 83.2397 28.7944 82.4245 30.0171 82.7302C31.189 82.934 31.9022 84.1568 31.5966 85.3796Z" fill="#EDA370"/>
<path d="M33.4814 48.6454C32.4625 50.1739 30.3226 50.2758 29.0998 48.9511C27.8771 47.5755 26.3995 45.3337 25.2277 41.8182C22.5784 33.9721 22.3236 33.5135 25.4824 33.2078C26.8071 33.1059 31.8511 41.7673 33.6852 46.047C34.0419 46.9131 33.9909 47.8812 33.4814 48.6454Z" fill="#EDA370"/>
<path d="M25.3298 21.031H24.0051C24.0051 21.031 20.7953 36.5195 24.6674 36.5195C28.5396 36.5195 25.3298 21.031 25.3298 21.031Z" fill="#EDA370"/>
<path d="M37.4046 48.3396C38.3217 49.919 40.4616 50.1738 41.7353 48.9001C43.06 47.5754 44.5885 45.4355 46.015 42.0219C49.1229 34.3286 49.4286 33.921 46.2188 33.4115C44.8941 33.2077 39.3917 41.6143 37.3027 45.7412C36.8952 46.5564 36.9461 47.5244 37.4046 48.3396Z" fill="#EDA370"/>
<path d="M47.085 21.1838L48.4097 21.2347C48.4097 21.2347 50.7533 36.8761 46.8812 36.6723C43.0091 36.4685 47.085 21.1838 47.085 21.1838Z" fill="#EDA370"/>
<path d="M94.464 30.9766L89.0767 32.8586L91.2274 39.0155L96.6148 37.1336L94.464 30.9766Z" fill="#EDA370"/>
<path d="M89.7296 34.7872C89.7296 34.7872 92.8884 35.6024 94.264 31.7303C92.1751 32.5455 89.3729 33.7173 89.3729 33.7173L89.7296 34.7872Z" fill="#CE804A"/>
<path d="M32.1863 42.1731L37.186 43.3911L38.5729 37.6983L33.5732 36.4803L32.1863 42.1731Z" fill="#EDA370"/>
<path d="M33.7363 37.1818C33.7363 37.1818 33.7873 40.7992 37.8123 40.9011L38.2198 39.1688L33.7363 37.1818Z" fill="#CE804A"/>
<path d="M33.023 33.6663C33.1249 35.6533 33.3796 38.3027 35.8252 39.1179C36.7932 39.4235 37.8631 39.3726 38.7802 38.9141C41.1239 37.7422 40.971 34.991 40.8691 33.004C40.7163 30.4565 38.5764 28.5714 36.1818 29.0299C34.2457 29.3866 32.9211 31.4755 33.023 33.6663Z" fill="#EDA370"/>
<path d="M34.5514 34.8891C35.0609 35.7042 34.959 36.7232 34.3986 37.0799C33.7872 37.4365 32.8701 37.0799 32.3606 36.2137C31.8511 35.3985 31.953 34.3796 32.5135 34.0229C33.1758 33.6663 34.0419 34.0229 34.5514 34.8891Z" fill="#EDA370"/>
<path d="M53.3759 14.9232H52.4589V101H53.3759V14.9232Z" fill="#452A32"/>
<path d="M53.8342 14.9775C53.8342 14.4345 53.4266 14 52.9171 14C52.4076 14 52 14.4345 52 14.9775C52 15.5206 52.4076 15.9551 52.9171 15.9551C53.4266 15.9551 53.8342 15.5206 53.8342 14.9775Z" fill="#452A32"/>
<path d="M26.1961 61.8412C26.1961 61.8412 26.1961 70.2478 26.1961 76.9221C26.1961 83.5964 26.1961 85.4815 26.1961 85.4815L24.9224 93.3786L30.6287 93.6843C30.6287 93.6843 32.7176 85.1249 33.4309 80.6923C34.1951 76.2597 34.5008 70.9101 34.5008 70.9101L36.9973 82.4755L38.1691 94.1429L44.1302 93.9391L43.7735 62.7073L26.1961 61.8412Z" fill="#0F63E7"/>
<path d="M26.2466 94.0919C26.2466 94.0919 27.3675 88.3856 27.7751 83.5455C28.1826 78.7053 27.2656 61.026 27.2656 61.026" stroke="#452A32" stroke-width="0.5043" stroke-miterlimit="10" stroke-linecap="round" stroke-linejoin="round"/>
<path d="M34.5515 70.8592L37.048 70.1968V61.3827L34.5515 61.8412V70.8592Z" stroke="#452A32" stroke-width="0.5043" stroke-miterlimit="10" stroke-linecap="round" stroke-linejoin="round"/>
<path d="M39.5952 94.6523C39.5952 94.6523 39.9009 83.6473 36.0797 70.4515" stroke="#452A32" stroke-width="0.5043" stroke-miterlimit="10" stroke-linecap="round" stroke-linejoin="round"/>
<path d="M31.749 61.8412C31.749 61.8412 31.0867 66.987 27.5203 67.9041" stroke="#452A32" stroke-width="0.5043" stroke-miterlimit="10" stroke-linecap="round" stroke-linejoin="round"/>
<path d="M39.7482 61.8412C39.7482 61.8412 39.2387 67.6493 44.6903 68.4136" stroke="#452A32" stroke-width="0.5043" stroke-miterlimit="10" stroke-linecap="round" stroke-linejoin="round"/>
<path d="M102.67 43.1429C102.161 38.965 100.938 35.5515 96.1996 35.0929C92.9898 36.1119 90.2895 35.4496 90.2895 35.4496C90.2895 35.4496 84.838 35.7043 84.5833 47.6264L85.3475 47.8811V43.1429H102.67Z" fill="#7CBCF4"/>
<path d="M85.3477 59.8542C90.2898 59.8542 103.231 59.8542 103.231 59.8542C103.231 59.8542 103.282 54.3007 103.078 49.3587H85.3477C85.2967 51.9571 85.1948 57.2558 85.3477 59.8542Z" fill="#7CBCF4"/>
<path d="M102.67 43.1429H85.3476V47.8812C85.3476 47.8812 85.3476 48.4416 85.2966 49.3587H103.078C103.027 47.8302 102.976 46.4036 102.874 45.1808C102.823 44.5185 102.772 43.8052 102.67 43.1429Z" fill="white"/>
<path d="M96.1488 36.9271C97.2187 35.2967 99.5624 35.1438 100.887 36.6214C102.212 38.1498 103.791 40.5444 105.116 44.3656C108.02 52.9251 108.326 53.4346 104.81 53.7402C103.333 53.8931 97.881 44.3656 95.894 39.7293C95.4864 38.8122 95.5883 37.7422 96.1488 36.9271Z" fill="#EDA370"/>
<path d="M105.014 67.038H106.44C106.44 67.038 109.956 50.1229 105.727 50.1229C101.498 50.1229 105.014 67.038 105.014 67.038Z" fill="#EDA370"/>
<path d="M98.3905 46.047L105.269 43.0919C105.269 43.0919 103.485 34.3796 95.6392 34.3796C94.5693 42.1748 98.3905 46.047 98.3905 46.047Z" fill="#7CBCF4"/>
<path d="M23.1896 23.2727H26.2466C26.2466 23.2727 26.9599 29.3866 26.9599 33.6663C29.1507 36.8251 32.6152 40.5444 32.6152 40.5444C32.6152 40.5444 33.1247 42.939 35.4174 42.939C37.7101 42.939 37.863 40.6463 37.863 40.6463L44.6902 33.8701C44.6902 33.8701 44.6902 26.0749 46.0148 23.2217C48.3585 23.5784 49.3265 23.5784 49.3265 23.5784C49.3265 23.5784 50.1417 31.1188 49.1227 35.0929C48.0528 39.0669 43.824 47.2187 43.824 47.2187V62.6563H25.5333L26.7561 47.0149C26.7561 47.0149 23.3425 38.5574 22.5783 34.8891C21.7631 31.2717 23.1896 23.2727 23.1896 23.2727Z" fill="#E283B5"/>
<path d="M33.074 33.8701C33.074 33.8701 37.048 34.0229 37.4556 29.6923C40.0031 32.2397 40.9711 31.3736 40.9711 31.3736C40.9711 31.3736 40.6654 28.5204 36.8442 28.5204C33.125 28.5714 32.4117 32.7492 33.074 33.8701Z" fill="white"/>
<path d="M76.2279 88.7932H81.119C81.119 88.7932 81.068 93.1238 80.8133 94.0919C80.5585 95.0599 80.049 95.3147 77.3487 95.6204C74.6484 95.926 72.4576 96.6393 72.2538 95.3147C72.05 93.99 76.2788 92.0539 76.2788 92.0539L76.2279 88.7932Z" fill="#452A32"/>
<path d="M97.2695 96.3336H102.415C102.415 96.3336 102.619 100.664 102.364 101.632C102.11 102.6 101.6 102.855 98.8999 103.161C96.1996 103.467 94.0088 104.18 93.805 102.855C93.6012 101.581 97.83 99.5944 97.83 99.5944L97.2695 96.3336Z" fill="#452A32"/>
<path d="M24.9221 98.2697H28.3357L27.979 100.104C27.979 100.104 31.2398 101.072 32.055 101.938C32.9211 102.804 31.6983 103.212 29.6094 103.212C27.5205 103.212 26.5525 102.804 25.2787 102.804C24.1069 102.804 23.9541 101.989 24.9221 98.2697Z" fill="#452A32"/>
<path d="M39.7483 98.3716L43.1619 98.1678L42.8052 100.155C42.8052 100.155 46.066 101.123 46.8812 101.989C47.7473 102.855 46.5245 103.263 44.4356 103.263C42.3976 103.263 41.3787 102.855 40.1049 102.855C38.8312 102.855 38.7803 102.091 39.7483 98.3716Z" fill="#452A32"/>
<path d="M49.7852 17.3117C49.5814 17.2607 48.6643 19.4006 48.6643 19.4006C48.6643 19.4006 49.3776 16.7513 49.1229 16.6494C48.8681 16.5984 48.0529 19.3497 48.0529 19.3497C48.0529 19.3497 48.3586 16.3437 48.0529 16.3437C47.7982 16.3437 47.3396 19.2478 47.3396 19.2478C47.3396 19.2478 47.1359 16.4965 46.8811 16.4965C46.5754 16.4965 46.6264 20.4196 46.6264 20.4196C46.6264 20.4196 45.964 18.8911 45.7093 18.8911C45.4545 18.8911 45.7602 20.3177 46.0659 21.1838C46.4226 22.1009 46.9321 22.7123 46.9321 22.7123L48.5115 22.5594C48.5624 22.5594 49.989 17.3626 49.7852 17.3117Z" fill="#EDA370"/>
<path d="M22.6295 17.3117C22.8333 17.2607 23.7504 19.4006 23.7504 19.4006C23.7504 19.4006 23.0371 16.7513 23.2919 16.6494C23.5466 16.5984 24.3618 19.3497 24.3618 19.3497C24.3618 19.3497 24.0561 16.3437 24.3618 16.3437C24.6165 16.3437 25.0751 19.2478 25.0751 19.2478C25.0751 19.2478 25.2279 16.4965 25.5336 16.4965C25.8393 16.4965 25.7884 20.4196 25.7884 20.4196C25.7884 20.4196 26.4507 18.8911 26.7055 18.8911C26.9602 18.8911 26.6545 20.3177 26.3488 21.1838C25.9922 22.1009 25.4827 22.7123 25.4827 22.7123L23.9033 22.5594C23.8014 22.5594 22.3748 17.3626 22.6295 17.3117Z" fill="#EDA370"/>
<path d="M107.765 71.2667C107.561 71.3176 106.644 69.1778 106.644 69.1778C106.644 69.1778 107.358 71.8271 107.103 71.929C106.848 71.98 106.033 69.2287 106.033 69.2287C106.033 69.2287 106.339 72.2347 106.033 72.2347C105.778 72.2347 105.32 69.3306 105.32 69.3306C105.32 69.3306 105.167 72.0819 104.861 72.0819C104.555 72.0819 104.606 68.1588 104.606 68.1588C104.606 68.1588 103.944 69.6873 103.689 69.6873C103.435 69.6873 103.74 68.2607 104.046 67.3946C104.403 66.4775 104.912 65.8661 104.912 65.8661L106.491 66.0189C106.593 66.0699 108.02 71.2157 107.765 71.2667Z" fill="#EDA370"/>
<path d="M71.031 55.1668C71.031 55.1668 69.5535 54.6574 69.044 53.7912C68.5345 52.976 68.9931 52.6194 69.4516 52.9251C69.8592 53.2308 72.05 54.6573 72.05 54.6573" fill="#EDA370"/>
<path d="M67.821 55.8801C67.821 55.8801 67.5153 57.3067 68.3815 57.5615C69.2476 57.8162 70.1137 57.5615 70.1137 57.2048C70.1137 56.8482 70.3175 55.7782 69.7061 55.1159C69.0947 54.4536 68.2796 54.046 68.2796 54.046C68.2796 54.046 67.821 54.5045 67.821 55.8801Z" fill="#EDA370"/>
<path d="M89.6274 34.3796C89.6274 34.3796 82.8512 34.991 84.7872 49.3587C86.2647 39.2198 89.7802 34.7363 89.7802 34.7363L89.6274 34.3796Z" fill="#0F63E7"/>
<path d="M95.4867 33.9211C95.4867 33.9211 92.5317 45.0279 102.059 50.938C97.168 43.2957 97.7285 34.6343 97.7285 34.6343L95.4867 33.9211Z" fill="#0F63E7"/>
<path d="M102.671 59.1409H84.8384L84.5327 61.077H102.874C102.823 60.4146 102.722 59.7523 102.671 59.1409Z" fill="#E46341"/>
<path d="M84.4814 61.026L84.0229 63.6753C84.0229 63.6753 76.2277 72.2857 75.8201 75.037C75.4125 77.8392 76.2276 89.3027 76.2276 89.3027H81.0169L82.4434 77.6863L93.7032 69.5854L97.2187 96.3337H102.365C102.365 96.3337 104.199 78.3486 102.772 61.026H84.4814Z" fill="#F7BCC0"/>
<path d="M79.4376 90.4236L81.3227 76.2598L91.9201 68.4136H93.6524V71.2158" stroke="#E283B5" stroke-width="0.5043" stroke-miterlimit="10" stroke-linecap="round" stroke-linejoin="round"/>
<path d="M101.499 59.8542C101.499 59.8542 101.753 70.2478 101.753 80.4376C101.753 90.6274 101.499 97.4546 101.499 97.4546" stroke="#E283B5" stroke-width="0.5043" stroke-miterlimit="10" stroke-linecap="round" stroke-linejoin="round"/>
<path d="M82.9529 63.6754C82.9529 63.6754 86.825 63.7773 88.0987 60.5166" stroke="#E283B5" stroke-width="0.5043" stroke-miterlimit="10" stroke-linecap="round" stroke-linejoin="round"/>
<path d="M91.3596 60.3637L91.9201 68.4136H93.6523V60.058" stroke="#E283B5" stroke-width="0.5043" stroke-miterlimit="10" stroke-linecap="round" stroke-linejoin="round"/>
<path d="M97.3717 60.4656C97.3717 60.4656 97.4227 63.1659 101.55 64.2358" stroke="#E283B5" stroke-width="0.5043" stroke-miterlimit="10" stroke-linecap="round" stroke-linejoin="round"/>
<path d="M26.5526 46.7093C26.5526 46.7093 29.9152 48.2887 32.0551 39.984H32.7174C32.7174 39.984 33.9912 45.4865 34.2459 53.3836C34.4497 61.3317 34.2459 64.2358 34.2459 64.2358H25.4827C25.4827 64.2358 24.9222 56.6953 26.5526 46.7093Z" fill="#452A32"/>
<path d="M43.9259 47.015C43.9259 47.015 40.6651 48.2887 38.5253 39.984H38.0158C38.0158 39.984 36.4363 45.4865 36.2325 53.3836C36.0287 61.3317 36.2325 64.2358 36.2325 64.2358H44.6901C44.6901 64.2358 44.6901 54.9631 43.9259 47.015Z" fill="#452A32"/>
<path d="M30.8325 38.6084C30.8325 38.6084 31.4948 45.4865 24.9224 50.6323C24.9224 53.7402 24.9224 54.3007 24.9224 54.3007C24.9224 54.3007 33.1761 51.0399 32.9214 39.0669L30.8325 38.6084Z" fill="#FAC46A"/>
<path d="M39.4935 39.016C39.4935 39.016 38.6274 44.7222 45.1998 49.8681V53.5364C45.1998 53.5364 37.8631 51.5494 38.0669 39.5764L39.4935 39.016Z" fill="#FAC46A"/>
<path d="M89.1692 25.8711C89.0163 27.3486 88.8635 29.3356 86.6727 28.928C85.3989 27.2977 86.316 25.3616 87.4369 24.7502C88.2521 24.2917 89.2711 24.954 89.1692 25.8711Z" fill="white"/>
<path d="M94.8749 27.7562C94.8749 29.8451 94.773 32.5964 92.2765 33.6154C91.3085 34.023 90.1876 34.023 89.2196 33.6154C86.6721 32.5454 86.6721 29.6923 86.6721 27.6034C86.6721 24.954 88.812 22.8142 91.3085 23.1708C93.3464 23.4255 94.8749 25.4635 94.8749 27.7562Z" fill="#EDA370"/>
<path d="M93.0918 29.3356C92.6333 30.2017 92.7861 31.1698 93.3975 31.4755C94.0089 31.8321 94.926 31.3736 95.3845 30.5074C95.8431 29.6413 95.6902 28.6733 95.0788 28.3676C94.4674 28.0619 93.5504 28.4695 93.0918 29.3356Z" fill="#EDA370"/>
<path d="M92.328 25.5654C92.4808 27.0429 93.0922 28.979 95.283 28.5714C95.9454 26.3296 95.1812 25.0559 94.0603 24.4445C93.2451 23.986 92.2261 24.6483 92.328 25.5654Z" fill="white"/>
<path d="M49.4285 103.059C49.4285 103.059 51.8231 93.6843 68.4834 93.6843C85.1438 93.6843 88.4554 103.059 88.4554 103.059H49.4285Z" fill="#EDA370"/>
</svg>
