<svg width="60" height="60" viewBox="0 0 60 60" fill="none" xmlns="http://www.w3.org/2000/svg">
<circle cx="30" cy="30" r="30" fill="#8A5796"/>
<path d="M21.2121 43.174H15.4734V45.2242H21.2121V43.174Z" fill="#54686C"/>
<path d="M45.2529 43.174H39.5142V45.2242H45.2529V43.174Z" fill="#54686C"/>
<path d="M20.4366 18.4692H15.4734V20.6407H20.4366V18.4692Z" fill="#FFFFFB"/>
<path d="M25.3999 18.4692H20.4366V20.6407H25.3999V18.4692Z" fill="#FAF9F9"/>
<path d="M30.3631 18.4692H25.3999V20.6407H30.3631V18.4692Z" fill="#FFFFFB"/>
<path d="M48.5877 20.6406H12.1387V43.1739H48.5877V20.6406Z" fill="#87A3AA"/>
<path d="M21.5999 38.2672C24.9835 38.2672 27.7265 35.5243 27.7265 32.1407C27.7265 28.7571 24.9835 26.0142 21.5999 26.0142C18.2163 26.0142 15.4734 28.7571 15.4734 32.1407C15.4734 35.5243 18.2163 38.2672 21.5999 38.2672Z" fill="#08C5FF"/>
<path d="M43.857 36.7744C44.628 36.7744 45.2529 36.1494 45.2529 35.3784C45.2529 34.6075 44.628 33.9825 43.857 33.9825C43.0861 33.9825 42.4611 34.6075 42.4611 35.3784C42.4611 36.1494 43.0861 36.7744 43.857 36.7744Z" fill="#08C5FF"/>
<path d="M38.8938 36.7744C39.6647 36.7744 40.2897 36.1494 40.2897 35.3784C40.2897 34.6075 39.6647 33.9825 38.8938 33.9825C38.1228 33.9825 37.4979 34.6075 37.4979 35.3784C37.4979 36.1494 38.1228 36.7744 38.8938 36.7744Z" fill="#08C5FF"/>
<path d="M33.9305 36.7744C34.7015 36.7744 35.3264 36.1494 35.3264 35.3784C35.3264 34.6075 34.7015 33.9825 33.9305 33.9825C33.1596 33.9825 32.5346 34.6075 32.5346 35.3784C32.5346 36.1494 33.1596 36.7744 33.9305 36.7744Z" fill="#08C5FF"/>
<path d="M45.253 26.0142H32.5346V30.2018H45.253V26.0142Z" fill="#FFFFFB"/>
<path d="M21.5999 25.2385C17.7941 25.2385 14.6979 28.3348 14.6979 32.1406C14.6979 35.9464 17.7941 39.0426 21.5999 39.0426C25.4057 39.0426 28.502 35.9464 28.502 32.1406C28.502 28.3348 25.4057 25.2385 21.5999 25.2385ZM19.1177 27.4024C19.6417 27.1267 20.2164 26.9351 20.8243 26.8465V37.4347C20.2164 37.3461 19.6417 37.1546 19.1177 36.8788C19.1178 36.8751 19.1182 36.8715 19.1182 36.8678V27.4135C19.1183 27.4097 19.1177 27.4061 19.1177 27.4024ZM22.3754 26.8465C22.9834 26.9351 23.5581 27.1267 24.0821 27.4024C24.082 27.4061 24.0816 27.4097 24.0816 27.4135V36.8678C24.0816 36.8715 24.0821 36.8751 24.0821 36.8788C23.558 37.1546 22.9834 37.3461 22.3754 37.4347V26.8465ZM16.2489 32.1406C16.2489 30.7977 16.7473 29.5698 17.5672 28.6292V35.6519C16.7472 34.7114 16.2489 33.4835 16.2489 32.1406ZM25.6325 35.6519V28.6292C26.4526 29.5698 26.9509 30.7977 26.9509 32.1406C26.9509 33.4835 26.4526 34.7114 25.6325 35.6519Z" fill="black"/>
<path d="M43.8569 33.2067C42.6596 33.2067 41.6855 34.1808 41.6855 35.3781C41.6855 36.5754 42.6596 37.5495 43.8569 37.5495C45.0542 37.5495 46.0283 36.5754 46.0283 35.3781C46.0283 34.1808 45.0543 33.2067 43.8569 33.2067ZM43.8569 35.9986C43.5148 35.9986 43.2365 35.7202 43.2365 35.3782C43.2365 35.0361 43.5148 34.7578 43.8569 34.7578C44.199 34.7578 44.4773 35.0361 44.4773 35.3782C44.4773 35.7202 44.199 35.9986 43.8569 35.9986Z" fill="black"/>
<path d="M38.8938 33.2067C37.6965 33.2067 36.7224 34.1808 36.7224 35.3781C36.7224 36.5754 37.6965 37.5495 38.8938 37.5495C40.0911 37.5495 41.0652 36.5754 41.0652 35.3781C41.0652 34.1808 40.0911 33.2067 38.8938 33.2067ZM38.8938 35.9986C38.5517 35.9986 38.2734 35.7202 38.2734 35.3782C38.2734 35.0361 38.5517 34.7578 38.8938 34.7578C39.2358 34.7578 39.5142 35.0361 39.5142 35.3782C39.5142 35.7202 39.2358 35.9986 38.8938 35.9986Z" fill="black"/>
<path d="M33.9306 37.5496C35.1279 37.5496 36.1021 36.5755 36.1021 35.3782C36.1021 34.1809 35.1279 33.2068 33.9306 33.2068C32.7333 33.2068 31.7592 34.1809 31.7592 35.3782C31.7592 36.5755 32.7333 37.5496 33.9306 37.5496ZM33.9306 34.7577C34.2727 34.7577 34.551 35.0361 34.551 35.3781C34.551 35.7202 34.2727 35.9985 33.9306 35.9985C33.5886 35.9985 33.3102 35.7202 33.3102 35.3781C33.3102 35.0361 33.5886 34.7577 33.9306 34.7577Z" fill="black"/>
<path d="M48.5876 19.8651H46.0284V16.2764C46.0284 15.848 45.6812 15.5009 45.2529 15.5009C44.8246 15.5009 44.4774 15.848 44.4774 16.2764V19.8651H31.1387V18.4692C31.1387 18.0409 30.7915 17.6937 30.3632 17.6937H25.3999H20.4367H15.4734C15.0451 17.6937 14.6979 18.0409 14.6979 18.4692V19.8651H12.1387C11.7104 19.8651 11.3632 20.2123 11.3632 20.6407V43.1741C11.3632 43.6024 11.7104 43.9496 12.1387 43.9496H14.6979V45.2243C14.6979 45.6527 15.0451 45.9999 15.4734 45.9999H21.2121C21.6405 45.9999 21.9876 45.6527 21.9876 45.2243V43.9496H38.7387V45.2243C38.7387 45.6527 39.0859 45.9999 39.5142 45.9999H45.2529C45.6812 45.9999 46.0284 45.6527 46.0284 45.2243V43.9496H48.5876C49.016 43.9496 49.3632 43.6024 49.3632 43.1741V20.6407C49.3632 20.2123 49.016 19.8651 48.5876 19.8651ZM29.5876 19.8651H26.1754V19.2447H29.5876V19.8651ZM24.6244 19.8651H21.2122V19.2447H24.6244V19.8651ZM16.2489 19.2447H19.6612V19.8651H16.2489V19.2447ZM20.4366 44.4488H16.2489V43.9496H20.4366V44.4488ZM44.4774 44.4488H40.2897V43.9496H44.4774V44.4488ZM47.8121 42.3986H45.2529H39.5142H21.2121H15.4734H12.9142V21.4162H47.8121V42.3986Z" fill="#FFFDFF"/>
<path d="M45.2529 12.1876C46.4075 12.1876 47.3468 11.2483 47.3468 10.0937C47.3468 8.93919 46.4075 7.99988 45.2529 7.99988C44.0984 7.99988 43.1591 8.93919 43.1591 10.0937C43.1591 11.2483 44.0984 12.1876 45.2529 12.1876ZM45.2529 9.5509C45.5522 9.5509 45.7958 9.79441 45.7958 10.0937C45.7958 10.3931 45.5522 10.6366 45.2529 10.6366C44.9536 10.6366 44.7101 10.3931 44.7101 10.0937C44.7101 9.79441 44.9536 9.5509 45.2529 9.5509Z" fill="white"/>
<path d="M37.4879 30.9773H37.498C37.9263 30.9773 38.2735 30.6301 38.2735 30.2018C38.2735 29.7735 37.9263 29.4263 37.498 29.4263H37.4879C37.0595 29.4263 36.7123 29.7735 36.7123 30.2018C36.7123 30.6301 37.0595 30.9773 37.4879 30.9773Z" fill="black"/>
<path d="M32.5347 30.9773H35.0561C35.4844 30.9773 35.8316 30.6301 35.8316 30.2018C35.8316 29.7735 35.4844 29.4263 35.0561 29.4263H33.3102V26.7897H44.4774V29.4263H40.0069C39.5786 29.4263 39.2314 29.7735 39.2314 30.2018C39.2314 30.6301 39.5786 30.9773 40.0069 30.9773H45.2529C45.6812 30.9773 46.0284 30.6301 46.0284 30.2018V26.0142C46.0284 25.5858 45.6812 25.2386 45.2529 25.2386H32.5347C32.1064 25.2386 31.7592 25.5858 31.7592 26.0142V30.2018C31.7592 30.6301 32.1064 30.9773 32.5347 30.9773Z" fill="black"/>
<path d="M44.4774 14.0287V14.0389C44.4774 14.4672 44.8246 14.8144 45.2529 14.8144C45.6812 14.8144 46.0284 14.4672 46.0284 14.0389V14.0287C46.0284 13.6004 45.6812 13.2532 45.2529 13.2532C44.8246 13.2532 44.4774 13.6004 44.4774 14.0287Z" fill="#FFFEFE"/>
</svg>
