<svg width="60" height="60" viewBox="0 0 60 60" fill="none" xmlns="http://www.w3.org/2000/svg">
<circle cx="30" cy="30" r="30" fill="#8A5796"/>
<path fill-rule="evenodd" clip-rule="evenodd" d="M19.6196 14.9022C17.4154 14.9022 15.7744 15.8226 14.7559 17.0763C13.7374 18.33 13.3101 19.8714 13.3101 21.2131C13.3101 21.4567 13.3263 21.6977 13.3599 21.9332C10.8873 22.595 9.06281 24.8576 9.06281 27.5295C9.06281 28.917 9.55564 30.1985 10.3731 31.1977C9.79593 32.0994 9.45948 33.1742 9.45948 34.3199C9.45948 36.5387 10.7126 38.474 12.5541 39.4449C12.5011 39.7821 12.4739 40.1276 12.4739 40.4787C12.4739 44.125 15.4455 47.0978 19.0916 47.0978C22.7378 47.0978 25.7107 44.1249 25.7107 40.4787V21.2131C25.7107 19.8935 25.3509 18.3589 24.3894 17.0971C23.4278 15.8353 21.8238 14.9022 19.6196 14.9022H19.6196Z" fill="#EE8EB4"/>
<path fill-rule="evenodd" clip-rule="evenodd" d="M39.6385 31.1963C40.4559 30.1971 40.9488 28.9156 40.9488 27.5281C40.9488 24.8561 39.1244 22.5936 36.6517 21.9318C36.6851 21.6968 36.7015 21.4562 36.7015 21.2131C36.7015 19.8714 36.2729 18.33 35.2544 17.0763C34.2359 15.8226 32.5962 14.9022 30.392 14.9022C28.1878 14.9022 26.5838 15.8353 25.6222 17.0971C24.6607 18.3589 24.3009 19.8935 24.3009 21.2131V40.4787C24.3009 44.1249 27.2724 47.0978 30.9186 47.0978C34.5648 47.0978 37.5377 44.125 37.5377 40.4787C37.5377 40.1266 37.5094 39.7803 37.4561 39.4421L39.6385 31.1963Z" fill="#EE8EB4"/>
<path fill-rule="evenodd" clip-rule="evenodd" d="M19.6196 14.9022C17.4154 14.9022 15.7744 15.8226 14.7559 17.0763C13.7374 18.33 13.3101 19.8714 13.3101 21.2131C13.3101 21.5533 13.345 21.8872 13.4096 22.2096L13.404 22.211C13.404 22.211 13.4284 22.3493 13.498 22.5814C13.6532 23.0994 14.033 24.0873 14.876 25.0638C15.1314 25.3593 15.5781 25.3908 15.8739 25.1356C16.1695 24.8802 16.2023 24.4349 15.9471 24.1391C15.1338 23.2548 14.8254 22.2703 14.7253 21.2131C14.7253 20.1853 15.0816 18.9258 15.8587 17.9692C16.6358 17.0127 17.7941 16.319 19.6195 16.319C21.4448 16.319 22.5387 17.0056 23.2614 17.954C23.9842 18.9025 24.3008 20.1631 24.3008 21.2131C24.2994 21.6039 24.6149 21.922 25.0057 21.9235C25.3965 21.9221 25.7121 21.6039 25.7106 21.2131C25.7106 19.8936 25.3508 18.3589 24.3893 17.0971C23.4277 15.8353 21.8237 14.9023 19.6195 14.9023L19.6196 14.9022ZM15.1843 36.2217C15.0508 36.2168 14.9186 36.2491 14.8028 36.3157C13.925 36.8196 13.384 37.4411 13.0738 37.9453C12.5836 38.7271 12.5222 39.6771 12.4739 40.4787C12.4739 44.125 15.4455 47.0978 19.0916 47.0978C22.1223 47.0978 24.6877 45.0435 25.4674 42.2562C25.7751 41.1079 25.645 39.9117 24.9782 38.9031C24.3041 38.0224 22.9396 36.7081 20.764 36.6391C20.371 36.626 20.0426 36.9357 20.0329 37.3288C20.0227 37.7176 20.3283 38.0417 20.717 38.0545C22.0885 38.098 23.0156 38.7904 23.5684 39.3951C24.3487 40.1545 24.2951 41.1681 23.9955 42.2423C23.2734 44.2503 21.3521 45.6811 19.0916 45.6811C16.2114 45.6811 13.8892 43.3589 13.8892 40.4787C13.8499 39.7268 14.0476 39.1909 14.2818 38.6875C14.485 38.3573 14.8468 37.9232 15.5091 37.5431C15.848 37.3484 15.965 36.9159 15.7703 36.5769C15.6492 36.3655 15.4278 36.2313 15.1843 36.2217Z" fill="#8A5796"/>
<path fill-rule="evenodd" clip-rule="evenodd" d="M11.1102 30.287C10.9229 30.2899 10.7445 30.367 10.6139 30.5013C10.5489 30.568 10.4977 30.647 10.4633 30.7336C10.4289 30.8203 10.412 30.9128 10.4134 31.006C10.4149 31.0992 10.4347 31.1912 10.4719 31.2767C10.509 31.3622 10.5626 31.4395 10.6297 31.5042C10.6297 31.5042 11.9984 32.8457 14.1401 33.0662C14.3264 33.086 14.513 33.0311 14.6589 32.9136C14.8048 32.7961 14.8981 32.6255 14.9185 32.4393C14.9283 32.3467 14.9197 32.253 14.8932 32.1637C14.8667 32.0744 14.8228 31.9911 14.7641 31.9188C14.7054 31.8465 14.6329 31.7865 14.551 31.7422C14.469 31.698 14.3791 31.6704 14.2864 31.661C12.663 31.4938 11.6118 30.4908 11.6118 30.4908C11.4782 30.3591 11.2979 30.2858 11.1103 30.287H11.1102Z" fill="#8A5796"/>
<path fill-rule="evenodd" clip-rule="evenodd" d="M15.4251 28.0199C15.3353 27.9958 15.2415 27.9896 15.1493 28.0018C15.057 28.014 14.9681 28.0443 14.8876 28.0908C14.807 28.1374 14.7364 28.1994 14.6799 28.2733C14.6233 28.3472 14.5819 28.4315 14.558 28.5214C14.5339 28.6113 14.5277 28.705 14.5399 28.7972C14.5521 28.8894 14.5823 28.9784 14.6289 29.059C14.6755 29.1395 14.7375 29.2101 14.8113 29.2666C14.8852 29.3232 14.9695 29.3646 15.0595 29.3886C15.0595 29.3886 16.0015 29.6405 16.8982 30.4594C17.795 31.2783 18.6329 32.5833 18.3557 34.9624C18.3343 35.1479 18.387 35.3344 18.5025 35.4812C18.618 35.628 18.7868 35.7231 18.9721 35.746C19.0648 35.7573 19.1588 35.7502 19.2487 35.725C19.3386 35.6998 19.4226 35.6572 19.4959 35.5994C19.5692 35.5416 19.6304 35.4698 19.6759 35.3883C19.7214 35.3068 19.7503 35.2171 19.7609 35.1243C20.0856 32.3378 19.0148 30.4745 17.8542 29.4147C16.6936 28.3549 15.4251 28.0199 15.4251 28.0199Z" fill="#8A5796"/>
<path fill-rule="evenodd" clip-rule="evenodd" d="M18.3035 31.4782C18.3035 31.4782 19.1045 31.4006 19.9438 30.9245C20.783 30.4484 21.7177 29.4946 21.9079 27.9417C21.9557 27.5536 21.6796 27.2004 21.2915 27.1529C20.9035 27.105 20.5502 27.3813 20.5027 27.7693C20.3683 28.8666 19.8108 29.3699 19.2438 29.6916C18.6767 30.0134 18.1572 30.073 18.1572 30.073L18.3035 31.4782Z" fill="#8A5796"/>
<path fill-rule="evenodd" clip-rule="evenodd" d="M20.0012 22.6655C19.9089 22.6541 19.8153 22.661 19.7257 22.6859C19.6362 22.7107 19.5523 22.753 19.4791 22.8103C19.4058 22.8675 19.3446 22.9386 19.2988 23.0195C19.2531 23.1005 19.2237 23.1896 19.2124 23.2819C19.078 24.3793 18.5256 24.8826 17.9587 25.2042C17.3918 25.5259 16.8669 25.5804 16.8669 25.5804C16.7742 25.5898 16.6843 25.6174 16.6023 25.6617C16.5204 25.7059 16.4479 25.766 16.3892 25.8383C16.3305 25.9106 16.2866 25.9938 16.2601 26.0831C16.2336 26.1724 16.225 26.2661 16.2348 26.3587C16.2442 26.4514 16.2719 26.5413 16.3161 26.6232C16.3604 26.7052 16.4204 26.7776 16.4927 26.8364C16.565 26.8951 16.6482 26.939 16.7375 26.9655C16.8269 26.992 16.9205 27.0006 17.0132 26.9908C17.0132 26.9908 17.8144 26.9132 18.6534 26.4371C19.4925 25.9609 20.4274 25.0019 20.6176 23.449C20.639 23.2635 20.5863 23.077 20.4708 22.9302C20.3553 22.7835 20.1865 22.6883 20.0012 22.6655Z" fill="#8A5796"/>
<path fill-rule="evenodd" clip-rule="evenodd" d="M22.9579 23.9767C22.867 23.9563 22.773 23.954 22.6812 23.97C22.5894 23.986 22.5016 24.02 22.423 24.07C22.3444 24.12 22.2764 24.185 22.223 24.2613C22.1695 24.3376 22.1317 24.4238 22.1117 24.5147C22.0912 24.6056 22.0889 24.6997 22.1049 24.7915C22.1209 24.8833 22.1549 24.971 22.2049 25.0496C22.2549 25.1282 22.3199 25.1962 22.3962 25.2497C22.4726 25.3031 22.5587 25.3409 22.6497 25.361C24.058 25.6738 24.3109 26.6722 24.3109 26.6722C24.3668 26.8506 24.491 26.9996 24.6564 27.0867C24.8218 27.1739 25.015 27.1919 25.1937 27.1371C25.2826 27.1095 25.3652 27.0645 25.4368 27.0049C25.5083 26.9452 25.5673 26.8721 25.6105 26.7896C25.6537 26.7071 25.6802 26.6169 25.6884 26.5241C25.6967 26.4314 25.6866 26.3379 25.6586 26.2491C25.6586 26.2491 25.0272 24.4363 22.9579 23.9767Z" fill="#8A5796"/>
<path fill-rule="evenodd" clip-rule="evenodd" d="M16.8042 39.7631C16.7284 39.8169 16.6639 39.8852 16.6144 39.9639C16.5649 40.0427 16.5315 40.1305 16.516 40.2222C16.5004 40.3139 16.5032 40.4076 16.5239 40.4983C16.5447 40.5889 16.5831 40.6746 16.637 40.7504C17.5246 42.0081 18.6963 42.4241 19.5885 42.443C20.4807 42.4617 21.1557 42.1295 21.1557 42.1295C21.2396 42.0886 21.3146 42.0315 21.3763 41.9615C21.4381 41.8914 21.4854 41.8099 21.5155 41.7216C21.5456 41.6332 21.5579 41.5397 21.5517 41.4466C21.5456 41.3534 21.521 41.2624 21.4795 41.1788C21.4382 41.0953 21.3807 41.0209 21.3105 40.9596C21.2403 40.8984 21.1587 40.8516 21.0703 40.822C20.982 40.7924 20.8887 40.7805 20.7958 40.7871C20.7028 40.7936 20.6121 40.8184 20.5288 40.8601C20.5288 40.8601 20.1575 41.0385 19.6198 41.0273C19.0822 41.0166 18.4448 40.8612 17.7915 39.9355C17.7381 39.8592 17.6702 39.7942 17.5916 39.7443C17.513 39.6943 17.4254 39.6604 17.3337 39.6444C17.2419 39.6283 17.148 39.6305 17.0571 39.6509C16.9663 39.6713 16.8803 39.7093 16.8042 39.763V39.7631Z" fill="#8A5796"/>
<path fill-rule="evenodd" clip-rule="evenodd" d="M31.2795 39.643C31.1873 39.659 31.0993 39.693 31.0204 39.7432C30.9415 39.7934 30.8733 39.8588 30.8198 39.9355C30.1669 40.8611 29.5292 41.016 28.9915 41.0273C28.4537 41.038 28.0825 40.8602 28.0825 40.8602C27.9148 40.7776 27.7212 40.7648 27.544 40.8245C27.3669 40.8842 27.2205 41.0116 27.137 41.1788C27.0953 41.2621 27.0705 41.3529 27.0639 41.4458C27.0574 41.5387 27.0693 41.632 27.0989 41.7204C27.1285 41.8087 27.1752 41.8903 27.2365 41.9605C27.2977 42.0307 27.3722 42.0882 27.4556 42.1295C27.4556 42.1295 28.1305 42.4618 29.0228 42.443C29.9151 42.4243 31.0922 42.0082 31.9795 40.7505C32.0331 40.6744 32.0712 40.5884 32.0916 40.4976C32.112 40.4067 32.1142 40.3128 32.0982 40.2211C32.0822 40.1293 32.0482 40.0417 31.9983 39.9631C31.9483 39.8846 31.8834 39.8166 31.8071 39.7632C31.6541 39.6548 31.4643 39.6116 31.2795 39.6431L31.2795 39.643Z" fill="#8A5796"/>
<path fill-rule="evenodd" clip-rule="evenodd" d="M39.6385 31.1964C40.4559 30.1972 40.9488 28.9157 40.9488 27.5282C40.9488 24.8562 39.1244 22.5936 36.6517 21.9319C36.6851 21.6969 36.7015 21.4563 36.7015 21.2132C36.7015 19.9714 36.328 18.5614 35.4658 17.3639H32.7057C30.8857 17.3639 29.1398 18.0881 27.853 19.3749C26.5659 20.6619 25.842 22.4079 25.842 24.2276V31.6981C25.842 33.5182 26.5662 35.2639 27.853 36.5508C28.7714 37.4692 29.8878 37.8709 30.9656 38.1223L33.8971 42.4953C34.295 43.0884 35.0005 43.4615 35.7146 43.4615C36.1868 43.4615 36.6522 43.2971 37.029 43.015C37.3554 42.233 37.5376 41.377 37.5376 40.4788C37.5376 40.1267 37.5094 39.7804 37.4561 39.4422L39.6385 31.1964Z" fill="#8A5796"/>
<path fill-rule="evenodd" clip-rule="evenodd" d="M32.7056 18.8417C31.2778 18.8417 29.9071 19.4096 28.8974 20.4193C27.8876 21.4291 27.3198 22.7999 27.3198 24.2275V31.6975C27.3198 33.1256 27.8876 34.4959 28.8974 35.5057C29.699 36.3073 30.7879 36.6759 31.8959 36.8587L35.1242 41.6698C35.189 41.7663 35.2764 41.8454 35.3789 41.9C35.4814 41.9547 35.5958 41.9832 35.7119 41.9832C35.8281 41.9832 35.9424 41.9547 36.0449 41.9C36.1474 41.8454 36.2349 41.7663 36.2996 41.6698L39.366 37.0833H47.5518C48.9801 37.0833 50.3503 36.5146 51.3599 35.5057C52.3688 34.4961 52.9375 33.1259 52.9375 31.6975V24.2275C52.9375 22.7997 52.3688 21.4289 51.3599 20.4193C50.3502 19.4096 48.9801 18.8417 47.5518 18.8417H32.7056Z" fill="#F5F6E8"/>
<path fill-rule="evenodd" clip-rule="evenodd" d="M32.7057 18.8417C31.278 18.8417 29.9076 19.4104 28.8979 20.4201C28.4083 20.9097 28.0237 21.4843 27.7563 22.109C28.42 21.8248 29.1396 21.6723 29.8751 21.6723H44.7207C46.149 21.6723 47.5202 22.241 48.5299 23.2507C49.5387 24.2603 50.1069 25.6307 50.1069 27.0584V34.5289C50.1069 35.2641 49.9553 35.9832 49.6715 36.6464C50.296 36.3788 50.871 35.9952 51.3605 35.5061C52.3693 34.4965 52.9375 33.1267 52.9375 31.6984V24.2279C52.9375 22.8001 52.3694 21.4298 51.3605 20.4201C50.3508 19.4104 48.9797 18.8417 47.5513 18.8417H32.7057Z" fill="#D0D9C3"/>
<path fill-rule="evenodd" clip-rule="evenodd" d="M47.3898 22.1326L45.5928 23.1878C45.5124 23.235 45.442 23.2975 45.3858 23.372C45.3296 23.4464 45.2887 23.5312 45.2654 23.6215C45.2421 23.7118 45.2369 23.8058 45.25 23.8981C45.2632 23.9904 45.2945 24.0793 45.3421 24.1595C45.4373 24.3205 45.5924 24.4373 45.7735 24.4842C45.9546 24.5312 46.147 24.5045 46.3085 24.41L48.1055 23.3496C48.2665 23.2544 48.3833 23.0993 48.4303 22.9181C48.4773 22.737 48.4507 22.5447 48.3562 22.3832C48.261 22.2222 48.1058 22.1054 47.9247 22.0584C47.7436 22.0115 47.5513 22.0381 47.3898 22.1326Z" fill="#FED883"/>
<path fill-rule="evenodd" clip-rule="evenodd" d="M46.3085 28.5684C46.147 28.4739 45.9546 28.4472 45.7735 28.4942C45.5924 28.5412 45.4373 28.6579 45.3421 28.819C45.2945 28.8992 45.2632 28.988 45.25 29.0803C45.2369 29.1727 45.2421 29.2667 45.2654 29.357C45.2887 29.4473 45.3296 29.5321 45.3858 29.6065C45.442 29.6809 45.5124 29.7435 45.5928 29.7906L47.3898 30.8458C47.5513 30.9403 47.7436 30.967 47.9247 30.92C48.1058 30.8731 48.261 30.7563 48.3562 30.5953C48.4038 30.5151 48.4351 30.4262 48.4482 30.3339C48.4614 30.2416 48.4561 30.1476 48.4328 30.0573C48.4095 29.967 48.3686 29.8822 48.3124 29.8078C48.2563 29.7333 48.1859 29.6708 48.1055 29.6236L46.3085 28.5684Z" fill="#FED883"/>
<path fill-rule="evenodd" clip-rule="evenodd" d="M45.9532 25.7788C45.8598 25.7784 45.7673 25.7965 45.6809 25.8321C45.5946 25.8677 45.5161 25.92 45.4501 25.9861C45.384 26.0521 45.3317 26.1306 45.2961 26.217C45.2606 26.3033 45.2424 26.3959 45.2428 26.4893C45.2431 26.5822 45.2618 26.6742 45.2976 26.76C45.3335 26.8458 45.3859 26.9235 45.4519 26.989C45.5179 27.0545 45.5961 27.1064 45.6821 27.1417C45.7682 27.1769 45.8603 27.1948 45.9532 27.1945H47.7241C47.911 27.1938 48.09 27.1193 48.2221 26.9872C48.3542 26.8551 48.4287 26.6761 48.4293 26.4893C48.4297 26.3963 48.4118 26.3042 48.3765 26.2182C48.3413 26.1322 48.2894 26.0539 48.2239 25.9879C48.1584 25.922 48.0806 25.8695 47.9948 25.8337C47.9091 25.7978 47.8171 25.7791 47.7241 25.7788H45.9532Z" fill="#FED883"/>
<path fill-rule="evenodd" clip-rule="evenodd" d="M32.8727 22.1326C32.7926 22.085 32.7037 22.0537 32.6114 22.0405C32.5191 22.0274 32.4251 22.0326 32.3348 22.0559C32.2445 22.0792 32.1598 22.1201 32.0853 22.1763C32.0109 22.2324 31.9483 22.3027 31.9011 22.3832C31.8067 22.5447 31.78 22.737 31.827 22.9181C31.874 23.0992 31.9908 23.2544 32.1519 23.3496L33.9489 24.41C34.029 24.4576 34.1179 24.4889 34.2102 24.5021C34.3025 24.5153 34.3965 24.51 34.4868 24.4868C34.5771 24.4635 34.6619 24.4225 34.7363 24.3664C34.8107 24.3102 34.8733 24.2399 34.9205 24.1594C34.9679 24.0789 34.9988 23.9898 35.0116 23.8973C35.0244 23.8047 35.0187 23.7107 34.9949 23.6203C34.9711 23.53 34.9296 23.4453 34.8729 23.3711C34.8162 23.2968 34.7454 23.2345 34.6645 23.1878L32.8727 22.1326Z" fill="#FED883"/>
<path fill-rule="evenodd" clip-rule="evenodd" d="M33.9489 28.5684L32.1519 29.6236C32.0714 29.6708 32.0011 29.7333 31.9449 29.8077C31.8887 29.8822 31.8478 29.967 31.8245 30.0573C31.8012 30.1476 31.796 30.2416 31.8091 30.3339C31.8223 30.4262 31.8536 30.515 31.9011 30.5952C31.9483 30.6757 32.0109 30.746 32.0853 30.8022C32.1598 30.8583 32.2446 30.8993 32.3349 30.9225C32.4252 30.9458 32.5191 30.9511 32.6115 30.9379C32.7038 30.9247 32.7926 30.8934 32.8728 30.8458L34.6646 29.7906C34.7454 29.7439 34.8163 29.6816 34.873 29.6074C34.9297 29.5331 34.9711 29.4484 34.9949 29.3581C35.0187 29.2678 35.0244 29.1737 35.0116 29.0811C34.9988 28.9886 34.9679 28.8995 34.9205 28.819C34.8734 28.7385 34.8107 28.6682 34.7363 28.6121C34.6619 28.5559 34.5771 28.515 34.4868 28.4917C34.3965 28.4684 34.3025 28.4632 34.2102 28.4763C34.1179 28.4895 34.0291 28.5208 33.9489 28.5684Z" fill="#FED883"/>
<path fill-rule="evenodd" clip-rule="evenodd" d="M32.5385 25.7788C32.445 25.7784 32.3525 25.7965 32.2661 25.8321C32.1798 25.8677 32.1013 25.92 32.0353 25.9861C31.9692 26.0521 31.9169 26.1306 31.8813 26.217C31.8458 26.3033 31.8276 26.3959 31.828 26.4893C31.8283 26.5822 31.847 26.6742 31.8828 26.76C31.9187 26.8458 31.9712 26.9235 32.0371 26.989C32.1031 27.0545 32.1813 27.1064 32.2673 27.1417C32.3534 27.1769 32.4455 27.1948 32.5385 27.1945H34.3093C34.4962 27.1938 34.6752 27.1193 34.8073 26.9872C34.9394 26.8551 35.0139 26.6761 35.0146 26.4893C35.0149 26.3963 34.997 26.3042 34.9617 26.2182C34.9265 26.1322 34.8746 26.0539 34.8091 25.9879C34.7436 25.922 34.6658 25.8695 34.58 25.8337C34.4943 25.7978 34.4023 25.7791 34.3093 25.7788H32.5385Z" fill="#FED883"/>
<path fill-rule="evenodd" clip-rule="evenodd" d="M40.1287 22.7856C38.3177 22.7856 37.1425 23.3003 36.566 24.2326C35.9895 25.165 36.0332 26.2345 36.0332 27.2781C36.0332 29.7078 37.8319 31.7654 40.1287 31.7654C42.4254 31.7654 44.2241 29.7079 44.2241 27.2781C44.2241 26.2345 44.2732 25.165 43.6965 24.2326C43.1199 23.3003 41.9399 22.7856 40.1287 22.7856Z" fill="#FED883"/>
<path fill-rule="evenodd" clip-rule="evenodd" d="M40.6876 27.5916C39.8026 28.0553 39.5025 28.9573 39.4391 29.6184C39.3757 30.2795 39.507 30.8303 39.507 30.8303C39.5487 31.0132 39.6612 31.1719 39.8199 31.2718C39.9786 31.3717 40.1704 31.4046 40.3533 31.3632C40.5361 31.3215 40.6949 31.209 40.7948 31.0503C40.8947 30.8917 40.9275 30.6998 40.8861 30.5169C40.8861 30.5169 40.8105 30.1611 40.8495 29.7542C40.8885 29.3474 40.997 29.0253 41.3406 28.8453C41.4229 28.8021 41.496 28.7431 41.5555 28.6717C41.6151 28.6003 41.6599 28.5178 41.6876 28.429C41.7152 28.3402 41.7251 28.2469 41.7167 28.1543C41.7082 28.0617 41.6816 27.9716 41.6383 27.8893C41.5511 27.7244 41.4023 27.6006 41.2242 27.5448C41.0462 27.489 40.8533 27.5058 40.6876 27.5916Z" fill="#EC7523"/>
<path fill-rule="evenodd" clip-rule="evenodd" d="M39.5749 27.5915C39.4926 27.5483 39.4026 27.5216 39.31 27.5132C39.2174 27.5047 39.124 27.5147 39.0353 27.5423C38.9465 27.57 38.864 27.6148 38.7926 27.6744C38.7211 27.7339 38.6622 27.8069 38.619 27.8893C38.5757 27.9716 38.5491 28.0616 38.5406 28.1542C38.5322 28.2468 38.5421 28.3402 38.5697 28.429C38.5974 28.5178 38.6423 28.6002 38.7018 28.6716C38.7613 28.7431 38.8344 28.8021 38.9167 28.8453C39.2603 29.0253 39.374 29.3473 39.413 29.7542C39.452 30.1611 39.3764 30.5169 39.3764 30.5169C39.335 30.6997 39.3679 30.8915 39.4678 31.0502C39.5677 31.2089 39.7265 31.3214 39.9093 31.3631C40.0921 31.4046 40.284 31.3717 40.4426 31.2718C40.6013 31.1719 40.7138 31.0131 40.7555 30.8303C40.7555 30.8303 40.8816 30.2795 40.8182 29.6184C40.7549 28.9573 40.4599 28.0552 39.5749 27.5915Z" fill="#EC7523"/>
<path fill-rule="evenodd" clip-rule="evenodd" d="M40.1292 22.7859C38.3182 22.7859 37.1425 23.3006 36.566 24.233C36.4874 24.36 36.4214 24.4895 36.3642 24.6214C36.9724 24.3466 37.7539 24.2012 38.7138 24.2012C40.5251 24.2012 41.7045 24.7159 42.2812 25.6483C42.8578 26.5807 42.8091 27.6495 42.8091 28.6931C42.8091 29.6178 42.5481 30.4888 42.0987 31.2128C43.3749 30.4414 44.2244 28.9471 44.2244 27.2778C44.2244 26.2341 44.2731 25.1654 43.6965 24.233C43.1198 23.3006 41.9404 22.7859 40.1292 22.7859Z" fill="#EC7523"/>
<path fill-rule="evenodd" clip-rule="evenodd" d="M37.2033 30.2452C37.1846 30.5195 37.1824 30.7893 37.1824 31.0549C37.1824 32.7766 38.4668 34.2623 40.1287 34.2623C41.791 34.2623 43.0749 32.7763 43.0749 31.0549C43.0749 30.789 43.072 30.5236 43.054 30.2504C41.1067 30.4031 39.1502 30.3821 37.2033 30.2451V30.2452Z" fill="#3A4B58"/>
<path fill-rule="evenodd" clip-rule="evenodd" d="M14.1192 21.7827C11.2699 22.1455 9.0625 24.59 9.0625 27.5289C9.0625 29.1075 9.7012 30.5485 10.7289 31.5931C11.004 31.8724 11.4538 31.8748 11.7319 31.5984C12.0077 31.3239 12.0101 30.8782 11.7372 30.6007C10.9587 29.8095 10.4783 28.7285 10.4783 27.5291C10.4783 25.2963 12.1442 23.4622 14.2969 23.1881L14.1192 21.7827Z" fill="#8A5796"/>
<path fill-rule="evenodd" clip-rule="evenodd" d="M13.5393 38.3475C11.9765 37.6813 10.8752 36.1328 10.8752 34.3199C10.8752 33.2836 11.2355 32.3381 11.8364 31.5879L10.7289 30.6998C9.93548 31.6904 9.45953 32.9553 9.45953 34.3199C9.45953 36.7063 10.9081 38.7649 12.9804 39.6483L13.5393 38.3475Z" fill="#8A5796"/>
<path fill-rule="evenodd" clip-rule="evenodd" d="M37.2032 30.2454C37.1844 30.5196 37.1823 30.7897 37.1823 31.0553C37.1823 31.2893 37.2061 31.5187 37.2514 31.7408C38.7139 31.7973 40.1783 31.7807 41.6383 31.6662C41.6563 31.9395 41.6592 32.2048 41.6592 32.4706C41.6592 33.0173 41.5298 33.5401 41.2999 33.9993C42.3571 33.4982 43.0745 32.3425 43.0745 31.0553C43.0745 30.7894 43.0716 30.5241 43.0537 30.2509C41.1063 30.4036 39.15 30.3822 37.2031 30.2455L37.2032 30.2454Z" fill="#143441"/>
</svg>
